<svg xmlns="http://www.w3.org/2000/svg" version="1.1" xmlns:xlink="http://www.w3.org/1999/xlink" width="512" height="512" x="0" y="0" viewBox="0 0 512 512" style="enable-background:new 0 0 512 512" xml:space="preserve" class=""><g><path fill="#e8f1f8" d="M382.787 7.606a32.224 32.224 0 0 0-22.884 9.46c-5.867 5.866-9.46 13.899-9.46 22.83v400.02c0 4.439-.898 8.72-2.537 12.578a30.145 30.145 0 0 1-2.96 5.445 21.66 21.66 0 0 1-1.85 2.483c-.634.846-1.321 1.587-2.061 2.325h-.053a32.223 32.223 0 0 1-22.884 9.46H39.897V39.897c0-8.931 3.594-16.965 9.46-22.83a32.223 32.223 0 0 1 22.884-9.46h310.546z" opacity="1" data-original="#e8f1f8" class=""></path><path d="M382.787 7.606a32.237 32.237 0 0 0-22.884 9.46c-5.867 5.866-9.46 13.899-9.46 22.83v400.02c0 4.441-.898 8.722-2.537 12.58a30.086 30.086 0 0 1-2.96 5.442 21.86 21.86 0 0 1-1.85 2.485c-.634.844-1.321 1.584-2.061 2.325h-.053a32.23 32.23 0 0 1-22.884 9.46H39.897v-45.557c144.016-26.954 253.045-153.37 253.045-305.208V7.606z" opacity="1" fill="#00000012" data-original="#00000012" class=""></path><path fill="#acbadf" d="M318.099 472.207H39.844c-17.81 0-32.238-14.48-32.238-32.29v-24.311H285.86v24.311c0 17.81 14.428 32.29 32.239 32.29zM447.422 374.752h-96.98V39.897c0-8.931 3.594-16.965 9.46-22.83a32.223 32.223 0 0 1 22.884-9.46c17.81 0 32.291 14.479 32.291 32.29v302.511c.001 17.865 14.482 32.344 32.345 32.344z" opacity="1" data-original="#acbadf" class=""></path><path fill="#e8f1f8" d="M415.09 142.83v199.588c0 17.852 14.471 32.324 32.323 32.324s32.323-14.472 32.323-32.324V142.83z" opacity="1" data-original="#e8f1f8" class=""></path><path fill="#475da9" d="M504.391 262.975V485.03c0 10.694-8.669 19.363-19.363 19.363H324.56c-10.694 0-19.363-8.669-19.363-19.363V262.975c0-10.694 8.669-19.363 19.363-19.363h160.468c10.694 0 19.363 8.669 19.363 19.363z" opacity="1" data-original="#475da9" class=""></path><path d="M504.394 262.978v222.05c0 10.698-8.665 19.363-19.363 19.363H324.557c-10.698 0-19.363-8.665-19.363-19.363v-7.479h53.661c65.569 0 118.697-53.128 118.697-118.673V243.615h7.479c10.698 0 19.363 8.665 19.363 19.363z" opacity="1" fill="#00000012" data-original="#00000012" class=""></path><path fill="#acbadf" d="M477.767 327.427v-50.945a7.261 7.261 0 0 0-7.261-7.261H339.085a7.261 7.261 0 0 0-7.261 7.261v50.945a7.261 7.261 0 0 0 7.261 7.261h131.421a7.26 7.26 0 0 0 7.261-7.261z" opacity="1" data-original="#acbadf" class=""></path><path fill="#f78721" d="M369.172 363.943v11.834a9.438 9.438 0 0 1-9.438 9.438h-18.476a9.438 9.438 0 0 1-9.438-9.438v-11.834a9.438 9.438 0 0 1 9.438-9.438h18.476a9.439 9.439 0 0 1 9.438 9.438z" opacity="1" data-original="#f78721"></path><path fill="#e8f1f8" d="M423.47 363.943v11.834a9.438 9.438 0 0 1-9.438 9.438h-18.476a9.438 9.438 0 0 1-9.438-9.438v-11.834a9.438 9.438 0 0 1 9.438-9.438h18.476a9.439 9.439 0 0 1 9.438 9.438zM477.767 363.943v11.834a9.438 9.438 0 0 1-9.438 9.438h-18.476a9.438 9.438 0 0 1-9.438-9.438v-11.834a9.438 9.438 0 0 1 9.438-9.438h18.476a9.438 9.438 0 0 1 9.438 9.438zM369.172 410.724v11.834a9.438 9.438 0 0 1-9.438 9.438h-18.476a9.438 9.438 0 0 1-9.438-9.438v-11.834a9.438 9.438 0 0 1 9.438-9.438h18.476a9.439 9.439 0 0 1 9.438 9.438zM423.47 410.724v11.834a9.438 9.438 0 0 1-9.438 9.438h-18.476a9.438 9.438 0 0 1-9.438-9.438v-11.834a9.438 9.438 0 0 1 9.438-9.438h18.476a9.439 9.439 0 0 1 9.438 9.438zM369.172 457.505v11.834a9.438 9.438 0 0 1-9.438 9.438h-18.476a9.438 9.438 0 0 1-9.438-9.438v-11.834a9.438 9.438 0 0 1 9.438-9.438h18.476a9.439 9.439 0 0 1 9.438 9.438zM423.47 457.505v11.834a9.438 9.438 0 0 1-9.438 9.438h-18.476a9.438 9.438 0 0 1-9.438-9.438v-11.834a9.438 9.438 0 0 1 9.438-9.438h18.476a9.439 9.439 0 0 1 9.438 9.438z" opacity="1" data-original="#e8f1f8" class=""></path><path fill="#fdcf17" d="M477.76 410.713v58.611c0 5.232-4.228 9.46-9.407 9.46h-18.497a9.45 9.45 0 0 1-9.46-9.46v-58.611c0-5.179 4.228-9.406 9.46-9.406h18.497c5.178 0 9.407 4.227 9.407 9.406z" opacity="1" data-original="#fdcf17"></path><path fill="#474747" d="M446.182 327.126c-9.352 0-16.962-7.613-16.962-16.965v-16.412c0-9.352 7.61-16.965 16.962-16.965 9.355 0 16.965 7.613 16.965 16.965v16.412c-.001 9.352-7.611 16.965-16.965 16.965zm0-39.772c-3.525 0-6.392 2.87-6.392 6.395v16.412c0 3.525 2.867 6.395 6.392 6.395s6.395-2.87 6.395-6.395v-16.412c-.001-3.525-2.87-6.395-6.395-6.395z" opacity="1" data-original="#474747" class=""></path><path fill="#fdcf17" d="M211.342 112.174c0 36.371-29.463 65.834-65.815 65.834s-65.834-29.463-65.834-65.834c0-36.352 29.482-65.815 65.834-65.815s65.815 29.463 65.815 65.815z" opacity="1" data-original="#fdcf17"></path><path fill="#f78721" d="M149.619 142.296H129c-2.919 0-5.285-2.364-5.285-5.285s2.366-5.285 5.285-5.285h20.619c3.933 0 7.13-3.2 7.13-7.128 0-3.933-3.197-7.133-7.13-7.133h-8.204c-9.76 0-17.7-7.938-17.7-17.697s7.94-17.697 17.7-17.697h20.619c2.919 0 5.285 2.364 5.285 5.285s-2.366 5.285-5.285 5.285h-20.619c-3.933 0-7.13 3.2-7.13 7.127s3.197 7.127 7.13 7.127h8.204c9.76 0 17.7 7.943 17.7 17.703s-7.94 17.698-17.7 17.698z" opacity="1" data-original="#f78721"></path><path fill="#f78721" d="M145.514 152.618a5.283 5.283 0 0 1-5.285-5.285v-10.322c0-2.921 2.366-5.285 5.285-5.285s5.285 2.364 5.285 5.285v10.322a5.285 5.285 0 0 1-5.285 5.285zM145.514 92.641a5.283 5.283 0 0 1-5.285-5.285V77.034c0-2.921 2.366-5.285 5.285-5.285s5.285 2.364 5.285 5.285v10.322a5.285 5.285 0 0 1-5.285 5.285z" opacity="1" data-original="#f78721"></path><path fill="#f14f4a" d="M118.924 342.069v35.748a6.882 6.882 0 0 1-6.882 6.882H86.575a6.882 6.882 0 0 1-6.882-6.882v-35.748a6.882 6.882 0 0 1 6.882-6.882h25.468c3.8 0 6.881 3.081 6.881 6.882z" opacity="1" data-original="#f14f4a"></path><path d="M118.92 342.058v35.759a6.873 6.873 0 0 1-6.882 6.882H86.575a6.873 6.873 0 0 1-6.882-6.882v-.642c17.572-.321 31.725-14.682 31.725-32.345v-9.654h.619a6.887 6.887 0 0 1 6.883 6.882z" opacity="1" fill="#00000012" data-original="#00000012" class=""></path><path fill="#f14f4a" d="M173.443 283.163v94.654a6.882 6.882 0 0 1-6.882 6.882h-25.468a6.882 6.882 0 0 1-6.882-6.882v-94.654a6.882 6.882 0 0 1 6.882-6.882h25.468a6.882 6.882 0 0 1 6.882 6.882z" opacity="1" data-original="#f14f4a"></path><path d="M173.438 283.151v94.666a6.873 6.873 0 0 1-6.882 6.882h-25.463a6.873 6.873 0 0 1-6.882-6.882v-.642c17.572-.321 31.725-14.682 31.725-32.345v-68.56h.619a6.886 6.886 0 0 1 6.883 6.881z" opacity="1" fill="#00000012" data-original="#00000012" class=""></path><path fill="#f14f4a" d="M227.962 309.411v68.406a6.882 6.882 0 0 1-6.882 6.882h-25.468a6.882 6.882 0 0 1-6.882-6.882v-68.406a6.882 6.882 0 0 1 6.882-6.882h25.468a6.883 6.883 0 0 1 6.882 6.882z" opacity="1" data-original="#f14f4a"></path><path d="M227.957 309.4v68.417a6.873 6.873 0 0 1-6.882 6.882h-25.463a6.873 6.873 0 0 1-6.882-6.882v-.642c17.572-.321 31.725-14.682 31.725-32.345v-42.312h.619c3.809 0 6.883 3.097 6.883 6.882z" opacity="1" fill="#00000012" data-original="#00000012" class=""></path><path fill="#f14f4a" d="M282.481 250.505v127.312a6.882 6.882 0 0 1-6.882 6.882h-25.468a6.882 6.882 0 0 1-6.882-6.882V250.505a6.882 6.882 0 0 1 6.882-6.882h25.468a6.882 6.882 0 0 1 6.882 6.882z" opacity="1" data-original="#f14f4a"></path><path d="M282.476 250.494v127.323a6.873 6.873 0 0 1-6.882 6.882h-25.463a6.873 6.873 0 0 1-6.882-6.882v-.642c17.572-.321 31.725-14.682 31.725-32.345V243.612h.619a6.887 6.887 0 0 1 6.883 6.882z" opacity="1" fill="#00000012" data-original="#00000012" class=""></path><path fill="#474747" d="M173.443 213.442H79.694c-2.919 0-5.285-2.364-5.285-5.285s2.366-5.285 5.285-5.285h93.749c2.919 0 5.285 2.364 5.285 5.285s-2.367 5.285-5.285 5.285zM142.938 248.909H79.694c-2.919 0-5.285-2.364-5.285-5.285s2.366-5.285 5.285-5.285h63.244c2.919 0 5.285 2.364 5.285 5.285s-2.366 5.285-5.285 5.285z" opacity="1" data-original="#474747" class=""></path></g></svg>