<svg xmlns="http://www.w3.org/2000/svg" version="1.1" xmlns:xlink="http://www.w3.org/1999/xlink" width="512" height="512" x="0" y="0" viewBox="0 0 128 128" style="enable-background:new 0 0 512 512" xml:space="preserve" class=""><g><linearGradient id="a"><stop offset="0" stop-color="#fef156"></stop><stop offset=".447" stop-color="#ffc242"></stop><stop offset="1" stop-color="#fc753f"></stop></linearGradient><linearGradient xlink:href="#a" id="c" x1="82.887" x2="82.887" y1="2" y2="126" gradientUnits="userSpaceOnUse"></linearGradient><linearGradient id="d" x1="138.778" x2="77.387" y1="138.783" y2="77.392" gradientUnits="userSpaceOnUse"><stop offset=".688" stop-color="#f99e0d" stop-opacity="0"></stop><stop offset=".733" stop-color="#f49020" stop-opacity=".078"></stop><stop offset=".823" stop-color="#e86d50" stop-opacity=".233"></stop><stop offset=".862" stop-color="#e25d66" stop-opacity=".3"></stop></linearGradient><linearGradient id="b"><stop offset="0" stop-color="#a4eeff"></stop><stop offset=".732" stop-color="#02c0fc"></stop><stop offset="1" stop-color="#27a6ff"></stop></linearGradient><linearGradient xlink:href="#b" id="e" x1="34" x2="34" y1="2" y2="126" gradientUnits="userSpaceOnUse"></linearGradient><linearGradient id="f" x1="95.615" x2="49.171" y1="120.33" y2="73.886" gradientUnits="userSpaceOnUse"><stop offset=".261" stop-color="#a4eeff" stop-opacity="0"></stop><stop offset=".296" stop-color="#66caff" stop-opacity=".508"></stop><stop offset=".33" stop-color="#27a6ff"></stop></linearGradient><linearGradient xlink:href="#a" id="g" x1="82.143" x2="82.143" y1="6.42" y2="20.7" gradientUnits="userSpaceOnUse"></linearGradient><linearGradient xlink:href="#b" id="h" x1="45.858" x2="45.858" y1="6.42" y2="20.7" gradientUnits="userSpaceOnUse"></linearGradient><linearGradient id="i" x1="32.743" x2="95.258" y1="64.001" y2="64.001" gradientUnits="userSpaceOnUse"><stop offset="0" stop-color="#a47af4"></stop><stop offset=".447" stop-color="#8954dd"></stop><stop offset="1" stop-color="#6936ba"></stop></linearGradient><path fill="url(#a)" d="M124 73c0 .45-.01.9-.05 1.34-.57 8.71-6.75 16.01-15.12 18.07-.58 4.05-2.6 7.69-5.57 10.31a16.89 16.89 0 0 1-5.26 3.19v.09c0 6.04-4.48 11.05-10.29 11.88-.97 2.09-2.42 3.87-4.21 5.24a13.957 13.957 0 0 1-7.18 2.81c-.43.05-.87.07-1.32.07-4.46 0-8.43-2.11-11-5.37-6.44-7.26-11.22-14.52-14.65-21.67a75.96 75.96 0 0 1-5.45-15.08C33.61 41.94 64 7.37 64 7.37 66.57 4.11 70.54 2 75 2c4.05 0 7.69 1.69 10.23 4.42 1.38 1.46 2.43 3.21 3.07 5.16 1.52-.38 3.09-.58 4.7-.58 10.48 0 19 8.52 19 19 0 .79-.05 1.58-.14 2.35C118.54 35.07 123 41.56 123 49a18 18 0 0 1-3.78 11.03C122.29 63.62 124 68.21 124 73z" opacity="1" data-original="url(#a)"></path><path fill="url(#d)" d="M123.95 74.34c-.57 8.71-6.75 16.01-15.12 18.07-.58 4.05-2.6 7.69-5.57 10.31a16.89 16.89 0 0 1-5.26 3.19v.09c0 6.04-4.48 11.05-10.29 11.88-.97 2.09-2.42 3.87-4.21 5.24a13.957 13.957 0 0 1-7.18 2.81L49.35 98.96 39.08 88.7l4.82-4.82 44.82-44.77z" opacity="1" data-original="url(#d)"></path><path fill="url(#b)" d="M64 7.37v113.26c-.26.33-.53.64-.82.94-.14.16-.29.3-.44.45-.14.14-.3.28-.45.42-.16.14-.32.27-.48.4-.47.39-.98.74-1.5 1.06-.01.01-.02.01-.03.02A13.768 13.768 0 0 1 53 126c-5.5 0-10.45-3.25-12.71-8.12C34.48 117.05 30 112.04 30 106v-.09a17.062 17.062 0 0 1-10.83-13.5C10.37 90.24 4 82.29 4 73c0-4.79 1.71-9.38 4.78-12.97A18 18 0 0 1 5 49c0-7.44 4.46-13.93 11.14-16.65-.09-.77-.14-1.56-.14-2.35 0-9.56 7.08-17.48 16.28-18.8.89-.13 1.8-.2 2.72-.2 1.61 0 3.18.2 4.7.58C41.54 5.98 46.79 2 53 2c4.46 0 8.43 2.11 11 5.37z" opacity="1" data-original="url(#b)" class=""></path><path fill="url(#f)" d="M64 63.81v49.8L39.08 88.7z" opacity="1" data-original="url(#f)"></path><path fill="url(#a)" d="M88.3 11.58a12.975 12.975 0 0 0-6.5 7.16 3.012 3.012 0 0 1-2.82 1.96c-.34 0-.7-.06-1.04-.19a3.015 3.015 0 0 1-1.77-3.86c1.65-4.45 4.87-8.06 9.06-10.23 1.38 1.46 2.43 3.21 3.07 5.16z" opacity="1" data-original="url(#a)"></path><path fill="#fcaa1a" d="M103.26 102.72a16.89 16.89 0 0 1-5.26 3.19c-.22-.98-.7-1.9-1.38-2.66-1.1-1.24-1-3.13.24-4.24a3 3 0 0 1 4.23.23c.92 1.03 1.66 2.21 2.17 3.48zM87.71 117.88c-.97 2.09-2.42 3.87-4.21 5.24-.86-.32-1.68-.74-2.46-1.26-1.38-.92-1.74-2.79-.82-4.17a3.004 3.004 0 0 1 4.16-.82c.98.66 2.14 1.01 3.33 1.01z" opacity="1" data-original="#fcaa1a"></path><path fill="url(#b)" d="M39.7 11.58c3.02 1.47 5.33 4.02 6.5 7.16.45 1.21 1.6 1.96 2.82 1.96.34 0 .7-.06 1.04-.19a3.015 3.015 0 0 0 1.77-3.86 18.877 18.877 0 0 0-9.06-10.23 13.721 13.721 0 0 0-3.07 5.16z" opacity="1" data-original="url(#b)" class=""></path><path fill="#10a0f9" d="M24.74 102.72a16.89 16.89 0 0 0 5.26 3.19c.22-.98.7-1.9 1.38-2.66 1.1-1.24 1-3.13-.24-4.24a3 3 0 0 0-4.23.23c-.92 1.03-1.66 2.21-2.17 3.48zM40.29 117.88c.97 2.09 2.42 3.87 4.21 5.24.86-.32 1.68-.74 2.46-1.26 1.38-.92 1.74-2.79.82-4.17a3.004 3.004 0 0 0-4.16-.82c-.98.66-2.14 1.01-3.33 1.01z" opacity="1" data-original="#10a0f9"></path><path fill="url(#i)" d="M90.69 86.03a8.918 8.918 0 0 1-4.66 4.66c-7 3.05-14.52 4.57-22.03 4.57a55.15 55.15 0 0 1-22.03-4.57 8.918 8.918 0 0 1-4.66-4.66c-6.09-14-6.09-30.06 0-44.06.91-2.1 2.56-3.75 4.66-4.66 14-6.09 30.06-6.09 44.06 0 2.1.91 3.75 2.56 4.66 4.66 6.09 14 6.09 30.06 0 44.06z" opacity="1" data-original="url(#i)" class=""></path><g fill="#fff"><path d="M59.819 51.975a2.999 2.999 0 0 0-5.638 0l-8 22a3 3 0 0 0 5.639 2.051L52.556 74h8.888l.737 2.025a3 3 0 0 0 3.844 1.794 3 3 0 0 0 1.794-3.845zM54.738 68 57 61.778 59.262 68zM77 50a3 3 0 0 0-3 3v22a3 3 0 1 0 6 0V53a3 3 0 0 0-3-3z" fill="#ffffff" opacity="1" data-original="#ffffff"></path></g></g></svg>