<svg xmlns="http://www.w3.org/2000/svg" version="1.1" xmlns:xlink="http://www.w3.org/1999/xlink" width="512" height="512" x="0" y="0" viewBox="0 0 512 512" style="enable-background:new 0 0 512 512" xml:space="preserve" class=""><g><g data-name="Analytic-graph copy 2"><path fill="#00a5ab" d="M488 432v56H312v-40l32-32 40 40 24-24 24 24 40-40z" opacity="1" data-original="#00a5ab" class=""></path><path fill="#ff5a21" d="M488 312v120l-16-16-40 40-24-24-24 24-40-40-32 32v-40l48-48 40 40z" opacity="1" data-original="#ff5a21" class=""></path><path fill="#007d93" d="M352 424v64h-40v-40l32-32z" opacity="1" data-original="#007d93"></path><path fill="#fc3c1d" d="m380 380-28 28v16l-8-8-32 32v-40l48-48zM488 312v40l-48 48-20-20z" opacity="1" data-original="#fc3c1d"></path><path fill="#00a5ab" d="M120 328h32v128h-32z" opacity="1" data-original="#00a5ab" class=""></path><path fill="#ffd648" d="M56 376h32v80H56z" opacity="1" data-original="#ffd648" class=""></path><path fill="#ff5a21" d="M184 296h32v160h-32z" opacity="1" data-original="#ff5a21" class=""></path><path fill="#007d93" d="M120 328h16v128h-16z" opacity="1" data-original="#007d93"></path><path fill="#ffb300" d="M56 376h16v80H56z" opacity="1" data-original="#ffb300" class=""></path><path fill="#fc3c1d" d="M184 296h16v160h-16z" opacity="1" data-original="#fc3c1d"></path><path fill="#ff5a21" d="M255.66 72.34A102.981 102.981 0 0 1 272 128H168V24a104.324 104.324 0 0 1 87.66 48.34z" opacity="1" data-original="#ff5a21" class=""></path><path fill="#ffd648" d="M205.28 237.28A103.832 103.832 0 0 1 128 272c-57.05 0-104-46.95-104-104S70.95 64 128 64v104h104a103.491 103.491 0 0 1-26.72 69.28z" opacity="1" data-original="#ffd648" class=""></path><path fill="#fc3c1d" d="M208 32.1V128h-40V24a102.445 102.445 0 0 1 40 8.1z" opacity="1" data-original="#fc3c1d"></path><path fill="#ffb300" d="M148.02 270.04A102.58 102.58 0 0 1 128 272c-57.05 0-104-46.95-104-104S70.95 64 128 64v8.1C90.56 87.9 64 125.09 64 168c0 50.22 36.39 92.62 84.02 102.04z" opacity="1" data-original="#ffb300" class=""></path><path fill="#00a5ab" d="m237.657 101.657-11.314-11.314 40-40A8 8 0 0 1 272 48h64v16h-60.687zM336 256H216a8 8 0 0 1-5.657-2.343l-40-40 11.314-11.314L219.313 240H336zM256 496H24a8 8 0 0 1-8-8V288h16v192h224z" opacity="1" data-original="#00a5ab" class=""></path><path fill="#ff5a21" d="M352 48h64v16h-64zM352 80h64v16h-64zM352 112h64v16h-64zM432 80h64v16h-64zM432 112h64v16h-64z" opacity="1" data-original="#ff5a21" class=""></path><g fill="#ffd648"><path d="M352 240h64v16h-64zM432 240h64v16h-64zM352 208h64v16h-64zM432 208h64v16h-64zM352 176h64v16h-64zM432 176h64v16h-64z" fill="#ffd648" opacity="1" data-original="#ffd648" class=""></path></g><path fill="#00a5ab" d="M496 496H280a8 8 0 0 1-8-8V288h16v192h208z" opacity="1" data-original="#00a5ab" class=""></path></g></g></svg>