<svg xmlns="http://www.w3.org/2000/svg" version="1.1" xmlns:xlink="http://www.w3.org/1999/xlink" width="512" height="512" x="0" y="0" viewBox="0 0 64 64" style="enable-background:new 0 0 512 512" xml:space="preserve" class=""><g><rect width="60" height="26" x="2" y="36" fill="#4d8c28" rx="4" opacity="1" data-original="#4d8c28"></rect><path fill="#559b2d" d="M6 36a4 4 0 0 0-4 4v18a3.974 3.974 0 0 0 .108.892A3.974 3.974 0 0 0 3 59h52a4 4 0 0 0 4-4V37a3.974 3.974 0 0 0-.108-.892A3.974 3.974 0 0 0 58 36z" opacity="1" data-original="#559b2d" class=""></path><path fill="#6bc13b" d="M51 21a7.95 7.95 0 0 0-1.961-5.237 5.93 5.93 0 0 1-1.308-3.35 7.973 7.973 0 0 0-7.144-7.144 5.93 5.93 0 0 1-3.35-1.308 7.973 7.973 0 0 0-10.474 0 5.93 5.93 0 0 1-3.35 1.308 7.973 7.973 0 0 0-7.144 7.144 5.93 5.93 0 0 1-1.308 3.35 7.973 7.973 0 0 0 0 10.474 5.93 5.93 0 0 1 1.308 3.35 7.973 7.973 0 0 0 7.144 7.144 5.93 5.93 0 0 1 3.35 1.308 7.973 7.973 0 0 0 10.474 0 5.93 5.93 0 0 1 3.35-1.308 7.973 7.973 0 0 0 7.144-7.144 5.93 5.93 0 0 1 1.308-3.35A7.95 7.95 0 0 0 51 21z" opacity="1" data-original="#6bc13b" class=""></path><circle cx="32" cy="21" r="13" fill="#f2f2f2" opacity="1" data-original="#f2f2f2" class=""></circle><path fill="#7bdf45" d="m23 23 6 6 12-12-3-3-9 9-3-3z" opacity="1" data-original="#7bdf45"></path><g fill="#f2f2f2"><path d="M9.98 44.8A1 1 0 0 0 9 44H7a1 1 0 0 0-.98.8l-1 5A1 1 0 0 0 5 50v4h2v-3h2v3h2v-4a1 1 0 0 0-.02-.2zM8.181 46l.6 3H7.22l.6-3zM15 44h-2a1 1 0 0 0-1 1v9h2v-4h1a3 3 0 0 0 0-6zm0 4h-1v-2h1a1 1 0 0 1 0 2zM22 44h-2a1 1 0 0 0-1 1v9h2v-4h1a3 3 0 0 0 0-6zm0 4h-1v-2h1a1 1 0 0 1 0 2zM32 47a3 3 0 0 0-3-3h-2a1 1 0 0 0-1 1v9h2v-4h.558A5.867 5.867 0 0 1 30 53.828V54h2v-.172a7.879 7.879 0 0 0-1.32-4.344A3 3 0 0 0 32 47zm-4-1h1a1 1 0 0 1 0 2h-1zM44 48.877 43.219 52h-.438L42 48.877V44h-2v5a.984.984 0 0 0 .03.242l1 4A1 1 0 0 0 42 54h2a1 1 0 0 0 .97-.758l1-4A.984.984 0 0 0 46 49v-5h-2zM47 45v8a1 1 0 0 0 1 1h4v-2h-3v-2h3v-2h-3v-2h3v-2h-4a1 1 0 0 0-1 1zM36 44a3 3 0 0 0-3 3v4a3 3 0 0 0 6 0v-4a3 3 0 0 0-3-3zm1 7a1 1 0 0 1-2 0v-4a1 1 0 0 1 2 0zM56 44h-2a1 1 0 0 0-1 1v8a1 1 0 0 0 1 1h2a3 3 0 0 0 3-3v-4a3 3 0 0 0-3-3zm1 7a1 1 0 0 1-1 1h-1v-6h1a1 1 0 0 1 1 1z" fill="#f2f2f2" opacity="1" data-original="#f2f2f2" class=""></path></g></g></svg>