<svg xmlns="http://www.w3.org/2000/svg" version="1.1" xmlns:xlink="http://www.w3.org/1999/xlink" width="512" height="512" x="0" y="0" viewBox="0 0 512.017 512.017" style="enable-background:new 0 0 512 512" xml:space="preserve" class=""><g><path fill="#ffa81c" d="M256.3 512.012h-.382c-33.508 0-60.768-27.261-60.768-60.769v-14.2c0-8.284 6.716-15 15-15h91.918c8.284 0 15 6.716 15 15v14.2c0 33.509-27.261 60.769-60.768 60.769z" opacity="1" data-original="#ffa81c"></path><path fill="#ff9300" d="M302.068 422.044h-45.959v89.969h.191c33.508 0 60.768-27.261 60.768-60.769v-14.2c0-8.285-6.716-15-15-15z" opacity="1" data-original="#ff9300"></path><path fill="#ffa81c" d="M286.093 93.76h-59.969c-8.284 0-15-6.716-15-15V44.997c0-24.805 20.18-44.984 44.984-44.984s44.984 20.18 44.984 44.984V78.76c.001 8.284-6.715 15-14.999 15z" opacity="1" data-original="#ffa81c"></path><path fill="#ff9300" d="M286.093 93.76c8.284 0 15-6.716 15-15V44.997c0-24.805-20.18-44.984-44.984-44.984V93.76z" opacity="1" data-original="#ff9300"></path><path fill="#ffcf2c" d="M415.057 452.044H97.16c-12.983 0-23.546-10.563-23.546-23.546v-21.446a94.868 94.868 0 0 1 24.354-63.519 64.913 64.913 0 0 0 16.664-43.462v-97.177c0-78.01 63.465-141.475 141.475-141.475s141.475 63.465 141.475 141.475v97.177a64.909 64.909 0 0 0 16.664 43.461 94.864 94.864 0 0 1 24.355 63.519v21.446c.001 12.984-10.561 23.547-23.544 23.547z" opacity="1" data-original="#ffcf2c" class=""></path><path fill="#ffc12e" d="M415.057 452.044c12.983 0 23.546-10.563 23.546-23.546v-21.446a94.864 94.864 0 0 0-24.355-63.519 64.909 64.909 0 0 1-16.664-43.461v-97.177c0-78.01-63.465-141.475-141.475-141.475v390.624z" opacity="1" data-original="#ffc12e" class=""></path><path fill="#fff566" d="M73.615 407.052v21.446c0 12.983 10.563 23.546 23.546 23.546h317.896c12.983 0 23.546-10.563 23.546-23.546v-21.446a95.018 95.018 0 0 0-4.844-29.978h-355.3a95.018 95.018 0 0 0-4.844 29.978z" opacity="1" data-original="#fff566" class=""></path><path fill="#ffe645" d="M256.109 377.074v74.969h158.948c12.983 0 23.546-10.563 23.546-23.546v-21.446a95.018 95.018 0 0 0-4.844-29.978h-177.65z" opacity="1" data-original="#ffe645"></path><path fill="#ff8b6e" d="M15.018 165.672a15.01 15.01 0 0 1-3.18-.341c-8.098-1.748-13.245-9.73-11.497-17.828C12.353 91.864 43.008 40.753 86.658 3.584c6.308-5.371 15.775-4.61 21.145 1.696 5.371 6.308 4.612 15.774-1.696 21.145-38.664 32.923-65.812 78.171-76.442 127.409-1.517 7.031-7.735 11.838-14.647 11.838z" opacity="1" data-original="#ff8b6e"></path><path fill="#ff674f" d="M496.999 165.672c-6.913 0-13.129-4.806-14.647-11.837-10.63-49.238-37.778-94.486-76.441-127.408-6.308-5.371-7.067-14.838-1.696-21.145 5.37-6.308 14.836-7.068 21.145-1.696 43.65 37.167 74.304 88.279 86.316 143.918 1.748 8.098-3.399 16.08-11.497 17.828-1.066.229-2.131.34-3.18.34z" opacity="1" data-original="#ff674f" class=""></path><path fill="#ff8b6e" d="M72.689 183.22c-.919 0-1.851-.085-2.787-.261-8.142-1.53-13.501-9.371-11.971-17.512 8.233-43.81 31.321-84.278 65.009-113.949 6.216-5.477 15.695-4.874 21.17 1.342 5.476 6.217 4.874 15.695-1.342 21.17-28.691 25.271-48.35 59.711-55.354 96.977-1.354 7.207-7.651 12.233-14.725 12.233z" opacity="1" data-original="#ff8b6e"></path><path fill="#ff674f" d="M439.328 183.221c-7.075 0-13.371-5.026-14.725-12.232-7.004-37.265-26.661-71.706-55.352-96.976-6.217-5.476-6.817-14.954-1.342-21.171 5.476-6.216 14.954-6.817 21.171-1.342 33.686 29.671 56.773 70.138 65.006 113.947 1.53 8.142-3.83 15.982-11.972 17.512-.934.177-1.867.262-2.786.262z" opacity="1" data-original="#ff674f" class=""></path></g></svg>