<svg xmlns="http://www.w3.org/2000/svg" version="1.1" xmlns:xlink="http://www.w3.org/1999/xlink" width="512" height="512" x="0" y="0" viewBox="0 0 392.8 392.8" style="enable-background:new 0 0 512 512" xml:space="preserve" class=""><g><path d="M196.4 0 292 49.2 388 98l-96 49.2-95.6 49.2-95.6-49.2L4.8 98l96-48.8z" style="" fill="#d9ac80" data-original="#d9ac80" class=""></path><path d="M316 179.6v-44.4l-48 24.4V204l26.4-32.4z" style="" fill="#d7baa4" data-original="#d7baa4"></path><path d="M196.4 196.4v196.4l191.6-98V98l-72 37.2-1.6.8v43.2l-20-7.6L268 204v-44.4z" style="" fill="#a67e4f" data-original="#a67e4f" class=""></path><path d="M196.4 392.8V196.4l-95.6-49.2L4.8 98v196.8z" style="" fill="#926e43" data-original="#926e43" class=""></path><path d="M76.8 61.2 268 159.6l46.4-23.6 1.6-.8-191.2-98.4-24 12.4z" style="" fill="#f2d3ba" data-original="#f2d3ba"></path></g></svg>