<svg xmlns="http://www.w3.org/2000/svg" version="1.1" xmlns:xlink="http://www.w3.org/1999/xlink" width="512" height="512" x="0" y="0" viewBox="0 0 503.187 503.187" style="enable-background:new 0 0 512 512" xml:space="preserve" class=""><g><path d="M292.561 460.22v-25.181h-83.935v25.181h-8.393v33.573h100.721V460.22z" style="" transform="translate(1 1)" fill="#fcc309" data-original="#fcc309"></path><path d="M317.741 460.22v-25.181h-25.18v25.181h8.393v33.573h25.18V460.22z" style="" transform="translate(1 1)" fill="#fd9808" data-original="#fd9808"></path><path d="M208.626 460.22v-25.181h-25.18v25.181h-8.394v33.573h25.181V460.22z" style="" transform="translate(1 1)" fill="#ffffff" data-original="#ffffff" class=""></path><path d="M200.233 435.039h100.721V183.236H200.233z" style="" transform="translate(1 1)" fill="#ffdd09" data-original="#ffdd09" class=""></path><path d="M175.052 435.039h25.181V183.236h-25.181z" style="" transform="translate(1 1)" fill="#ffffff" data-original="#ffffff" class=""></path><path d="M300.954 435.039h25.18V183.236h-25.18z" style="" transform="translate(1 1)" fill="#fd9808" data-original="#fd9808"></path><path d="M292.561 183.236h-83.934v-41.967c0-52.879 15.948-102.4 41.967-134.295 26.02 31.895 41.967 81.416 41.967 134.295v41.967z" style="" transform="translate(1 1)" fill="#fcc309" data-original="#fcc309"></path><path d="M183.446 141.269v41.967h25.18v-41.967c0-52.879 15.948-102.4 41.967-134.295-41.967 31.895-67.147 81.416-67.147 134.295" style="" transform="translate(1 1)" fill="#ffffff" data-original="#ffffff" class=""></path><path d="M250.593 6.974c26.02 31.895 41.967 81.416 41.967 134.295v41.967h25.18v-41.967c.001-52.879-25.179-102.4-67.147-134.295" style="" transform="translate(1 1)" fill="#fd9808" data-original="#fd9808"></path><path d="M327.134 444.433H176.052c-5.036 0-8.393-3.357-8.393-8.393V184.236c0-5.036 3.357-8.393 8.393-8.393h151.082c5.036 0 8.393 3.357 8.393 8.393v251.803c.001 5.036-3.357 8.394-8.393 8.394zm-142.688-16.787h134.295V192.63H184.446v235.016z" fill="#000000" opacity="1" data-original="#000000" class=""></path><path d="M318.741 469.613H184.446c-5.036 0-8.393-3.357-8.393-8.393v-25.18c0-5.036 3.357-8.393 8.393-8.393h134.295c5.036 0 8.393 3.357 8.393 8.393v25.18c0 5.036-3.357 8.393-8.393 8.393zm-125.902-16.787h117.508v-8.393H192.839v8.393z" fill="#000000" opacity="1" data-original="#000000" class=""></path><path d="M327.134 503.187H176.052c-5.036 0-8.393-3.357-8.393-8.393V461.22c0-5.036 3.357-8.393 8.393-8.393h151.082c5.036 0 8.393 3.357 8.393 8.393v33.574c.001 5.035-3.357 8.393-8.393 8.393zM184.446 486.4h134.295v-16.787H184.446V486.4zM318.741 192.63H184.446c-5.036 0-8.393-3.357-8.393-8.393V142.27c0-54.557 26.02-107.436 70.505-141.01 3.357-1.679 6.715-1.679 10.072 0 44.485 33.574 70.505 86.452 70.505 141.01v41.967c-.001 5.035-3.358 8.393-8.394 8.393zm-125.902-16.787h117.508v-33.574c0-47.843-21.823-93.167-58.754-123.384-36.931 30.216-58.754 75.541-58.754 123.384v33.574z" fill="#000000" opacity="1" data-original="#000000" class=""></path></g></svg>