<svg xmlns="http://www.w3.org/2000/svg" version="1.1" xmlns:xlink="http://www.w3.org/1999/xlink" width="512" height="512" x="0" y="0" viewBox="0 0 504.5 504.5" style="enable-background:new 0 0 512 512" xml:space="preserve" class=""><g><path fill="#ffae52" d="m388.103 469.387-142.468-26.861-129.238 24.691v6.079c0 16.129 13.075 31.203 29.204 31.203h213.298c16.129 0 29.204-13.075 29.204-29.203z" opacity="1" data-original="#ffae52"></path><path fill="#ff9d3d" d="M358.103 469.387v5.91c0 16.129-13.075 29.203-29.204 29.203h30c16.129 0 29.204-13.075 29.204-29.203v-5.91l-36.662-6.912z" opacity="1" data-original="#ff9d3d"></path><circle cx="252.25" cy="32.282" r="24.782" fill="#fbfbfb" opacity="1" data-original="#fbfbfb" class=""></circle><path fill="#fbfbfb" d="M252.445 37.76h-.39c-88.156 0-159.62 71.465-159.62 159.62v225.294h319.631V197.381c0-88.156-71.465-159.621-159.621-159.621z" opacity="1" data-original="#fbfbfb" class=""></path><path fill="#f3f2ee" d="M252.445 37.76h-.39c-4.993 0-9.929.241-14.805.689 81.214 7.471 144.816 75.768 144.816 158.931v225.294h30V197.381c0-88.156-71.465-159.621-159.621-159.621z" opacity="1" data-original="#f3f2ee"></path><path fill="#c1bab9" d="M228.068 45.262a7.505 7.505 0 0 1-7.31-5.852 32.51 32.51 0 0 1-.791-7.128C219.968 14.482 234.449 0 252.25 0s32.282 14.482 32.282 32.282c0 1.232-.07 2.474-.21 3.692a7.5 7.5 0 0 1-14.903-1.701c.074-.655.112-1.325.112-1.991 0-9.53-7.753-17.282-17.282-17.282s-17.282 7.753-17.282 17.282c0 1.294.143 2.582.424 3.829a7.5 7.5 0 0 1-7.323 9.151z" opacity="1" data-original="#c1bab9" class=""></path><path fill="#c1bab9" d="M252.445 30.26h-.391c-92.15 0-167.12 74.97-167.12 167.121v225.294a7.5 7.5 0 0 0 7.5 7.5h319.631a7.5 7.5 0 0 0 7.5-7.5V197.381c0-92.151-74.969-167.121-167.12-167.121zM99.935 204.881h41.996v126.427H99.935zm56.996 0h16.067v126.427h-16.067zM252.055 45.26h.391c.867 0 1.73.018 2.594.033 7.389 6.163 14.954 24.657 20.352 49.865 5.695 26.594 8.989 59.998 9.375 94.723h-65.03c.831-76.418 15.407-132.692 29.723-144.588.863-.014 1.726-.033 2.595-.033zm64.447 286.048h-16.698V204.881h16.698zM187.998 204.881h16.698v126.427h-16.698zm31.698 0h65.107v126.427h-65.107zm104.306-15h-24.237c-.389-35.764-3.8-70.282-9.707-97.864-2.95-13.779-7.466-30.138-13.979-42.774 18.416 8.205 35.153 24.903 47.827 47.958 14.298 26.008 22.576 58.688 23.564 92.68zM228.421 49.243c-6.512 12.636-11.028 28.996-13.979 42.774-5.907 27.583-9.318 62.1-9.707 97.864H157.031c.987-33.993 9.266-66.672 23.563-92.68 12.675-23.055 29.412-39.752 47.827-47.958zm-47.923 297.065h24.198v68.867H156.93v-68.867zm39.198 0h65.107v68.867h-65.107zm80.108 0h47.765v68.867h-47.766v-68.867zm31.698-15V204.881h16.067v126.427zm31.067-126.427h41.996v126.427h-41.996zm41.81-15h-41.91c-1.001-36.495-9.934-71.738-25.419-99.907-6.711-12.207-14.517-22.864-23.132-31.725 51.18 22.702 87.592 72.832 90.461 131.632zM190.581 58.249c-8.615 8.861-16.421 19.518-23.132 31.725-15.485 28.168-24.418 63.411-25.419 99.907h-41.91c2.87-58.8 39.282-108.93 90.461-131.632zM99.935 346.308h41.996v68.867H99.935zm262.634 68.867v-68.867h41.996v68.867z" opacity="1" data-original="#c1bab9" class=""></path><path fill="#fdde66" d="M413.656 469.387H90.843c-5.523 0-10-4.477-10-10v-36.712c0-5.523 4.477-10 10-10h322.813c5.523 0 10 4.477 10 10v36.712c0 5.522-4.477 10-10 10z" opacity="1" data-original="#fdde66"></path><path fill="#f3bd2f" d="M413.656 412.675h-30c5.523 0 10 4.477 10 10v36.712c0 5.523-4.477 10-10 10h30c5.523 0 10-4.477 10-10v-36.712c0-5.523-4.477-10-10-10z" opacity="1" data-original="#f3bd2f"></path></g></svg>