<svg xmlns="http://www.w3.org/2000/svg" version="1.1" xmlns:xlink="http://www.w3.org/1999/xlink" width="512" height="512" x="0" y="0" viewBox="0 0 64 64" style="enable-background:new 0 0 512 512" xml:space="preserve" class=""><g><path fill="#44bc59" d="M9 24 28.416 6.988C31.016 4.71 35 6.624 35 10.15V24z" opacity="1" data-original="#44bc59"></path><path fill="#2d9739" d="m17 24 21.057-10.5c2.667-1.456 5.943.44 5.943 3.438V24z" opacity="1" data-original="#2d9739"></path><path fill="#624434" d="M57 49v7a6 6 0 0 1-6 6H8a6 6 0 0 1-6-6V30a6 6 0 0 1 6-6h43a6 6 0 0 1 6 6v7z" opacity="1" data-original="#624434"></path><path fill="#755640" d="M47.567 62H51a6 6 0 0 0 6-6V30a6 6 0 0 0-6-6H15c0 18.526 13.915 34.023 32.567 38z" opacity="1" data-original="#755640"></path><path fill="#624434" d="M58 49H46c-3.314 0-4-2.686-4-6s.686-6 4-6h12a4 4 0 0 1 4 4v4a4 4 0 0 1-4 4z" opacity="1" data-original="#624434"></path><circle cx="49" cy="43" r="3" fill="#f2f2f2" opacity="1" data-original="#f2f2f2"></circle><path fill="#ffc239" d="M52.981 10a7.214 7.214 0 0 1-3.357 7.625L49 18l4 3 .176-.117A13.082 13.082 0 0 0 59 10h2.281a.704.704 0 0 0 .498-1.202l-4.6-6.188a1.491 1.491 0 0 0-2.394.001l-4.572 6.157a.721.721 0 0 0 .51 1.232h2.258l.019.046z" opacity="1" data-original="#ffc239"></path><path fill="#ffd55d" d="m57.482 3.019-4.269 5.749a.721.721 0 0 0 .51 1.232h2.258a7.212 7.212 0 0 1-3.357 7.625L52 18l2.497 1.873A13.08 13.08 0 0 0 59 10h2.281a.704.704 0 0 0 .498-1.202z" opacity="1" data-original="#ffd55d"></path><path d="M58 36v-6c0-3.859-3.14-7-7-7h-6v-6.062c0-1.746-.905-3.325-2.421-4.226-1.549-.918-3.418-.952-4.967-.106L36 13.409v-3.26c0-2.067-1.144-3.871-2.985-4.706-1.77-.802-3.785-.498-5.258.793L8.624 23H8c-3.86 0-7 3.141-7 7v26c0 3.859 3.14 7 7 7h43c3.86 0 7-3.141 7-7v-6c2.757 0 5-2.243 5-5v-4c0-2.757-2.243-5-5-5zM38.537 14.378a3.027 3.027 0 0 1 3.021.054A2.896 2.896 0 0 1 43 16.938V23H21.246zM29.075 7.74c.888-.778 2.052-.957 3.114-.475A3.11 3.11 0 0 1 34 10.149v4.257L16.765 23h-5.106zM56 56c0 2.757-2.243 5-5 5H8c-2.757 0-5-2.243-5-5V30c0-2.757 2.243-5 5-5h43c2.757 0 5 2.243 5 5v6H46c-5 0-5 5.269-5 7s0 7 5 7h10zm5-11c0 1.654-1.346 3-3 3H46c-1.801 0-3-.851-3-5s1.199-5 3-5h12c1.654 0 3 1.346 3 3z" fill="#000000" opacity="1" data-original="#000000"></path><path d="M49 39c-2.206 0-4 1.794-4 4s1.794 4 4 4 4-1.794 4-4-1.794-4-4-4zm0 6c-1.103 0-2-.897-2-2s.897-2 2-2 2 .897 2 2-.897 2-2 2zM49.11 16.768l-.625.375a1 1 0 0 0-.086 1.658l4 3a1 1 0 0 0 1.155.032l.176-.117a14.046 14.046 0 0 0 6.234-10.715h1.316c.692 0 1.31-.413 1.574-1.052a1.699 1.699 0 0 0-.308-1.793L57.98 2.014a2.469 2.469 0 0 0-1.999-1.005h-.001a2.466 2.466 0 0 0-1.998 1.007l-4.538 6.11a1.715 1.715 0 0 0-.312 1.811A1.716 1.716 0 0 0 50.723 11h1.388a6.227 6.227 0 0 1-3.001 5.768zm4.889-6.77a.977.977 0 0 0-.072-.327l-.019-.046-.001-.002c-.09-.223-.253-.396-.45-.503s0-.001-.001-.001a1.027 1.027 0 0 0-.175-.073A1.217 1.217 0 0 0 52.962 9h-1.676l4.302-5.793c.127-.172.301-.198.393-.198s.266.026.395.198L60.684 9H59a1 1 0 0 0-1 1c0 3.883-1.851 7.499-4.975 9.77l-2.265-1.7a8.228 8.228 0 0 0 3.239-8.072z" fill="#000000" opacity="1" data-original="#000000"></path></g></svg>