<svg xmlns="http://www.w3.org/2000/svg" version="1.1" xmlns:xlink="http://www.w3.org/1999/xlink" width="512" height="512" x="0" y="0" viewBox="0 0 512.005 512.005" style="enable-background:new 0 0 512 512" xml:space="preserve" class=""><g><path fill="#ff8b5a" d="M184.003 512.005a8.074 8.074 0 0 1-2.813-.508c-4.133-1.555-6.227-6.164-4.68-10.305l24-64c1.555-4.141 6.164-6.211 10.305-4.68 4.133 1.555 6.227 6.164 4.68 10.305l-24 64c-1.203 3.212-4.258 5.188-7.492 5.188z" opacity="1" data-original="#ff8b5a"></path><path fill="#ffa95f" d="M208.003 512.005h-56c-4.422 0-8-3.578-8-8s3.578-8 8-8h56c4.422 0 8 3.578 8 8s-3.579 8-8 8z" opacity="1" data-original="#ffa95f"></path><path fill="#ff8b5a" d="M328.003 512.005c-3.234 0-6.289-1.977-7.492-5.188l-24-64c-1.547-4.141.547-8.75 4.68-10.305 4.133-1.523 8.75.539 10.305 4.68l24 64c1.547 4.141-.547 8.75-4.68 10.305a8.082 8.082 0 0 1-2.813.508z" opacity="1" data-original="#ff8b5a"></path><path fill="#ffa95f" d="M360.003 512.005h-56c-4.422 0-8-3.578-8-8s3.578-8 8-8h56c4.422 0 8 3.578 8 8s-3.579 8-8 8z" opacity="1" data-original="#ffa95f"></path><path fill="#ffe07d" d="M360.003 224.005c32 16 62.567 53.241 76.313 89.356 13.82 36.312 14.927 74.098 5.727 108.188-1.472 5.456-7.858 7.842-12.478 4.587-34.5-24.305-61.561-58.132-61.561-58.132z" opacity="1" data-original="#ffe07d" class=""></path><path fill="#ffd064" d="M152.003 224.005c-32 16-62.567 53.241-76.313 89.356-13.82 36.312-14.927 74.098-5.727 108.188 1.472 5.456 7.858 7.842 12.478 4.587 34.5-24.305 61.561-58.132 61.561-58.132z" opacity="1" data-original="#ffd064" class=""></path><path fill="#ffa95f" d="M256.003 48.005a7.991 7.991 0 0 1-7.586-5.469c-6.664-19.977-26.742-26.875-26.945-26.945-4.188-1.391-6.453-5.922-5.055-10.117A7.974 7.974 0 0 1 226.534.419c.898.297 17.898 6.141 29.469 22.227C267.573 6.56 284.573.716 285.472.419a7.968 7.968 0 0 1 10.117 5.055c1.398 4.18-.852 8.703-5.023 10.109-.352.125-20.414 7.273-26.977 26.953a7.991 7.991 0 0 1-7.586 5.469z" opacity="1" data-original="#ffa95f"></path><path fill="#ffd064" d="M400.003 320.005c0 74.07-55.923 135.081-127.851 143.107-5.301.592-10.69.224-16.149.224-79.529 0-133-63.802-133-143.331s53.471-98.336 133-98.336c51.57 0 122.25 22.198 122.25 22.198 13.789 22.09 21.75 48.179 21.75 76.138z" opacity="1" data-original="#ffd064" class=""></path><path fill="#ffc250" d="M148.89 224.005c-22.878 25.469-36.887 59.058-36.887 96 0 79.529 64.471 144 144 144 5.415 0 10.89-.311 16.149-.893-71.99-7.967-128.149-68.993-128.149-143.107l.001-.541c.082-21.837 24.142-35.481 43.295-24.992 20.396 11.17 43.788 17.533 68.704 17.533 51.594 0 96.822-27.361 122.25-68.138-4.434-7.11-9.586-13.653-15.149-19.862z" opacity="1" data-original="#ffc250" class=""></path><path fill="#ffe07d" d="M384.003 168.005c0 31.278-11.219 59.936-29.852 82.169-23.48 28.017-58.734 42.329-98.148 42.329-70.692 0-122-53.805-122-124.497 0-39.42 11.819-74.678 39.843-98.158 22.231-18.627 50.885-29.842 82.157-29.842 70.692-.001 128 57.307 128 127.999z" opacity="1" data-original="#ffe07d" class=""></path><circle cx="196.003" cy="162.427" r="20" fill="#4b3f4e" opacity="1" data-original="#4b3f4e"></circle><circle cx="316.003" cy="162.427" r="20" fill="#4b3f4e" opacity="1" data-original="#4b3f4e"></circle><path fill="#ff8b5a" d="m232.294 218.865 17.052 25.578c3.167 4.75 10.146 4.75 13.313 0l17.052-25.578c3.544-5.316-.267-12.438-6.656-12.438h-34.104c-6.39 0-10.201 7.122-6.657 12.438z" opacity="1" data-original="#ff8b5a"></path><path fill="#ffd064" d="M272.003 280.005c-70.692 0-128-57.308-128-128 0-31.272 11.218-59.924 29.844-82.156-28.024 23.48-45.844 58.735-45.844 98.156 0 70.692 57.308 128 128 128 39.42 0 74.668-17.807 98.148-45.831-22.232 18.626-50.876 29.831-82.148 29.831z" opacity="1" data-original="#ffd064" class=""></path></g></svg>