<svg xmlns="http://www.w3.org/2000/svg" version="1.1" xmlns:xlink="http://www.w3.org/1999/xlink" width="512" height="512" x="0" y="0" viewBox="0 0 64 64" style="enable-background:new 0 0 512 512" xml:space="preserve" class=""><g><path fill="#9c5f20" d="M49.473 57.002c.107-.858.638-1.796.841-2.515.482-1.712.75-3.476 1.254-5.182 1.767-5.985 2.794-12.232 2.46-18.485C53.702 24.743 52.443 17.876 51 12V3H14.036v9c-2.049 8.814-4.767 19.611-3.891 28.732.315 3.279.934 6.522 1.686 9.727.37 1.574.772 3.139 1.189 4.701.333 1.25.877 2.461.998 3.76.02.21.115 2.55.018 2.574l8.9-2.225a9.03 9.03 0 0 1 3.02-.233L53 61.494l-3.116-3.116c-.389-.389-.474-.869-.411-1.376z" opacity="1" data-original="#9c5f20"></path><circle cx="32" cy="35" r="19" fill="#ffffff" opacity="1" data-original="#ffffff"></circle><path fill="#c12929" d="M44.424 26.125c-1.205-1.468-2.732-.383-2.732-.383s.407-1.736-.692-2.531c-1-.723-3.004.643-3.004.643s-1.567-1.045-2.612-.723c-1.045.321.17 2.994.17 2.994L40 32.176l2.705.417c2.138-.784.594-3.345.594-3.345s2.157-1.866 1.125-3.123zM38.871 35.159h-.85c-2.018 0-3.776 2.553-3.904 4.679-.002.36.004.593.004.593s5.784-1.278 4.88-5.23a2.367 2.367 0 0 0-.13-.042z" opacity="1" data-original="#c12929"></path><path fill="#edbf36" d="M41 32.249c-.585-.054-2 2.951-2 2.951l6 1.042s.904-3.539-4-3.993z" opacity="1" data-original="#edbf36"></path><path fill="#f4c69d" d="M25.695 31.485c-.455 1.155-.661 2.402-1.187 3.526-1.389 2.967-5.039 6.24-8.931 8.514C18.868 49.185 24.982 53 32 53c1.105 0 2.181-.114 3.234-.295.291-3.192-.835-9.391-1.114-12.275-.214-2.209 1.691-5.271 3.901-5.271H39l2-2.91c0-8.001-12.308-8.375-15.305-.764z" opacity="1" data-original="#f4c69d"></path><path fill="#8c551d" d="M49.473 57.002c.013-.104.048-.211.072-.316l-23.588-2.144a9.085 9.085 0 0 0-3.02.233l-6.291 1.573c-1.28.32-2.517-.6-2.627-1.915l-.001-.007c-.121-1.299-.665-2.511-.998-3.76a164.88 164.88 0 0 1-1.189-4.701c-.753-3.205-1.372-6.447-1.686-9.727a36.13 36.13 0 0 1-.106-1.49c-.096 2.046-.079 4.054.106 5.984.315 3.279.934 6.522 1.686 9.727.37 1.574.773 3.139 1.189 4.701.333 1.25.877 2.461.998 3.76.02.21.115 2.55.018 2.574l8.9-2.225a9.03 9.03 0 0 1 3.02-.233L53 61.494l-3.116-3.116c-.389-.389-.474-.869-.411-1.376z" opacity="1" data-original="#8c551d"></path><g fill="#fff"><path d="M18 11h-1a1 1 0 0 1 0-2h1a1 1 0 0 1 0 2zM23 11h-1a1 1 0 0 1 0-2h1a1 1 0 0 1 0 2zM28 11h-1a1 1 0 0 1 0-2h1a1 1 0 0 1 0 2zM33 11h-1a1 1 0 0 1 0-2h1a1 1 0 0 1 0 2zM38 11h-1a1 1 0 0 1 0-2h1a1 1 0 0 1 0 2zM43 11h-1a1 1 0 0 1 0-2h1a1 1 0 0 1 0 2zM48 11h-1a1 1 0 0 1 0-2h1a1 1 0 0 1 0 2z" fill="#ffffff" opacity="1" data-original="#ffffff"></path></g><circle cx="35.717" cy="30.53" r="1.282" fill="#000000" opacity="1" data-original="#000000"></circle></g></svg>