<svg xmlns="http://www.w3.org/2000/svg" version="1.1" xmlns:xlink="http://www.w3.org/1999/xlink" width="512" height="512" x="0" y="0" viewBox="0 0 294.057 264.177" style="enable-background:new 0 0 512 512" xml:space="preserve" class=""><g><path d="m133.838 80.43-46.189 5.656-38.932-24.333a7.957 7.957 0 0 0-3.157-1.137c-7.76-2.137-18.435.42-25.795 11.421C8.03 89.801 3.259 102.122.08 124.26c-.69 10.356 3.16 15.925 8.332 19.186 1.839 4.405 17.823 45.177.884 90.913-2.398 6.475.906 13.666 7.38 16.063 1.432.53 2.897.781 4.34.781 5.08 0 9.856-3.119 11.723-8.161 17.512-47.282 6.042-89.21.617-104.382a56.9 56.9 0 0 0 .628-2.76c.622-4.942 1.889-9.96 3.508-14.911-10.17-20.558-8.556-42.083-8.436-43.5.446-5.234 4.912-9.334 10.167-9.334.285 0 .571.012.859.036 5.594.477 9.765 5.413 9.302 11.005-.047.586-.416 5.905.557 13.108.79-1.598 1.553-3.143 2.265-4.611a24.308 24.308 0 0 0 1.813-3.755l27.548 17.218a8.003 8.003 0 0 0 5.212 1.157l49.001-6a8 8 0 0 0 6.968-8.913 7.994 7.994 0 0 0-8.91-6.97zM291.967 198.285l1.25-2.917s1.389-1.806-2.918-1.528-12.92 8.614-17.922 10.975c-5.001 2.362-18.617.973-18.617.973s-8.614 9.864-18.755 7.641c-.129 1.614-.015 5.471.506 9.584-1.497-1.859-3.059-3.253-4.173-3.824-1.313 3.071-13.33 4.349-16.559 8.329a9.296 9.296 0 0 0-1.96 4.189l-2.939-4.442s-1.427 8.299.404 10.735c1.831 2.435 6.326 2.226 6.326 2.226l-.138-.348c.425.097.721.132.721.132l3.961 4.694-.233-4.259c.935.546 2.094.947 3.094.448 2.069-1.033 1.476-2.005 1.476-2.005l-.829-.979 1.332-.434s6.985 1.948 12.721 1.245c.6-.902.982-1.864 1.189-2.858 2.621 1.959 9.357 3.473 16.026 4.353l-1.623 8.563-9.737.89a1 1 0 0 0 .091 1.996h13.962a1 1 0 0 0 .333-1.942l-1.82-.645 2.434-8.441c2.734.27 5.309.419 7.427.438a6.034 6.034 0 0 0 2.587 1.039l3.509 6.626-9.014.931a1 1 0 0 0 .103 1.995h13.962a1 1 0 0 0 .371-1.929l-2.301-.92-2.79-7.355a5.693 5.693 0 0 0 2.544-2.738c14.614-8.333 12.803-25.986 12.803-25.986s2.362-2.779 4.029-4.168.973-4.585 1.111-5.835-2.362.695-2.362.695 2.362-2.779 2.501-4.446c.14-1.67-2.083-.698-2.083-.698zm-74.056 38.028a1.564 1.564 0 1 1 .339-3.109 1.564 1.564 0 0 1-.339 3.109zM96.81 25.797C97.369 15.55 92.031 3.029 82.36.472c-9.673-2.558-20.503 5.689-25.081 14.873-21.336-3.485-37.463-2.292-39.044 3.686-1.475 5.577 10.114 13.794 28.138 20.975.134-1.185.352-2.375.666-3.562 2.034-7.694 14.938-7.967 26.824-4.824s22.969 9.758 20.935 17.452a24.735 24.735 0 0 1-1.204 3.479c19.474 2.761 33.849 1.374 35.336-4.252 1.582-5.978-11.85-14.986-32.12-22.502z" fill="#000000" opacity="1" data-original="#000000"></path><path d="M49.166 37.007c-3.177 12.014 3.988 24.328 16.001 27.504 12.015 3.177 24.327-3.987 27.504-16.001 3.176-12.014-40.329-23.517-43.505-11.503zM97.143 165.662c0 1.36-.865 2.623-2.423 3.735-.239.17-.497.337-.768.5-.534-1.103-1.807-1.96-3.522-2.62-4.994-1.921-13.658-2.198-18.195-2.198-4.833 0-14.343.315-19.119 2.596-1.064.508-1.89 1.115-2.379 1.837-.057-.039-.115-.077-.17-.116-1.558-1.112-2.423-2.375-2.423-3.735 0-8.109 4.803-15.215 11.959-19.104a63.779 63.779 0 0 1-2.755-1.868c-7.354 4.537-12.204 12.244-12.204 20.972 0 2.57 1.494 4.671 3.976 6.339.558.375 1.163.73 1.817 1.061a4.772 4.772 0 0 0-.066 1.171l2.328 30.945c.207 2.742 2.627 4.986 5.377 4.986h28.139c2.75 0 5.168-2.244 5.375-4.986l2.33-30.945a4.821 4.821 0 0 0-.067-1.171 17.168 17.168 0 0 0 1.816-1.06c2.482-1.667 3.976-3.769 3.976-6.339 0-9.905-6.246-18.491-15.309-22.625a10.151 10.151 0 0 1-.576 3.04c7.663 3.764 12.883 11.131 12.883 19.585zm-4.909 5.417c0 2.209-8.955 4-20 4-11.047 0-20-1.791-20-4s8.953-4 20-4c11.045 0 20 1.791 20 4z" fill="#000000" opacity="1" data-original="#000000"></path><path d="M47.193 79.013a8 8 0 0 0-7.293-8.631c-4.392-.368-8.275 2.89-8.65 7.292-.187 2.191-4.062 53.877 40.311 72.412a7.973 7.973 0 0 0 3.08.62 8 8 0 0 0 3.087-15.384c-33.513-13.998-30.673-54.574-30.535-56.309zM201.85 232.565l-3.574.615c1.215-3.036 1.864-6.891 1.864-6.891l-2.513 1.91c-.625-2.7-1.602-5.21-1.602-5.21l-2.311 5.73a8.599 8.599 0 0 0-2.013-2.359c-3.59-2.953-14.5-1.91-16.223-4.402-1.19.951-2.828 3.365-3.969 6.251-.131-3.522.512-7.171.512-7.171s-5.354-2.108-13.5-7.5c-3.176-2.102-6.479-9.606-10.5-10.333-2.199-.398-7.561.562-11.398 1.059-1.249-2.842-3.113-5.864-5.909-8.55-14.42-13.858-27.207-3.458-23.806 16.154 1.984-11.393 3.93-9.806 3.93-9.806s-2.041 7.255 3.552 17.382c-.227-11.26 3.174-15.719 3.174-15.719s-2.721 11.487 3.703 25.468c-1.587-13.717 1.814-18.893 1.814-18.893s-.291 6.751 1.965 14.353c1.136 5.091 3.998 11.386 10.961 15.354.442 1.022 1.234 1.862 2.227 2.42l-2.526 6.66-2.049.819a1.001 1.001 0 0 0 .371 1.929h12.662a1 1 0 0 0 .103-1.995l-8.038-.83 3.152-5.953a5.446 5.446 0 0 0 2.156-.877c1.948-.018 4.291-.19 6.694-.506l2.209 7.663-1.568.556a1 1 0 0 0 .333 1.942h12.662a1 1 0 0 0 .091-1.996l-8.762-.8-1.5-7.917c4.468-.846 8.55-2.177 9.964-3.917 1.268-1.561 3.615-1.939 6.002-2.001.113 2.039.773 3.954 2.271 5.445 3.765-.299 7.845-1.934 9.837-2.827l-1.704 1.936s-.699 1.079 2.296 1.305c1.707.129 3.568-.945 4.856-1.894l1.149 5.404 2.884-5.022c.59.182 1.206.273 1.828.205 3.083-.341 8.243-7.191 8.243-7.191zm-12.202-.523a1.418 1.418 0 0 1 .864 2.7 1.418 1.418 0 0 1-.864-2.7z" fill="#000000" opacity="1" data-original="#000000"></path><circle cx="142.617" cy="115.511" r="2.14" fill="#000000" opacity="1" data-original="#000000"></circle><circle cx="155.117" cy="123.394" r="2.14" fill="#000000" opacity="1" data-original="#000000"></circle><circle cx="159.171" cy="134.542" r="2.14" fill="#000000" opacity="1" data-original="#000000"></circle><circle cx="201.894" cy="252.954" r="2.14" fill="#000000" opacity="1" data-original="#000000"></circle><circle cx="142.673" cy="131.671" r="2.14" fill="#000000" opacity="1" data-original="#000000"></circle><circle cx="140.144" cy="155.704" r="2.14" fill="#000000" opacity="1" data-original="#000000"></circle><circle cx="149.81" cy="140.231" r="2.14" fill="#000000" opacity="1" data-original="#000000"></circle><circle cx="172.81" cy="141.565" r="2.14" fill="#000000" opacity="1" data-original="#000000"></circle><circle cx="182.617" cy="252.371" r="2.14" fill="#000000" opacity="1" data-original="#000000"></circle><circle cx="195.144" cy="262.038" r="2.14" fill="#000000" opacity="1" data-original="#000000"></circle><circle cx="225.81" cy="252.231" r="2.14" fill="#000000" opacity="1" data-original="#000000"></circle><circle cx="215.283" cy="257.038" r="2.14" fill="#000000" opacity="1" data-original="#000000"></circle><circle cx="235.894" cy="256.954" r="2.14" fill="#000000" opacity="1" data-original="#000000"></circle><circle cx="171.894" cy="259.954" r="2.14" fill="#000000" opacity="1" data-original="#000000"></circle></g></svg>