<svg xmlns="http://www.w3.org/2000/svg" version="1.1" xmlns:xlink="http://www.w3.org/1999/xlink" width="512" height="512" x="0" y="0" viewBox="0 0 64 64" style="enable-background:new 0 0 512 512" xml:space="preserve" class=""><g><path fill="#c12929" d="M60.424 5.95c-1.205-1.468-2.732-.383-2.732-.383s.407-1.736-.692-2.531c-1-.723-3.004.643-3.004.643s-1.567-1.045-2.612-.723c-1.045.321.17 2.994.17 2.994L56 12l2.705.417c2.138-.784.594-3.345.594-3.345s2.157-1.865 1.125-3.122z" opacity="1" data-original="#c12929"></path><path fill="#f4c59c" d="M21.522 45v5.382a1 1 0 0 0 .599.916l3.253 1.426c.227.099.482.111.717.033L30 51.456 27 46z" opacity="1" data-original="#f4c59c" class=""></path><path fill="#c12929" d="M54.871 14.983h-.85c-2.018 0-3.776 2.553-3.904 4.679-.002.36.004.593.004.593s5.784-1.278 4.88-5.23l-.13-.042z" opacity="1" data-original="#c12929"></path><path fill="#edbf36" d="M22.121 51.298a1 1 0 0 1-.599-.916L19 61h4l2.374-8.277zM57 12.073c-.585-.054-2 2.951-2 2.951l6 1.042s.904-3.538-4-3.993z" opacity="1" data-original="#edbf36" class=""></path><path fill="#f4c69d" d="M14.251 60.109c3.314-2.193 2.812-6.646-.604-8.41C11.045 50.356 3 51.812 3 55.716c0 4.254 8.353 6.311 11.251 4.393z" opacity="1" data-original="#f4c69d"></path><path fill="#f4cdab" d="M41.695 11.31c-.455 1.155-.661 2.402-1.187 3.526-2.453 5.241-11.961 11.443-17.399 11.391-1.862-.018-3.682-1.402-3.975-3.271-.121-.774-2.069-6.107-3.524-7.835-2.451-2.909-5.267-3.164-8.767-3.599-1.475-.183-2.99.545-3.578 1.911a3.256 3.256 0 0 0-.202 1.924L4.095 20l.007.017A7.948 7.948 0 0 0 3 24.042a7.98 7.98 0 0 0 3.272 6.443c-.406 1.23-.482 2.611.654 4.236.949 1.358 2.423 2.316 4.076 2.318a7.999 7.999 0 0 0 3.198 6.362c1.289.967 2.731 1.685 4.222 2.284 1.348.542 6.688.653 7.704 1.789 1.096 1.225 1.829 2.829 3.286 3.695.572.34 1.219.536 1.871.668 1.534.312 3.156.163 4.715.163 1.683 0 2.756-1.844 3.691-2.97.879-1.058 2.219-2.474 3.517-3.036 5.614-2.431 7.203-6.728 8.004-13.189.385-3.1-.803-9.583-1.09-12.55-.214-2.209 1.691-5.271 3.901-5.271H55l2-2.91c0-8.001-12.308-8.375-15.305-.764z" opacity="1" data-original="#f4cdab" class=""></path><path fill="#edbf36" d="m32 52 2 9h4l-2-9z" opacity="1" data-original="#edbf36" class=""></path><path fill="#f4c59c" d="M51.21 29.975c-.801 6.461-2.391 10.758-8.004 13.189-1.297.562-2.638 1.978-3.517 3.036-.935 1.126-2.008 2.97-3.691 2.97-1.559 0-3.181.149-4.715-.163-.652-.133-1.299-.328-1.871-.668-1.456-.866-2.19-2.47-3.286-3.695-1.016-1.136-6.355-1.247-7.704-1.789-1.491-.599-2.933-1.317-4.222-2.284a7.999 7.999 0 0 1-3.198-6.362c-1.654-.002-3.127-.96-4.076-2.318a5.356 5.356 0 0 1-.681-1.311c-.378 1.206-.426 2.557.681 4.141.949 1.358 2.423 2.316 4.076 2.318a7.999 7.999 0 0 0 3.198 6.362c1.289.967 2.731 1.685 4.222 2.284 1.348.542 6.688.653 7.704 1.789 1.096 1.225 1.829 2.829 3.286 3.695.572.34 1.219.536 1.871.668 1.534.312 3.156.163 4.715.163 1.683 0 2.756-1.844 3.691-2.97.879-1.058 2.219-2.474 3.517-3.036 5.614-2.431 7.203-6.728 8.004-13.189.102-.82.092-1.881.019-3.047-.007.071-.011.149-.019.217z" opacity="1" data-original="#f4c59c" class=""></path><path fill="#f4b175" d="M14.251 57.279c-2.54 1.681-9.269.307-10.893-2.922A2.773 2.773 0 0 0 3 55.716c0 4.254 8.353 6.311 11.251 4.393 2.011-1.331 2.609-3.493 2.01-5.383-.319.971-.979 1.871-2.01 2.553z" opacity="1" data-original="#f4b175"></path><circle cx="51.718" cy="10.354" r="1.282" fill="#000000" opacity="1" data-original="#000000" class=""></circle><path d="M15.799 35.643 14.2 34.442c-.416.553-.97.992-1.601 1.268l.801 1.833a6.039 6.039 0 0 0 2.399-1.9z" fill="#000000" opacity="1" data-original="#000000" class=""></path><path d="M60.477 12.225c.091-.153.162-.302.21-.438.316-.897.074-1.86-.179-2.502.933-1.037 1.776-2.646.689-3.969-.746-.907-1.661-1.178-2.479-1.123-.113-.717-.432-1.46-1.132-1.967-1.149-.832-2.733-.187-3.6.29-.698-.368-1.869-.834-2.896-.516a1.53 1.53 0 0 0-.956.851c-.255.567-.188 1.311-.022 1.992-3.634.009-7.708 1.941-9.347 6.101-.215.547-.375 1.1-.53 1.635-.189.653-.368 1.271-.631 1.833-2.284 4.88-11.31 10.815-16.422 10.815h-.063c-1.444-.014-2.789-1.102-2.997-2.426-.142-.905-2.132-6.407-3.747-8.324-2.619-3.11-5.6-3.478-9.052-3.903l-.357-.044c-1.983-.248-3.878.786-4.619 2.508a4.243 4.243 0 0 0-.26 2.536l.953 4.291A8.988 8.988 0 0 0 2 24.042a9.034 9.034 0 0 0 3.134 6.814c-.346 1.577-.03 3.002.972 4.438.999 1.428 2.427 2.366 3.95 2.649a9.044 9.044 0 0 0 3.544 6.258c1.223.917 2.637 1.684 4.449 2.412.514.207 1.312.336 2.473.495v3.157L18.026 60.77c-.07.297-.001.611.188.851.191.239.48.379.786.379h10v-2h-4.673l1.792-6.248c.096-.017.194-.016.287-.047l3.569-1.188c.336.116.699.216 1.108.299.025.005.05.005.076.01l1.864 8.39c.102.458.508.784.977.784h9v-2h-4.198l-1.607-7.234c1.232-.479 2.114-1.615 2.799-2.506.16-.209.314-.41.465-.592 1.167-1.405 2.283-2.385 3.145-2.758 6.041-2.616 7.769-7.29 8.599-13.983.295-2.376-.257-6.438-.701-9.703-.112-.824-.215-1.583-.294-2.243 1.165-.387 3.198-1.262 4.233-2.897a4.118 4.118 0 0 0 .622-1.859l4.768.828a1.001 1.001 0 0 0 1.14-.737c.045-.175.407-1.751-.614-3.2a4.018 4.018 0 0 0-.88-.891zm-7.036-7.714c.338.226.78.223 1.116-.004.777-.524 1.69-.777 1.857-.661.446.323.366 1.213.304 1.493-.094.4.073.813.411 1.046.337.234.79.233 1.131.005.296-.2.872-.438 1.391.195.236.288-.438 1.235-1.006 1.732-.366.316-.45.853-.204 1.269.228.386.5 1.142.359 1.539a.467.467 0 0 1-.186.224 8.218 8.218 0 0 0-.685-.154c-.336-3.083-2.42-5.355-5.645-6.099-.164-.442-.285-.897-.318-1.194.414.051 1.038.321 1.475.609zM20.266 60l1.812-7.629 2.093.917L22.246 60zm5.509-8.192-3.252-1.426v-2.993c1.217.188 2.555.447 2.858.75.333.373.637.793.958 1.239.436.605.894 1.215 1.447 1.76zM34.802 60l-1.551-6.979c.145.003.29.014.434.014.4 0 .797-.009 1.19-.019l.325-.005L36.754 60zm15.416-27.319c-.763 6.148-2.22 10.147-7.41 12.395-1.177.51-2.485 1.625-3.889 3.315-.166.2-.336.421-.513.651-.704.917-1.503 1.958-2.408 1.958-.386 0-.777.009-1.168.018-1.18.026-2.296.052-3.347-.161-.663-.135-1.158-.309-1.56-.548-.788-.469-1.358-1.261-1.962-2.099-.337-.468-.686-.952-1.089-1.403-.82-.917-2.729-1.232-5.549-1.608-1.001-.134-2.137-.285-2.527-.442-1.646-.662-2.916-1.347-3.995-2.156a7.038 7.038 0 0 1-2.73-4.66 5.935 5.935 0 0 0 1.33-.398l-.801-1.834a3.97 3.97 0 0 1-1.561.332c-1.222.04-2.457-.696-3.293-1.894-.84-1.202-.833-2.169-.632-2.973l1.719-2.578-1.664-1.109-1.041 1.562A6.908 6.908 0 0 1 4 24.042a6.958 6.958 0 0 1 3.926-6.291 7.04 7.04 0 0 1 3.508-.696l.12-1.996a9.025 9.025 0 0 0-4.507.895l.439.898-.439-.898a9.046 9.046 0 0 0-2.435 1.765l-.569-2.559c-.09-.449-.041-.91.141-1.333.391-.91 1.43-1.451 2.536-1.314l.358.044c3.282.404 5.653.697 7.767 3.206 1.287 1.528 3.174 6.601 3.301 7.346.359 2.285 2.535 4.093 4.953 4.116h.074c5.807-.001 15.662-6.456 18.241-11.968.33-.704.539-1.426.741-2.125.149-.513.289-.998.471-1.458 1.524-3.872 5.741-5.318 8.93-4.711 2.596.492 4.197 2.197 4.403 4.59-.404.402-.911 1.125-1.565 2.429h-.374c-1.112 0-2.231.558-3.15 1.57-1.213 1.336-1.898 3.219-1.745 4.797.08.827.229 1.923.395 3.143.405 2.985.96 7.071.698 9.189zm1.081-13.87c.206-.684.562-1.374 1.052-1.913.536-.59 1.129-.915 1.67-.915h.059a2.151 2.151 0 0 1-.328 1.027c-.518.822-1.55 1.419-2.453 1.801zm5.21-4.539c.281-.506.549-.936.733-1.166 1.189.159 2.039.551 2.466 1.143.148.205.238.422.291.628z" fill="#000000" opacity="1" data-original="#000000" class=""></path><path d="M40.205 21.558c-1.153 2.338-3.648 6.172-5.438 6.507a2.223 2.223 0 0 1-.124.02c.07-.541.567-1.692 1.154-2.624l-1.691-1.068c-.812 1.287-2.042 3.641-1.151 4.952.246.362.707.748 1.554.748.189 0 .398-.02.627-.063 3.348-.627 6.513-6.878 6.863-7.589zM43.377 29.027c-.403.076-.625.063-.731.046.005-.169.091-.479.199-.697l-.894-.449-.891-.454c-.146.286-.833 1.769-.036 2.833.388.519.995.779 1.809.779.28 0 .584-.031.912-.092 3.209-.602 4.976-2.275 5.05-2.346l-1.388-1.44c-.012.013-1.444 1.336-4.03 1.82zM2 55.716c0 1.844 1.196 3.503 3.369 4.671 1.622.872 3.829 1.447 5.84 1.447 1.371 0 2.652-.268 3.594-.891 1.813-1.199 2.789-3.061 2.678-5.106-.114-2.115-1.376-3.993-3.376-5.026-2.182-1.126-6.843-.61-9.589 1.063C2.87 52.876 2 54.205 2 55.716zm3.557-2.134c1.514-.922 3.694-1.379 5.423-1.379.919 0 1.711.129 2.208.386 1.363.703 2.221 1.958 2.296 3.356.071 1.319-.579 2.533-1.785 3.331-1.448.958-4.968.648-7.384-.65C5.451 58.161 4 57.165 4 55.716c0-.787.524-1.505 1.557-2.134zM5.353 49.305a9.836 9.836 0 0 1 5.266-1.632l-.034-2a11.845 11.845 0 0 0-6.334 1.963l-.802.53 1.103 1.669z" fill="#000000" opacity="1" data-original="#000000" class=""></path></g></svg>