<svg xmlns="http://www.w3.org/2000/svg" version="1.1" xmlns:xlink="http://www.w3.org/1999/xlink" width="512" height="512" x="0" y="0" viewBox="0 0 512.001 512.001" style="enable-background:new 0 0 512 512" xml:space="preserve" class=""><g><path d="m176.802 30.333-29.488 71.914-90.91-90.91c38.923-19.92 87.814-13.588 120.398 18.996z" style="" fill="#4bb3a4" data-original="#4bb3a4"></path><path d="M103.565 103.564 212.254 254.68l66.277-66.277-72.174-72.174c3.755-30.554-6.102-62.445-29.557-85.899l-73.235 73.234z" style="" fill="#60d9ce" data-original="#60d9ce"></path><path d="m103.565 103.564 129.903 129.903-45.071 45.071-72.174-72.174c-30.547 3.748-62.438-6.109-85.892-29.564C-2.254 144.215-8.582 95.333 11.337 56.407l69.692 69.692 22.536-22.535z" style="" fill="#4bb3a4" data-original="#4bb3a4"></path><path d="m335.2 481.667 29.488-71.914 90.91 90.91c-38.924 19.92-87.814 13.588-120.398-18.996z" style="" fill="#60d9ce" data-original="#60d9ce"></path><path d="M408.437 408.436 299.747 257.32l-66.277 66.277 72.174 72.174c-3.755 30.554 6.102 62.445 29.557 85.899l73.236-73.234z" style="" fill="#4bb3a4" data-original="#4bb3a4"></path><path d="M408.437 408.436 278.534 278.533l45.071-45.071 72.174 72.174c30.547-3.748 62.438 6.109 85.892 29.564 32.583 32.583 38.912 81.466 18.993 120.392L430.972 385.9l-22.535 22.536z" style="" fill="#60d9ce" data-original="#60d9ce"></path><path d="m486.783 25.217 11.267 11.267c18.59 18.59 18.59 49.011 0 67.601l-27.356 27.356-73.352-45.067 89.441-61.157z" style="" fill="#ff6126" data-original="#ff6126"></path><path d="m475.516 13.951 11.267 11.267-75.299 75.299-30.925-59.21 27.356-27.356c18.59-18.591 49.011-18.591 67.601 0z" style="" fill="#ff8151" data-original="#ff8151"></path><path d="m425.626 86.373 45.068 45.068-45.068 45.067-73.351-45.067z" style="" fill="#a3fdf6" data-original="#a3fdf6"></path><path d="m380.559 41.306 45.068 45.068-59.21 59.209-30.925-59.209z" style="" fill="#dbfffa" data-original="#dbfffa"></path><path d="m41.361 456.502 9.899 38.184L6.005 506z" style="" fill="#000e0f" data-original="#000e0f"></path><path d="m17.319 460.745 16.971 16.97L6.005 506z" style="" fill="#116371" data-original="#116371"></path><path d="m88.192 409.67 37.993 66.278-74.925 18.738-16.97-16.971z" style="" fill="#ffa07d" data-original="#ffa07d"></path><path d="m36.05 385.813 45.071 45.071-46.831 46.831-16.971-16.97z" style="" fill="#ffc0a8" data-original="#ffc0a8"></path><path d="m380.559 131.441 45.068 45.068-299.443 299.443-45.068-45.068L209.624 259.95z" style="" fill="#ffd15e" data-original="#ffd15e"></path><path d="M176.437 46.888h63.734v423.476h-63.734z" style="" transform="rotate(45.001 208.308 258.625)" fill="#ffea7c" data-original="#ffea7c" class=""></path></g></svg>