<svg xmlns="http://www.w3.org/2000/svg" version="1.1" xmlns:xlink="http://www.w3.org/1999/xlink" width="512" height="512" x="0" y="0" viewBox="0 0 24 24" style="enable-background:new 0 0 512 512" xml:space="preserve" class=""><g><path d="m19.698 16.147-.003-.004c.179-.31.213-.683.094-1.021a1.237 1.237 0 0 0-1.582-.739H18.2l-1.183.441a1.203 1.203 0 0 0-.699-1.166 1.242 1.242 0 0 0-.95-.041h-.001l-2.204.823a1.148 1.148 0 0 0-.662-1.091 1.187 1.187 0 0 0-.919-.042l-4.034 1.496a10.041 10.041 0 0 1-.439-.175 3.867 3.867 0 0 0-3.302-.011.968.968 0 0 0-.947-.787H.966a.969.969 0 0 0-.966.966v5.535a.968.968 0 0 0 .966.966H2.86a.967.967 0 0 0 .933-.723 9.43 9.43 0 0 1 2.858.51l2.17.649c.484.127.983.187 1.483.18a5.603 5.603 0 0 0 1.557-.196c1.112-.344 2.881-1.021 3.581-1.303l4.329-1.761a1.18 1.18 0 0 0 .671-.744 1.54 1.54 0 0 0-.152-1.253 1.298 1.298 0 0 0-.592-.509zM3.101 20.331a.245.245 0 0 1-.241.243H.966a.243.243 0 0 1-.242-.243v-5.535c0-.134.108-.242.242-.242H2.86c.133.002.24.109.242.242v5.535zm13.254-4.485a.468.468 0 0 0 .048-.018l2.048-.765a.51.51 0 0 1 .657.299v.001a.502.502 0 0 1-.306.64l-5.207 1.94a1.561 1.561 0 0 0-.324-.946l3.084-1.151zm-.743-1.547a.533.533 0 0 1 .4.016c.12.056.213.157.257.282a.51.51 0 0 1-.179.575l-3.594 1.339-1.464-.504 4.58-1.708zm-3.788-.306a.444.444 0 1 1 .313.832l-.023.01-2.158.8-1.327-.46 3.195-1.182zm7.938 3.693-.006.001a.463.463 0 0 1-.256.297l-4.328 1.762c-.69.28-2.432.944-3.523 1.281a5.485 5.485 0 0 1-2.619.014l-2.17-.649a10.127 10.127 0 0 0-3.031-.541v-4.476c1.727-.613 2.246-.399 3.005-.081.186.077 5.555 1.94 5.555 1.94h.012a.68.68 0 0 1 .448.519.804.804 0 0 1-.082.578.635.635 0 0 1-.127.156 1.375 1.375 0 0 1-1.347.075L8.24 17.554a.362.362 0 0 0-.227.687l3.053 1.007c.302.106.619.162.939.167.411.017.812-.123 1.123-.392.072-.065.137-.138.193-.216l5.309-1.974h.014a.825.825 0 0 1 1.036.204.805.805 0 0 1 .082.649zM12.718 10.323h.002zM23.312 2.822h-2.127a.69.69 0 0 0-.69.617 30.817 30.817 0 0 1-1.568-.417c-1.738-.488-3.899-1.101-5.328-.896-2.031.29-3.701 1.891-5.667 3.953a3.63 3.63 0 0 0 .45 7.238 3.639 3.639 0 0 0 3.301-2.101 9.173 9.173 0 0 1 1.047-.082 8.89 8.89 0 0 1 1.03.102c.707.103 1.421.159 2.136.168.457.001.914-.03 1.367-.094a8.948 8.948 0 0 0 2.348-.871c.307-.145.622-.295.9-.408a.69.69 0 0 0 .674.546h2.127A.689.689 0 0 0 24 9.889V3.511a.69.69 0 0 0-.688-.689zM8.378 12.591a2.91 2.91 0 1 1 .005-5.819v.004a2.947 2.947 0 0 1 2.501 1.421 5.816 5.816 0 0 0-.584.139 1.752 1.752 0 0 0-1.309 1.791 1.15 1.15 0 0 0 .919 1.142c.294.043.591.054.887.033a2.91 2.91 0 0 1-2.419 1.289zM20.49 9.163c-.422.157-.835.337-1.237.539a8.43 8.43 0 0 1-2.116.799c-1.094.129-2.2.103-3.286-.077a9.318 9.318 0 0 0-1.131-.102c-.397.01-.793.044-1.186.1l.01.094-.013-.094c-.491.083-.99.1-1.485.052-.173-.029-.233-.258-.241-.39a.954.954 0 0 1 .731-.959c.259-.078.633-.145 1.076-.225 1.323-.24 2.969-.537 3.581-1.499.241-.386.302-.858.167-1.292a1.188 1.188 0 0 0-.737-.848c-.828-.318-2.24.164-4.197 1.429a3.69 3.69 0 0 0-1.395-.576c1.806-1.855 3.165-2.966 4.682-3.182a15.04 15.04 0 0 1 4.993.875c.699.197 1.31.37 1.785.463v4.893zm-9.425-1.916h.002c1.532-.964 2.745-1.423 3.265-1.228.126.05.216.163.237.297a.78.78 0 0 1-.068.645c-.408.642-1.865.92-2.871 1.103a3.599 3.599 0 0 0-.565-.817zM23.27 9.855h-2.058l.002-6.309h2.056v6.309z" fill="#000000" opacity="1" data-original="#000000" class=""></path></g></svg>