<svg xmlns="http://www.w3.org/2000/svg" version="1.1" xmlns:xlink="http://www.w3.org/1999/xlink" width="512" height="512" x="0" y="0" viewBox="0 0 512 512" style="enable-background:new 0 0 512 512" xml:space="preserve" class=""><g><path fill="#ffbd86" d="M1.286 325.877v-.987c0-8.891 7.232-16.124 16.123-16.124h477.182c8.891 0 16.124 7.233 16.124 16.124v.425h1v-8.443a61.807 61.807 0 0 0-8.615-31.477l-31.805-53.751a28.54 28.54 0 0 0-24.562-14.006H65.267a28.54 28.54 0 0 0-24.562 14.006L8.901 285.396a61.806 61.806 0 0 0-8.615 31.476v9.018z" opacity="1" data-original="#ffbd86" class=""></path><path fill="#f6a96c" d="m467.994 307.766 2.553 1h24.044c8.755 0 15.888 7.019 16.104 15.723l1.02.399v-8.016a61.807 61.807 0 0 0-8.615-31.477l-31.805-53.751a28.54 28.54 0 0 0-24.562-14.006h-23.928l37.257 67.757a61.832 61.832 0 0 1 7.932 22.371z" opacity="1" data-original="#f6a96c"></path><path fill="#ffe5c2" d="M.286 324.89v169.986C.286 504.333 7.953 512 17.41 512h477.182c9.457 0 17.124-7.667 17.124-17.124V324.89c0-9.457-7.667-17.124-17.124-17.124H17.411c-9.459 0-17.125 7.667-17.125 17.124z" opacity="1" data-original="#ffe5c2" class=""></path><path fill="#fed2a4" d="M494.591 307.766h-26.597c.448 3.004.683 6.047.683 9.106v137.18c0 11.379-9.225 20.604-20.604 20.604H.285v20.22C.285 504.333 7.952 512 17.409 512h477.182c9.457 0 17.124-7.667 17.124-17.124V324.889c-.001-9.457-7.667-17.123-17.124-17.123z" opacity="1" data-original="#fed2a4" class=""></path><path fill="#ffb09e" d="M337.568 15.411a77.035 77.035 0 0 0-54.472 22.563L230.12 90.95A90.785 90.785 0 0 1 256 87.183c37.167 0 69.186 22.386 83.337 54.373h42.237c20.111 0 37.779-10.41 47.947-26.126V15.411z" opacity="1" data-original="#ffb09e"></path><path fill="#f89580" d="M390.136 15.411V97.1c0 3.978-1.58 7.794-4.393 10.607l-33.85 33.85h29.681c20.111 0 37.779-10.41 47.946-26.126V15.411z" opacity="1" data-original="#f89580"></path><path fill="#ffe177" d="M196.836 249.008h118.327c20.209-16.916 33.073-42.313 33.073-70.73 0-50.941-41.296-92.236-92.236-92.236s-92.236 41.296-92.236 92.236c0 28.417 12.863 53.814 33.072 70.73z" opacity="1" data-original="#ffe177" class=""></path><path fill="#ffd15b" d="M196.836 249.008h118.328c20.209-16.916 33.072-42.313 33.072-70.73 0-34.539-18.988-64.639-47.091-80.444 8.73 14.226 13.721 30.95 13.572 48.756-.199 23.913-9.507 45.647-24.617 61.922-8.63 9.295-20.779 14.523-33.463 14.523h-81.292a92.742 92.742 0 0 0 21.491 25.973z" opacity="1" data-original="#ffd15b"></path><path fill="#ffb09e" d="m381.9 92.847-16.542-21.019c-2.331-2.962-6.726-3.223-9.391-.558l-38.287 38.287c-13.622 13.621-13.544 35.755.233 49.279 4.692 4.606 12.281 4.418 16.931-.231l45.875-45.874a15.002 15.002 0 0 0 1.181-19.884z" opacity="1" data-original="#ffb09e"></path><path fill="#f89580" d="M317.68 109.557c-13.622 13.622-13.544 35.755.234 49.279 4.692 4.606 12.281 4.418 16.93-.232l1.462-1.462c-12.149-13.619-11.694-34.518 1.374-47.586l27.899-27.899a7.072 7.072 0 0 0-10-10z" opacity="1" data-original="#f89580"></path><path fill="#26a6fe" d="M500.299 147.264h-60.504c-6.305 0-11.416-5.111-11.416-11.416V11.416C428.379 5.111 433.49 0 439.795 0h60.504c6.305 0 11.416 5.111 11.416 11.416v124.433c0 6.304-5.111 11.415-11.416 11.415z" opacity="1" data-original="#26a6fe"></path><path fill="#0593fc" d="M500.299 0h-20.75v103.449c0 6.305-5.111 11.416-11.416 11.416h-39.755v20.983c0 6.305 5.111 11.416 11.416 11.416h60.504c6.305 0 11.416-5.111 11.416-11.416V11.416C511.715 5.111 506.603 0 500.299 0z" opacity="1" data-original="#0593fc"></path><path fill="#f6ab31" d="M267.195 170.778h-22.391c-4.844 0-8.784-3.94-8.784-8.784v-4.75c0-4.844 3.94-8.784 8.784-8.784h22.391c4.844 0 8.784 3.94 8.784 8.784 0 4.142 3.357 7.5 7.5 7.5s7.5-3.358 7.5-7.5c0-13.115-10.67-23.784-23.784-23.784H263.5v-7.427c0-4.142-3.357-7.5-7.5-7.5s-7.5 3.358-7.5 7.5v7.427h-3.695c-13.114 0-23.784 10.669-23.784 23.784v4.75c0 13.115 10.67 23.784 23.784 23.784h22.391c4.844 0 8.784 3.94 8.784 8.784v4.75c0 4.844-3.94 8.784-8.784 8.784h-22.391c-4.23 0-8.784-2.432-8.784-7.772 0-4.142-3.357-7.5-7.5-7.5s-7.5 3.358-7.5 7.5c0 12.77 10.447 22.772 23.784 22.772h3.695v7.427c0 4.142 3.357 7.5 7.5 7.5s7.5-3.358 7.5-7.5v-7.427h3.695c13.114 0 23.784-10.669 23.784-23.784v-4.75c0-13.114-10.669-23.784-23.784-23.784z" opacity="1" data-original="#f6ab31"></path><path fill="#f6a96c" d="M399.141 263.008H112.859c-4.143 0-7.5-3.358-7.5-7.5s3.357-7.5 7.5-7.5H399.14c4.143 0 7.5 3.358 7.5 7.5s-3.357 7.5-7.499 7.5z" opacity="1" data-original="#f6a96c"></path><g fill="#d88a55"><path d="M335.9 370.188c-.025-.069-.053-.137-.08-.205a9.196 9.196 0 0 0-8.534-5.718h-.01a9.195 9.195 0 0 0-8.531 5.734c-.023.057-.046.113-.067.17l-28.626 75.162a7.5 7.5 0 0 0 4.34 9.678c3.866 1.475 8.203-.468 9.678-4.339l5.29-13.889H345l5.233 13.867a7.503 7.503 0 0 0 7.018 4.854 7.5 7.5 0 0 0 7.015-10.15zm-20.828 51.594 12.189-32.004 12.078 32.004zM466.613 440.153h-24.329v-22.77h21.982c4.143 0 7.5-3.358 7.5-7.5s-3.357-7.5-7.5-7.5h-21.982v-22.77h24.329c4.143 0 7.5-3.358 7.5-7.5s-3.357-7.5-7.5-7.5h-31.829a7.5 7.5 0 0 0-7.5 7.5v75.54a7.5 7.5 0 0 0 7.5 7.5h31.829c4.143 0 7.5-3.358 7.5-7.5s-3.357-7.5-7.5-7.5zM273.167 364.265h-.074a7.5 7.5 0 0 0-7.428 7.572l.514 53.081-39.551-57.272a7.5 7.5 0 0 0-13.672 4.262v76.093c0 4.142 3.357 7.5 7.5 7.5s7.5-3.358 7.5-7.5v-52.035l37.778 54.705c2.284 3.302 6.062 4.715 9.626 3.604 3.655-1.141 6.017-4.612 6.017-8.915l-.712-73.667a7.5 7.5 0 0 0-7.498-7.428zM66.339 365.393H45.387a7.503 7.503 0 0 0-7.5 7.514V445.673c0 .539.06 1.064.167 1.571a7.49 7.49 0 0 0 2.199 4.954 7.496 7.496 0 0 0 5.283 2.177h.028c.633-.002 15.562-.06 21.519-.164 21.226-.371 36.632-19.013 36.632-44.326 0-26.613-15.021-44.492-37.376-44.492zm.482 73.818c-3.147.055-9.023.098-13.811.125-.029-8.725-.071-22.783-.071-29.535 0-5.666-.023-20.359-.039-29.409h13.438c16.498 0 22.376 15.234 22.376 29.491.001 13.942-6.851 29.066-21.893 29.328zM410.282 364.265H368.18c-4.143 0-7.5 3.358-7.5 7.5s3.357 7.5 7.5 7.5h13.466v68.736c0 4.142 3.357 7.5 7.5 7.5s7.5-3.358 7.5-7.5v-68.736h13.636c4.143 0 7.5-3.358 7.5-7.5s-3.357-7.5-7.5-7.5zM158.627 364.265c-25.154 0-45.618 20.464-45.618 45.618s20.464 45.618 45.618 45.618c25.153 0 45.617-20.464 45.617-45.618s-20.464-45.618-45.617-45.618zm0 76.236c-16.883 0-30.618-13.735-30.618-30.618s13.735-30.618 30.618-30.618 30.617 13.735 30.617 30.618-13.734 30.618-30.617 30.618z" fill="#d88a55" opacity="1" data-original="#d88a55" class=""></path></g></g></svg>