<svg xmlns="http://www.w3.org/2000/svg" version="1.1" xmlns:xlink="http://www.w3.org/1999/xlink" width="512" height="512" x="0" y="0" viewBox="0 0 350.094 350.094" style="enable-background:new 0 0 512 512" xml:space="preserve" class=""><g><linearGradient id="c" x1="361.104" x2="-1.533" y1="175.116" y2="175.116" gradientTransform="matrix(1 0 0 -1 0 350.067)" gradientUnits="userSpaceOnUse"><stop offset="0" stop-color="#faad37"></stop><stop offset="1" stop-color="#f78b1f"></stop></linearGradient><linearGradient id="a"><stop offset="0" stop-color="#f4841a"></stop><stop offset="1" stop-color="#f26f11"></stop></linearGradient><linearGradient xlink:href="#a" id="d" x1="177.686" x2="40.532" y1="173.87" y2="223.978" gradientTransform="matrix(1 0 0 -1 0 350.067)" gradientUnits="userSpaceOnUse"></linearGradient><linearGradient xlink:href="#a" id="e" x1="3.118" x2="348.981" y1="164.675" y2="164.675" gradientTransform="matrix(1 0 0 -1 0 350.067)" gradientUnits="userSpaceOnUse"></linearGradient><clipPath id="f"><circle cx="175.058" cy="174.951" r="174.951" fill="#000000" opacity="1" data-original="#000000"></circle></clipPath><linearGradient id="b"><stop offset="0" stop-color="#f16430"></stop><stop offset="1" stop-color="#e73d14"></stop></linearGradient><linearGradient xlink:href="#b" id="g" x1="213.937" x2="37.711" y1="156.953" y2="188.378" gradientTransform="matrix(1 0 0 -1 0 350.067)" gradientUnits="userSpaceOnUse"></linearGradient><linearGradient xlink:href="#b" id="h" x1="-9.442" x2="345.424" y1="153.035" y2="153.035" gradientTransform="matrix(1 0 0 -1 0 350.067)" gradientUnits="userSpaceOnUse"></linearGradient><linearGradient id="i" x1="221.441" x2="18.885" y1="134.167" y2="112.087" gradientTransform="matrix(1 0 0 -1 0 350.067)" gradientUnits="userSpaceOnUse"><stop offset=".003" stop-color="#ce3814"></stop><stop offset=".999" stop-color="#d63914"></stop></linearGradient><linearGradient id="j" x1="-1.497" x2="345.526" y1="133.369" y2="133.369" gradientTransform="matrix(1 0 0 -1 0 350.067)" gradientUnits="userSpaceOnUse"><stop offset=".003" stop-color="#dd3814"></stop><stop offset=".999" stop-color="#d63914"></stop></linearGradient><circle cx="175.058" cy="174.951" r="174.951" fill="url(#c)" opacity="1" data-original="url(#c)"></circle><path fill="url(#a)" d="M103.365 15.308C15.227 54.902-24.125 158.45 15.469 246.587s143.141 127.49 231.279 87.895 127.49-143.141 87.895-231.279a174.95 174.95 0 0 0-85.713-86.897 339.41 339.41 0 0 0-46.391 16.292c-40.035 17.269-72.116 30.485-90.391 30.485a17.195 17.195 0 0 1-17.276-9.323 28.59 28.59 0 0 1 3.003-29.399z" opacity="1" data-original="url(#a)"></path><path fill="url(#a)" d="M349.178 157.879a173.887 173.887 0 0 0-23.502-71.963 175.88 175.88 0 0 0-67.516-64.965 322.493 322.493 0 0 0-52.93 17.852c-71.096 30.66-103.418 42.112-116.277 18.151a35.318 35.318 0 0 1 3.171-36.076C7.047 66.681-24.79 172.78 21.013 257.856s151.902 116.914 236.979 71.111c56.665-30.507 92.006-89.661 92.017-154.016 0-5.759-.277-11.45-.831-17.072z" opacity="1" data-original="url(#a)"></path><g clip-path="url(#f)"><path fill="url(#b)" d="M285.598 39.364c-25.251 11.758-55.532 33.634-105.933 76.41a197.991 197.991 0 0 1-51.953 32.687 117.647 117.647 0 0 1-44.656 9.571 68.22 68.22 0 0 1-46.581-16.146c-9.579-8.806-13.748-22.598-13.18-40.734.19-6.014.518-10.934.867-14.783-48.921 83.321-21.033 190.526 62.289 239.447S276.979 346.85 325.9 263.528c43.702-74.433 26.589-169.615-40.302-224.164z" opacity="1" data-original="url(#b)" class=""></path></g><path fill="url(#b)" d="M349.178 157.879a173.887 173.887 0 0 0-23.502-71.963 175.829 175.829 0 0 0-34.4-41.726c-26.345 11.663-58.28 35.187-107.238 76.738-65.33 55.438-124.47 51.377-152.142 25.929-12.575-11.561-16.146-28.539-15.352-46.012-40.89 87.544-3.069 191.66 84.476 232.55s191.66 3.069 232.55-84.476a174.948 174.948 0 0 0 15.608-91.04z" opacity="1" data-original="url(#b)" class=""></path><path fill="url(#i)" d="M175.058 349.902c96.623.008 174.957-78.313 174.965-174.936a174.955 174.955 0 0 0-29.632-97.433 55.453 55.453 0 0 0-10.38-.977h-1.195c-15.141.306-29.508 8.062-46.595 25.149a655.54 655.54 0 0 0-56.859 70.527 264.746 264.746 0 0 1-58.003 59.228 116.144 116.144 0 0 1-66.831 24.202 90.27 90.27 0 0 1-37.177-8.208 69.683 69.683 0 0 1-29.887-24.683 148.17 148.17 0 0 1-11.015-19.128c14.05 84.391 87.056 146.252 172.609 146.259z" opacity="1" data-original="url(#i)" class=""></path><path fill="url(#j)" d="M349.178 157.879a173.887 173.887 0 0 0-23.502-71.963 47.023 47.023 0 0 0-16.766-2.595c-27.307.547-51.866 30.259-98.111 92.928-43.854 59.476-105.853 106.326-170.256 77.365A75.963 75.963 0 0 1 7.842 226.54c28.411 92.351 126.309 144.185 218.66 115.773 73.463-22.6 123.571-90.501 123.508-167.362a174.304 174.304 0 0 0-.832-17.072z" opacity="1" data-original="url(#j)" class=""></path><g fill="#fff"><path d="M164.707 235.455c5.693 5.691 14.922 5.691 20.615 0l57.435-57.435c5.594-5.792 5.433-15.021-.358-20.615-5.65-5.457-14.607-5.457-20.257 0l-32.504 32.468V60.978c0-8.052-6.527-14.579-14.579-14.579s-14.579 6.527-14.579 14.579V189.96l-32.504-32.504c-5.792-5.594-15.021-5.433-20.615.358-5.457 5.65-5.457 14.607 0 20.257zM232.449 258.49H117.667c-8.052 0-14.579 6.527-14.579 14.579s6.527 14.579 14.579 14.579h114.782c8.052 0 14.579-6.527 14.579-14.579s-6.527-14.579-14.579-14.579z" fill="#ffffff" opacity="1" data-original="#ffffff" class=""></path></g></g></svg>