<svg xmlns="http://www.w3.org/2000/svg" version="1.1" xmlns:xlink="http://www.w3.org/1999/xlink" width="512" height="512" x="0" y="0" viewBox="0 0 512 512" style="enable-background:new 0 0 512 512" xml:space="preserve" class=""><g><path fill="#d9e7ec" d="M204.429.003H45.05c-9.771 0-17.692 7.921-17.692 17.692v167.227c0 9.771 7.921 17.692 17.692 17.692h159.379c9.771 0 17.692-7.921 17.692-17.692V17.696c0-9.772-7.921-17.693-17.692-17.693z" opacity="1" data-original="#d9e7ec"></path><path fill="#eef5f6" d="M237.215 34.576H77.835c-9.771 0-17.692 7.921-17.692 17.692v92.112c0 9.771 7.921 17.692 17.692 17.692h159.379c9.771 0 17.692-7.921 17.692-17.692V52.268c.001-9.771-7.92-17.692-17.691-17.692z" opacity="1" data-original="#eef5f6"></path><path fill="#fe646f" d="M7.725 159.385v118.309c0 19.409 15.734 35.144 35.144 35.144H247.17c19.409 0 35.144-15.734 35.144-35.144V109.843c0-19.409-15.734-35.144-35.144-35.144h-45.608a35.145 35.145 0 0 0-32.094 20.824l-3.522 7.894a35.144 35.144 0 0 1-32.094 20.824H42.868c-19.409.001-35.143 15.735-35.143 35.144z" opacity="1" data-original="#fe646f" class=""></path><path fill="#fd4755" d="M282.313 109.843v167.848c0 19.409-15.731 35.14-35.14 35.14h-30.257c19.409 0 35.15-15.731 35.15-35.14V109.843c0-19.409-15.741-35.15-35.15-35.15h30.257c19.409 0 35.14 15.742 35.14 35.15z" opacity="1" data-original="#fd4755" class=""></path><g fill="#ffe177"><path d="M157.525 178.577H60.141a7.726 7.726 0 1 1 0-15.452h97.384a7.726 7.726 0 1 1 0 15.452zM124.739 210.522H60.141a7.726 7.726 0 1 1 0-15.452h64.598a7.726 7.726 0 1 1 0 15.452z" fill="#ffe177" opacity="1" data-original="#ffe177"></path></g><path fill="#d9e7ec" d="M426.391 199.165H267.012c-9.771 0-17.692 7.921-17.692 17.692v167.227c0 9.771 7.921 17.692 17.692 17.692h159.379c9.771 0 17.692-7.921 17.692-17.692V216.858c.001-9.772-7.92-17.693-17.692-17.693z" opacity="1" data-original="#d9e7ec"></path><path fill="#eef5f6" d="M459.177 233.738H299.798c-9.771 0-17.692 7.921-17.692 17.692v92.112c0 9.771 7.921 17.692 17.692 17.692h159.379c9.771 0 17.692-7.921 17.692-17.692V251.43c0-9.771-7.921-17.692-17.692-17.692z" opacity="1" data-original="#eef5f6"></path><path fill="#fe646f" d="M229.687 358.547v118.309c0 19.409 15.734 35.144 35.144 35.144h204.301c19.409 0 35.144-15.734 35.144-35.144v-167.85c0-19.409-15.734-35.144-35.144-35.144h-45.608a35.145 35.145 0 0 0-32.094 20.824l-3.522 7.894a35.144 35.144 0 0 1-32.094 20.824h-90.982c-19.41 0-35.145 15.734-35.145 35.143z" opacity="1" data-original="#fe646f" class=""></path><path fill="#fd4755" d="M504.275 309.006v167.848c0 19.409-15.731 35.14-35.14 35.14h-30.257c19.409 0 35.15-15.731 35.15-35.14V309.006c0-19.409-15.741-35.15-35.15-35.15h30.257c19.409-.001 35.14 15.741 35.14 35.15z" opacity="1" data-original="#fd4755" class=""></path><g fill="#ffe177"><path d="M379.488 377.739h-97.384a7.726 7.726 0 1 1 0-15.452h97.384a7.726 7.726 0 1 1 0 15.452zM346.701 409.684h-64.598a7.726 7.726 0 1 1 0-15.452h64.598a7.726 7.726 0 1 1 0 15.452z" fill="#ffe177" opacity="1" data-original="#ffe177"></path></g><path fill="#60b7ff" d="m177.965 453.411-50.39 4.917c-9.054.883-15.669-8.366-11.907-16.648l3.127-6.883c-19.077-20.22-29.869-47.142-29.869-75.12 0-9.753 7.907-17.66 17.66-17.66s17.66 7.907 17.66 17.66c0 13.822 3.912 27.253 11.034 38.831l1.331-2.93c3.762-8.283 15.08-9.386 20.372-1.986l29.448 41.186c5.29 7.398.587 17.75-8.466 18.633z" opacity="1" data-original="#60b7ff"></path><circle cx="395.367" cy="83.157" r="83.153" fill="#7a8c98" opacity="1" data-original="#7a8c98"></circle><path fill="#596c76" d="M478.52 83.157c0 45.926-37.221 83.146-83.146 83.146a83.061 83.061 0 0 1-24.93-3.801c33.739-10.59 58.216-42.104 58.216-79.345s-24.477-68.765-58.216-79.355A83.03 83.03 0 0 1 395.374 0C441.3 0 478.52 37.231 478.52 83.157z" opacity="1" data-original="#596c76"></path><path fill="#eef5f6" d="M448.8 83.16c0 24.014-15.844 44.319-37.653 51.056a53.262 53.262 0 0 1-15.782 2.369c-29.505 0-53.426-23.921-53.426-53.425 0-29.515 23.921-53.436 53.426-53.436 5.491 0 10.796.834 15.782 2.369C432.955 38.831 448.8 59.146 448.8 83.16z" opacity="1" data-original="#eef5f6"></path><path fill="#d9e7ec" d="M448.8 83.16c0 24.014-15.844 44.319-37.653 51.056 10.971-14.083 17.513-31.802 17.513-51.056s-6.542-36.973-17.513-51.066C432.955 38.831 448.8 59.146 448.8 83.16z" opacity="1" data-original="#d9e7ec"></path><path fill="#596c76" d="M418.325 90.883h-22.958a7.726 7.726 0 0 1-7.726-7.726V48.749a7.726 7.726 0 1 1 15.452 0V75.43h15.231c4.267 0 7.726 3.459 7.726 7.726s-3.458 7.727-7.725 7.727z" opacity="1" data-original="#596c76"></path></g></svg>