<svg xmlns="http://www.w3.org/2000/svg" version="1.1" xmlns:xlink="http://www.w3.org/1999/xlink" width="512" height="512" x="0" y="0" viewBox="0 0 482 482.865" style="enable-background:new 0 0 512 512" xml:space="preserve" class=""><g><path fill="#d4e1f4" d="M45.34 12h-20c-7.125.008-12.899 5.785-12.906 12.91v15.004h20V24.91c.007-7.125 5.78-12.902 12.906-12.91zM192.82 145.531a6 6 0 0 0-5.875 4.774 10.193 10.193 0 0 0 6.692 2.238c3.375 0 4.761-.934 7.058-2.48.864-.583 1.828-1.231 2.946-1.848a21.372 21.372 0 0 0-10.82-2.684zM12.434 51.914h20V316.81h-20zM32.434 365.242V328.81h-20v36.433c.007 7.13 5.78 12.903 12.906 12.91h20c-7.125-.007-12.899-5.78-12.906-12.91zm0 0" opacity="1" data-original="#d4e1f4" class=""></path><path fill="#0635c9" d="M197.61 0H25.34C11.59.016.45 11.16.434 24.91v340.332c.015 13.75 11.156 24.895 24.906 24.91h147.48a6.001 6.001 0 0 0 0-12H25.34c-7.125-.007-12.899-5.78-12.906-12.91V328.81H172.82v-12H12.434V51.914h198.082v99.715c0 3.316 2.687 6 6 6 3.316 0 6-2.684 6-6V24.91C222.5 11.16 211.359.016 197.609 0zM12.433 39.914V24.91c.007-7.125 5.78-12.902 12.906-12.91h172.27c7.124.008 12.898 5.785 12.906 12.91v15.004zm0 0" opacity="1" data-original="#0635c9" class=""></path><path fill="#0635c9" d="M92.043 347.48c-3.316 0-6 2.688-6 6s2.684 6 6 6h38.863c3.317 0 6-2.687 6-6s-2.683-6-6-6zm0 0" opacity="1" data-original="#0635c9" class=""></path><g fill="#1ae5be"><path d="M456.434 470.793h-1.317c-6.699-.684-11.8-6.32-11.808-13.059v-77.382c-.028-22.672-18.399-41.043-41.07-41.07h-56.837v-187.75c0-3.317-2.687-6-6-6a22.295 22.295 0 0 0-13.765 4.53c-2.301 1.547-3.688 2.481-7.063 2.481-3.37 0-4.761-.934-7.058-2.48a23.171 23.171 0 0 0-27.532 0c-2.3 1.546-3.687 2.48-7.058 2.48-3.375 0-4.762-.934-7.059-2.48a23.165 23.165 0 0 0-27.527 0c-2.3 1.546-3.684 2.48-7.059 2.48s-4.761-.934-7.058-2.48a23.165 23.165 0 0 0-27.528 0c-2.297 1.546-3.683 2.48-7.058 2.48-3.371 0-4.758-.934-7.055-2.48a22.267 22.267 0 0 0-13.762-4.532c-3.316 0-6 2.684-6 6V391.97c.024 21.097 17.121 38.195 38.22 38.222 1.105 0 2.198-.058 3.276-.152h84.754v11.691c.028 22.672 18.399 41.043 41.07 41.07h120.47a25.55 25.55 0 0 0 1.824.063c3.332 0 6.03-2.699 6.03-6.031s-2.698-6.031-6.03-6.031zM178.82 391.969v-232.66c.336.218.684.453 1.055.699a23.165 23.165 0 0 0 27.527 0c2.301-1.547 3.684-2.48 7.055-2.48 3.371 0 4.762.933 7.059 2.484a23.177 23.177 0 0 0 27.527 0c2.3-1.551 3.687-2.485 7.059-2.485 3.375 0 4.761.934 7.058 2.485a23.183 23.183 0 0 0 27.531 0c2.301-1.551 3.684-2.485 7.059-2.485 3.371 0 4.762.934 7.059 2.485a23.183 23.183 0 0 0 27.53 0c.376-.254.727-.489 1.063-.703V339.28h-64.14c-.106 0-.211 0-.317.008-.257-.004-.52-.008-.78-.008-20.372.024-36.884 16.535-36.907 36.906v15.782a26.219 26.219 0 1 1-52.438 0zm54.13 26.07a38.063 38.063 0 0 0 10.308-26.07v-15.781c.086-13.696 11.215-24.75 24.906-24.75 13.695 0 24.82 11.054 24.906 24.75v41.851zm101.19 52.754c-16.046-.016-29.05-13.02-29.07-29.066v-65.54a36.766 36.766 0 0 0-9.695-24.906h106.863c16.047.016 29.055 13.024 29.07 29.07v77.383a24.96 24.96 0 0 0 3.669 13.059zm0 0" fill="#1ae5be" opacity="1" data-original="#1ae5be"></path><path d="M225.543 222.918c0 3.312 2.684 6 6 6h78.73c3.313 0 6-2.688 6-6s-2.687-6-6-6h-78.73c-3.316 0-6 2.687-6 6zM201.95 228.918h12.753c3.313 0 6-2.688 6-6s-2.687-6-6-6H201.95a6.001 6.001 0 0 0 0 12zM310.273 250.473h-78.73c-3.316 0-6 2.683-6 6 0 3.312 2.684 6 6 6h78.73c3.313 0 6-2.688 6-6 0-3.317-2.687-6-6-6zM201.95 262.473h12.753c3.313 0 6-2.688 6-6 0-3.317-2.687-6-6-6H201.95c-3.312 0-6 2.683-6 6 0 3.312 2.688 6 6 6zM310.273 284.023h-78.73c-3.316 0-6 2.688-6 6s2.684 6 6 6h78.73a6.001 6.001 0 0 0 0-12zM220.703 290.023c0-3.312-2.687-6-6-6H201.95c-3.312 0-6 2.688-6 6s2.688 6 6 6h12.754c3.313 0 6-2.687 6-6zM201.95 195.367h56.331c3.317 0 6-2.687 6-6 0-3.316-2.683-6-6-6H201.95c-3.312 0-6 2.684-6 6 0 3.313 2.688 6 6 6zM341.738 387.57c4.168.004 7.543 3.383 7.551 7.551 0 3.313 2.684 6 6 6 3.313 0 6-2.687 6-6a19.585 19.585 0 0 0-13.55-18.601v-2.399c0-3.316-2.688-6-6-6-3.317 0-6 2.684-6 6v2.399c-9.165 2.949-14.813 12.132-13.317 21.64 1.492 9.512 9.691 16.516 19.316 16.512a7.548 7.548 0 0 1 7.598 7.5 7.548 7.548 0 0 1-7.5 7.598h-.199a7.552 7.552 0 0 1-7.453-7.543c0-3.317-2.688-6-6-6-3.317 0-6 2.683-6 6a19.572 19.572 0 0 0 13.55 18.597v3.016c0 3.312 2.688 6 6 6s6-2.688 6-6v-3.016c9.16-2.949 14.809-12.133 13.317-21.64-1.496-9.508-9.692-16.512-19.317-16.512a7.54 7.54 0 0 1-6.64-3.738 7.537 7.537 0 0 1 0-7.621 7.54 7.54 0 0 1 6.64-3.739zM405.234 430.09H382.79c-3.312 0-6 2.687-6 6 0 3.316 2.688 6 6 6h22.445c3.313 0 6-2.684 6-6 0-3.313-2.687-6-6-6zM405.234 402.98H382.79c-3.312 0-6 2.688-6 6s2.688 6 6 6h22.445a6.001 6.001 0 0 0 0-12zM405.234 375.867H382.79c-3.312 0-6 2.688-6 6 0 3.317 2.688 6 6 6h22.445c3.313 0 6-2.683 6-6 0-3.312-2.687-6-6-6zm0 0" fill="#1ae5be" opacity="1" data-original="#1ae5be"></path></g></g></svg>