<svg xmlns="http://www.w3.org/2000/svg" version="1.1" xmlns:xlink="http://www.w3.org/1999/xlink" width="512" height="512" x="0" y="0" viewBox="0 0 504.123 504.123" style="enable-background:new 0 0 512 512" xml:space="preserve" class=""><g><path d="M436.506 292.049c0 117.122-82.578 212.074-184.45 212.074-101.864 0-184.442-94.948-184.442-212.074C67.614 174.935 150.191 0 252.056 0c101.872 0 184.45 174.935 184.45 292.049z" style="" fill="#dda680" data-original="#dda680" class=""></path><path d="M435.962 275.192C428.707 158.893 349.143 0 252.056 0c-68.171 8.097-127.295 187.676-127.295 304.794 0 102.172 19.369 177.758 91.939 195.391 11.445 2.556 23.261 3.938 35.359 3.938 101.872 0 184.45-94.948 184.45-212.074a274.351 274.351 0 0 0-.547-16.857z" style="" fill="#d68c70" data-original="#d68c70" class=""></path><path d="M435.962 275.192C428.707 158.893 349.143 0 252.056 0c97.087 0 140.438 159.827 147.696 276.126.358 5.754.54 11.386.54 16.857 0 117.122-46.36 211.137-148.236 211.137 101.872 0 184.45-94.948 184.45-212.074 0-5.468-.186-11.1-.544-16.854z" style="" fill="#cc826e" data-original="#cc826e"></path><path d="M108.574 307.606c.098 29.578 3.143 54.993-7.302 55.036-10.453.035-19.003-23.914-19.102-53.496-.095-29.57 8.298-53.579 18.747-53.599 10.457-.031 7.566 22.489 7.657 52.059zM115.19 198.959c-3.907 17.294-5.534 32.555-11.646 31.173-6.112-1.382-7.897-16.518-3.986-33.812 3.907-17.298 12.032-30.2 18.137-28.806 6.113 1.383 1.402 14.151-2.505 31.445z" style="" fill="#edbb98" data-original="#edbb98"></path></g></svg>