<svg xmlns="http://www.w3.org/2000/svg" version="1.1" xmlns:xlink="http://www.w3.org/1999/xlink" width="512" height="512" x="0" y="0" viewBox="0 0 64 64" style="enable-background:new 0 0 512 512" xml:space="preserve" class=""><g><g data-name="Layer 20"><path fill="#f5b95b" d="M36 2c-7.709 0-14.528 8.634-18.7 19.124L22 27h7l10 12-11-4-10 2-4.267-3.2A49.556 49.556 0 0 0 13 42c0 16.569 10.3 20 23 20s23-3.431 23-20S48.7 2 36 2z" opacity="1" data-original="#f5b95b" class=""></path><g fill="#f9d18f"><path d="M36 2c-7.709 0-14.528 8.634-18.7 19.124L22 27h7l10 12-11-4-10 2-4.267-3.2A49.556 49.556 0 0 0 13 42c0 4.882.9 8.616 2.486 11.465A24.445 24.445 0 0 0 24 55c15.464 0 28-14.551 28-32.5a37.341 37.341 0 0 0-1.147-9.2C46.846 6.664 41.664 2 36 2zM6 20l5-2 2 4zM5 31l5 2 2-4z" fill="#f9d18f" opacity="1" data-original="#f9d18f" class=""></path></g><path d="m5.726 20.961 7 2A.986.986 0 0 0 13 23a1 1 0 0 0 .895-1.447l-2-4a1 1 0 0 0-1.266-.482l-5 2a1 1 0 0 0 .1 1.89zm4.791-1.691.572 1.144-2-.572zM12.77 28.361a1 1 0 0 0-1.044-.322l-7 2a1 1 0 0 0-.1 1.89l5 2A.986.986 0 0 0 10 34a1 1 0 0 0 .895-.553l2-4a1 1 0 0 0-.125-1.086zM9.517 31.73l-1.43-.572 2-.572zM8 37h2v2H8zM5 24h2v2H5zM15 27h2v2h-2z" fill="#000000" opacity="1" data-original="#000000" class=""></path><path d="M36 1c-7.37 0-14.709 7.385-19.63 19.754a1 1 0 0 0 .148.995l4.7 5.876A1 1 0 0 0 22 28h6.531l7.329 8.794-7.518-2.733a.994.994 0 0 0-.538-.041l-9.562 1.912L14.332 33a1 1 0 0 0-1.586.633A50.527 50.527 0 0 0 12 42c0 18.613 12.826 21 24 21s24-2.387 24-21C60 25.872 49.694 1 36 1zm14.707 25.293L46.414 22H53.9a61.432 61.432 0 0 1 3.934 16.417L51 31.586V27a1 1 0 0 0-.293-.707zM22.48 26l-4.035-5.044C22.982 9.864 29.679 3 36 3c6.894 0 13.048 7.607 17.083 17H44a1 1 0 0 0-.707.293L37.586 26zM36 61c-10.879 0-22-2.258-22-19a46.531 46.531 0 0 1 .467-6.4l2.933 2.2a1 1 0 0 0 .8.18l9.726-1.945 10.736 3.9a1 1 0 0 0 1.111-1.58L31.135 28H38a1 1 0 0 0 .707-.293L44 22.414l5 5V32a1 1 0 0 0 .293.707l8.7 8.7c0 .2.012.4.012.6C58 51.4 55.386 61 36 61z" fill="#000000" opacity="1" data-original="#000000" class=""></path></g></g></svg>