<svg xmlns="http://www.w3.org/2000/svg" version="1.1" xmlns:xlink="http://www.w3.org/1999/xlink" width="512" height="512" x="0" y="0" viewBox="0 0 682.667 682.667" style="enable-background:new 0 0 512 512" xml:space="preserve" class=""><g><defs><clipPath id="a" clipPathUnits="userSpaceOnUse"><path d="M0 512h512V0H0Z" fill="#000000" opacity="1" data-original="#000000"></path></clipPath></defs><g clip-path="url(#a)" transform="matrix(1.33333 0 0 -1.33333 0 682.667)"><path d="M0 0c0-47.201-28.759-74.848-64.234-74.848-35.476 0-64.235 27.647-64.235 74.848s28.759 95.448 64.235 95.448C-28.759 95.448 0 47.201 0 0" style="fill-opacity:1;fill-rule:nonzero;stroke:none" transform="translate(235.626 399.517)" fill="#ffdeb0" data-original="#ffdeb0" class=""></path><path d="M0 0c-6.984 0-13.705-1.877-20-5.24C5.682-18.962 24.234-57.539 24.234-95.448c0-37.906-18.555-63.186-44.234-71.677 6.296-2.083 13.015-3.171 20-3.171 35.476 0 64.234 27.647 64.234 74.848S35.476 0 0 0" style="fill-opacity:1;fill-rule:nonzero;stroke:none" transform="translate(171.392 494.965)" fill="#fcd59f" data-original="#fcd59f"></path><path d="M0 0c0-47.201-28.759-74.848-64.234-74.848-35.476 0-64.235 27.647-64.235 74.848s28.759 95.448 64.235 95.448C-28.759 95.448 0 47.201 0 0" style="fill-opacity:1;fill-rule:nonzero;stroke:none" transform="translate(364.095 399.517)" fill="#fff1ec" data-original="#fff1ec" class=""></path><path d="M0 0c-6.983 0-13.705-1.877-20-5.24C5.682-18.962 24.234-57.539 24.234-95.448c0-37.906-18.554-63.186-44.234-71.677 6.296-2.083 13.015-3.171 20-3.171 35.476 0 64.234 27.647 64.234 74.848S35.476 0 0 0" style="fill-opacity:1;fill-rule:nonzero;stroke:none" transform="translate(299.86 494.965)" fill="#fce2c5" data-original="#fce2c5"></path><path d="M0 0c0-47.201-28.759-74.848-64.234-74.848-35.476 0-64.235 27.647-64.235 74.848s28.759 95.447 64.235 95.447C-28.759 95.447 0 47.201 0 0" style="fill-opacity:1;fill-rule:nonzero;stroke:none" transform="translate(171.392 319.36)" fill="#fff1ec" data-original="#fff1ec" class=""></path><path d="M0 0c-6.984 0-13.705-1.877-20-5.24C5.682-18.962 24.234-57.539 24.234-95.448c0-37.906-18.555-63.186-44.234-71.677 6.296-2.083 13.014-3.171 20-3.171 35.476 0 64.234 27.647 64.234 74.848S35.476 0 0 0" style="fill-opacity:1;fill-rule:nonzero;stroke:none" transform="translate(107.158 414.809)" fill="#fce2c5" data-original="#fce2c5"></path><path d="M0 0c0-47.201-28.759-74.848-64.234-74.848-35.476 0-64.235 27.647-64.235 74.848s28.759 95.447 64.235 95.447C-28.759 95.447 0 47.201 0 0" style="fill-opacity:1;fill-rule:nonzero;stroke:none" transform="translate(299.86 319.36)" fill="#fcd59f" data-original="#fcd59f"></path><path d="M0 0c-6.984 0-13.705-1.877-20-5.24C5.682-18.962 24.234-57.539 24.234-95.448c0-37.906-18.554-63.186-44.234-71.677 6.296-2.083 13.015-3.171 20-3.171 35.476 0 64.234 27.647 64.234 74.848S35.476 0 0 0" style="fill-opacity:1;fill-rule:nonzero;stroke:none" transform="translate(235.626 414.809)" fill="#f7c783" data-original="#f7c783"></path><path d="M0 0c0-47.201-28.759-74.848-64.234-74.848-35.476 0-64.235 27.647-64.235 74.848s28.759 95.447 64.235 95.447C-28.759 95.447 0 47.201 0 0" style="fill-opacity:1;fill-rule:nonzero;stroke:none" transform="translate(428.33 319.36)" fill="#ffdeb0" data-original="#ffdeb0" class=""></path><path d="M0 0c-6.983 0-13.705-1.877-20-5.24C5.682-18.962 24.234-57.539 24.234-95.448c0-37.906-18.554-63.186-44.234-71.677 6.296-2.083 13.015-3.171 20-3.171 35.476 0 64.234 27.647 64.234 74.848S35.476 0 0 0" style="fill-opacity:1;fill-rule:nonzero;stroke:none" transform="translate(364.095 414.809)" fill="#fcd59f" data-original="#fcd59f"></path><path d="M0 0h-277.414c-36.414 0-65.932 29.519-65.932 65.932v83.756H65.932V65.932C65.932 29.519 36.413 0 0 0" style="fill-opacity:1;fill-rule:nonzero;stroke:none" transform="translate(374.334 118.599)" fill="#e8b266" data-original="#e8b266"></path><path d="M0 0v-83.756c0-36.414-29.519-65.932-65.932-65.932h40C10.481-149.688 40-120.17 40-83.756V0Z" style="fill-opacity:1;fill-rule:nonzero;stroke:none" transform="translate(400.266 268.287)" fill="#d9a359" data-original="#d9a359"></path><path d="M0 0h-420.115c-9.057 0-16.4 7.342-16.4 16.399v.003c0 9.057 7.343 16.399 16.4 16.399H0c9.057 0 16.4-7.342 16.4-16.399v-.003C16.4 7.342 9.057 0 0 0" style="fill-opacity:1;fill-rule:nonzero;stroke:none" transform="translate(445.684 268.287)" fill="#8f5a46" data-original="#8f5a46"></path><path d="M0 0c0-47.201-28.759-74.848-64.234-74.848-35.476 0-64.235 27.647-64.235 74.848s28.759 95.448 64.235 95.448C-28.759 95.448 0 47.201 0 0" style="fill-opacity:1;fill-rule:nonzero;stroke:none" transform="translate(504.5 127.777)" fill="#fff1ec" data-original="#fff1ec" class=""></path><path d="M0 0c-6.984 0-13.705-1.876-20-5.24C5.682-18.962 24.234-57.539 24.234-95.448c0-37.906-18.554-63.186-44.234-71.677 6.296-2.083 13.015-3.171 20-3.171 35.476 0 64.234 27.648 64.234 74.848C64.234-48.247 35.476 0 0 0" style="fill-opacity:1;fill-rule:nonzero;stroke:none" transform="translate(440.266 223.225)" fill="#fce2c5" data-original="#fce2c5"></path><path d="M0 0c47.203 0 74.852-28.757 74.852-64.231 0-35.474-27.649-64.231-74.852-64.231s-95.453 28.757-95.453 64.231C-95.453-28.757-47.203 0 0 0" style="fill-opacity:1;fill-rule:nonzero;stroke:none" transform="translate(330.214 145.498)" fill="#ffdeb0" data-original="#ffdeb0" class=""></path><path d="M0 0c-6.908 0-13.837-.62-20.636-1.783C14.666-8.546 34.852-33.93 34.852-64.231c0-30.301-20.186-55.685-55.488-62.448 6.799-1.163 13.728-1.783 20.636-1.783 47.203 0 74.852 28.757 74.852 64.231C74.852-28.757 47.203 0 0 0" style="fill-opacity:1;fill-rule:nonzero;stroke:none" transform="translate(330.214 145.498)" fill="#fcd59f" data-original="#fcd59f"></path><path d="M0 0a7.5 7.5 0 0 1-10.604-.223 7.5 7.5 0 0 1 .222-10.604C-5.085-15.906.008-24.149 3.59-33.441a7.504 7.504 0 0 1 7-4.805 7.5 7.5 0 0 1 6.996 10.2C13.176-16.605 6.93-6.646 0 0" style="fill-opacity:1;fill-rule:nonzero;stroke:none" transform="translate(317.215 464.063)" fill="#f0d4b4" data-original="#f0d4b4"></path><path d="M0 0h243.141" style="stroke-width:15;stroke-linecap:round;stroke-linejoin:round;stroke-miterlimit:10;stroke-dasharray:none;stroke-opacity:1" transform="translate(7.5 118.124)" fill="none" stroke="#060606" stroke-width="15" stroke-linecap="round" stroke-linejoin="round" stroke-miterlimit="10" stroke-dasharray="none" stroke-opacity="" data-original="#060606" class=""></path><path d="M0 0c13.08 11.262 30.359 15.96 46.665 8.968C64.2 1.449 76.329-15.652 83.847-32.564c4.976-11.193 8.255-23.15 9.792-35.298" style="stroke-width:15;stroke-linecap:round;stroke-linejoin:round;stroke-miterlimit:10;stroke-dasharray:none;stroke-opacity:1" transform="translate(141.022 482.548)" fill="none" stroke="#060606" stroke-width="15" stroke-linecap="round" stroke-linejoin="round" stroke-miterlimit="10" stroke-dasharray="none" stroke-opacity="" data-original="#060606" class=""></path><path d="M0 0a127.185 127.185 0 0 0 6.91 26.845" style="stroke-width:15;stroke-linecap:round;stroke-linejoin:round;stroke-miterlimit:10;stroke-dasharray:none;stroke-opacity:1" transform="translate(108.414 416.832)" fill="none" stroke="#060606" stroke-width="15" stroke-linecap="round" stroke-linejoin="round" stroke-miterlimit="10" stroke-dasharray="none" stroke-opacity="" data-original="#060606" class=""></path><path d="M0 0c5.61 41.389 31.737 79.146 63.12 79.146 31.638 0 57.934-38.374 63.253-80.156" style="stroke-width:15;stroke-linecap:round;stroke-linejoin:round;stroke-miterlimit:10;stroke-dasharray:none;stroke-opacity:1" transform="translate(236.74 415.819)" fill="none" stroke="#060606" stroke-width="15" stroke-linecap="round" stroke-linejoin="round" stroke-miterlimit="10" stroke-dasharray="none" stroke-opacity="" data-original="#060606" class=""></path><path d="M0 0c5.803-5.564 11.584-14.448 15.779-25.33" style="stroke-width:15;stroke-linecap:round;stroke-linejoin:round;stroke-miterlimit:10;stroke-dasharray:none;stroke-opacity:1" transform="translate(312.024 458.65)" fill="none" stroke="#060606" stroke-width="15" stroke-linecap="round" stroke-linejoin="round" stroke-miterlimit="10" stroke-dasharray="none" stroke-opacity="" data-original="#060606" class=""></path><path d="M0 0c-1.022 5.71-1.562 11.808-1.562 18.273 0 47.201 28.759 95.447 64.235 95.447 35.475 0 64.234-48.246 64.234-95.447 0-6.465-.539-12.563-1.562-18.273" style="stroke-width:15;stroke-linecap:round;stroke-linejoin:round;stroke-miterlimit:10;stroke-dasharray:none;stroke-opacity:1" transform="translate(44.485 301.088)" fill="none" stroke="#060606" stroke-width="15" stroke-linecap="round" stroke-linejoin="round" stroke-miterlimit="10" stroke-dasharray="none" stroke-opacity="" data-original="#060606" class=""></path><path d="M0 0c-1.022 5.71-1.562 11.808-1.562 18.272 0 47.201 28.759 95.448 64.235 95.448 35.475 0 64.234-48.247 64.234-95.448 0-6.464-.539-12.562-1.561-18.272" style="stroke-width:15;stroke-linecap:round;stroke-linejoin:round;stroke-miterlimit:10;stroke-dasharray:none;stroke-opacity:1" transform="translate(172.954 301.088)" fill="none" stroke="#060606" stroke-width="15" stroke-linecap="round" stroke-linejoin="round" stroke-miterlimit="10" stroke-dasharray="none" stroke-opacity="" data-original="#060606" class=""></path><path d="M0 0c-1.022 5.71-1.562 11.808-1.562 18.273 0 47.201 28.759 95.447 64.234 95.447 35.476 0 64.235-48.246 64.235-95.447 0-6.465-.539-12.563-1.562-18.273" style="stroke-width:15;stroke-linecap:round;stroke-linejoin:round;stroke-miterlimit:10;stroke-dasharray:none;stroke-opacity:1" transform="translate(301.423 301.088)" fill="none" stroke="#060606" stroke-width="15" stroke-linecap="round" stroke-linejoin="round" stroke-miterlimit="10" stroke-dasharray="none" stroke-opacity="" data-original="#060606" class=""></path><path d="M0 0h-155.459c-36.414 0-65.932 29.519-65.932 65.932v83.756h409.278v-44.062" style="stroke-width:15;stroke-linecap:round;stroke-linejoin:round;stroke-miterlimit:10;stroke-dasharray:none;stroke-opacity:1" transform="translate(252.378 118.599)" fill="none" stroke="#060606" stroke-width="15" stroke-linecap="round" stroke-linejoin="round" stroke-miterlimit="10" stroke-dasharray="none" stroke-opacity="" data-original="#060606" class=""></path><path d="M0 0h-420.115c-9.057 0-16.4 7.342-16.4 16.399v.003c0 9.057 7.343 16.399 16.4 16.399H0c9.057 0 16.4-7.342 16.4-16.399v-.003C16.4 7.342 9.057 0 0 0Z" style="stroke-width:15;stroke-linecap:round;stroke-linejoin:round;stroke-miterlimit:10;stroke-dasharray:none;stroke-opacity:1" transform="translate(445.684 268.287)" fill="none" stroke="#060606" stroke-width="15" stroke-linecap="round" stroke-linejoin="round" stroke-miterlimit="10" stroke-dasharray="none" stroke-opacity="" data-original="#060606" class=""></path><path d="M0 0c-8.267-3.995-17.495-6.077-27.229-6.077-12.996 0-25.091 3.711-35.201 10.734" style="stroke-width:15;stroke-linecap:round;stroke-linejoin:round;stroke-miterlimit:10;stroke-dasharray:none;stroke-opacity:1" transform="translate(467.494 59.005)" fill="none" stroke="#060606" stroke-width="15" stroke-linecap="round" stroke-linejoin="round" stroke-miterlimit="10" stroke-dasharray="none" stroke-opacity="" data-original="#060606" class=""></path><path d="M0 0c3.473 43.995 30.74 86.05 63.861 86.05 35.475 0 64.234-48.247 64.234-95.447 0-11.971-1.849-22.683-5.189-32.006" style="stroke-width:15;stroke-linecap:round;stroke-linejoin:round;stroke-miterlimit:10;stroke-dasharray:none;stroke-opacity:1" transform="translate(376.405 137.174)" fill="none" stroke="#060606" stroke-width="15" stroke-linecap="round" stroke-linejoin="round" stroke-miterlimit="10" stroke-dasharray="none" stroke-opacity="" data-original="#060606" class=""></path><path d="M0 0c47.203 0 74.852-28.757 74.852-64.231 0-35.474-27.649-64.231-74.852-64.231s-95.453 28.757-95.453 64.231C-95.453-28.757-47.203 0 0 0Z" style="stroke-width:15;stroke-linecap:round;stroke-linejoin:round;stroke-miterlimit:10;stroke-dasharray:none;stroke-opacity:1" transform="translate(330.214 145.498)" fill="none" stroke="#060606" stroke-width="15" stroke-linecap="round" stroke-linejoin="round" stroke-miterlimit="10" stroke-dasharray="none" stroke-opacity="" data-original="#060606" class=""></path><path d="M0 0c11.802-5.707 18.522-15.794 18.522-29.01" style="stroke-width:15;stroke-linecap:round;stroke-linejoin:round;stroke-miterlimit:10;stroke-dasharray:none;stroke-opacity:1" transform="translate(356.592 110.277)" fill="none" stroke="#060606" stroke-width="15" stroke-linecap="round" stroke-linejoin="round" stroke-miterlimit="10" stroke-dasharray="none" stroke-opacity="" data-original="#060606" class=""></path><path d="M0 0c5.803-5.564 11.583-14.448 15.779-25.33" style="stroke-width:15;stroke-linecap:round;stroke-linejoin:round;stroke-miterlimit:10;stroke-dasharray:none;stroke-opacity:1" transform="translate(247.704 378.066)" fill="none" stroke="#060606" stroke-width="15" stroke-linecap="round" stroke-linejoin="round" stroke-miterlimit="10" stroke-dasharray="none" stroke-opacity="" data-original="#060606" class=""></path></g></g></svg>