<svg xmlns="http://www.w3.org/2000/svg" version="1.1" xmlns:xlink="http://www.w3.org/1999/xlink" width="512" height="512" x="0" y="0" viewBox="0 0 464 464" style="enable-background:new 0 0 512 512" xml:space="preserve" class=""><g><path fill="#ffebd2" d="M317.5 49.72c42.25 0 76.5 72.4 76.5 114.65 0 101.28-153 101.14-153 0 0-42.25 34.25-114.65 76.5-114.65z" opacity="1" data-original="#ffebd2"></path><path fill="#fff3e4" d="M281 184.299c0 13.589 2.753 25.352 7.521 35.29 3.375 7.035-4.136 14.356-10.958 10.569C256.466 218.449 241 196.499 241 164.299c0-49.732 48.106-144.312 102.692-105.432 5.096 3.63 4.269 11.558-1.516 13.939C307.268 87.173 281 147.299 281 184.299z" opacity="1" data-original="#fff3e4"></path><path fill="#ffd9ad" d="M392.93 150.43c-40.4-27.863-77.17 16.764-93.43 62.66-9.42-26.629-29.472-61.068-56.25-69.51.439-2.244.945-4.517 1.513-6.812 1.219-4.921 6.638-7.499 11.22-5.328 17.82 8.441 29.987 23.152 40.199 38.682 1.575 2.396 5.08 2.369 6.67-.017 15.723-23.597 36.394-44.385 64.648-44.385 5.616 0 11.188.888 16.67 2.63a8.033 8.033 0 0 1 5.327 5.564c1.517 5.658 2.674 11.211 3.433 16.516z" opacity="1" data-original="#ffd9ad"></path><path fill="#ffebd2" d="M146.5 49.72c42.25 0 76.5 72.4 76.5 114.65 0 101.14-153 101.28-153 0 0-42.25 34.25-114.65 76.5-114.65z" opacity="1" data-original="#ffebd2"></path><path fill="#fff3e4" d="M110 184.299c0 13.589 2.753 25.352 7.521 35.29 3.375 7.035-4.136 14.356-10.958 10.569C85.466 218.449 70 196.499 70 164.299c0-49.732 48.106-144.312 102.692-105.432 5.096 3.63 4.269 11.558-1.516 13.939C136.268 87.173 110 147.299 110 184.299z" opacity="1" data-original="#fff3e4"></path><path fill="#ffd9ad" d="M220.7 143.29c-26.946 7.812-47.096 42.036-56.7 68.4-11.061-30.362-35.817-69.97-67.5-69.97-8.91 0-17.47 3.22-25.43 8.71.759-5.305 1.916-10.857 3.433-16.516a8.033 8.033 0 0 1 5.327-5.564c33.036-10.495 61.764 11.436 80.833 40.747 1.562 2.402 5.107 2.407 6.669.006 12.043-18.519 25.992-31.496 40.796-38.173 4.533-2.044 9.796.589 11.005 5.412.587 2.341 1.11 4.661 1.567 6.948z" opacity="1" data-original="#ffd9ad"></path><path fill="#ffebd2" d="M96.5 141.72c42.25 0 76.5 72.4 76.5 114.65 0 101.28-153 101.14-153 0 0-42.25 34.25-114.65 76.5-114.65z" opacity="1" data-original="#ffebd2"></path><path fill="#ffebd2" d="M231.5 141.72c42.25 0 76.5 72.4 76.5 114.65 0 101.14-153 101.28-153 0 0-42.25 34.25-114.65 76.5-114.65z" opacity="1" data-original="#ffebd2"></path><path fill="#fff3e4" d="M195 276.37c0 13.589 2.753 25.352 7.521 35.29 3.375 7.035-4.136 14.356-10.958 10.569C170.466 310.521 155 288.57 155 256.37c0-49.732 48.106-144.312 102.692-105.432 5.096 3.63 4.269 11.558-1.516 13.939C221.268 179.245 195 239.37 195 276.37zM60 276.37c0 13.589 2.753 25.352 7.521 35.29 3.375 7.035-4.136 14.356-10.958 10.569C35.466 310.521 20 288.57 20 256.37c0-49.732 48.106-144.312 102.692-105.432 5.096 3.63 4.269 11.558-1.516 13.939C86.268 179.245 60 239.37 60 276.37z" opacity="1" data-original="#fff3e4"></path><path fill="#ffebd2" d="M367.5 141.72c42.25 0 76.5 72.4 76.5 114.65 0 101.14-153 101.28-153 0 0-42.25 34.25-114.65 76.5-114.65z" opacity="1" data-original="#ffebd2"></path><path fill="#fff3e4" d="M331 276.37c0 13.589 2.753 25.352 7.521 35.29 3.375 7.035-4.136 14.356-10.958 10.569C306.466 310.521 291 288.57 291 256.37c0-49.732 48.106-144.312 102.692-105.432 5.096 3.63 4.269 11.558-1.516 13.939C357.268 179.245 331 239.37 331 276.37z" opacity="1" data-original="#fff3e4"></path><path fill="#c79a83" d="M448 243.28H16c-8.84 0-16 7.16-16 16v22c0 8.84 7.16 16 16 16h2.16l14.73 96.62c1.79 11.72 11.87 20.38 23.73 20.38h66.05c12.16 0 22.41-9.1 23.83-21.18l.42-3.58c1.97-16.68 26.19-16.68 28.16 0l.42 3.58c1.42 12.08 11.67 21.18 23.83 21.18h65.34c12.16 0 22.41-9.1 23.83-21.18l.42-3.58c1.97-16.68 26.19-16.68 28.16 0l.42 3.58c1.42 12.08 11.67 21.18 23.83 21.18h66.05c11.86 0 21.94-8.66 23.73-20.38l14.73-96.62H448c8.84 0 16-7.16 16-16v-22c0-8.84-7.16-16-16-16z" opacity="1" data-original="#c79a83" class=""></path><path fill="#e0b7a3" d="M75.813 402.045c3.239 5.383-.5 12.235-6.782 12.235H56.62c-11.86 0-21.94-8.66-23.73-20.38l-14.73-96.62h40l14.73 96.62a22.19 22.19 0 0 0 2.923 8.145zM448.326 258.28H46c-8.837 0-16.001 7.168-16.001 16.005v15.004c-.001 4.418-3.583 7.991-8.001 7.991H16c-8.837 0-16-7.163-16-16v-22c0-8.837 7.163-16 16-16h432c10.872 0 9.947 15 .326 15z" opacity="1" data-original="#e0b7a3"></path><path fill="#a07765" d="m445.84 297.28-1.253 8.207a8 8 0 0 1-7.908 6.793H27.321a8 8 0 0 1-7.908-6.793l-1.253-8.207z" opacity="1" data-original="#a07765"></path></g></svg>