<svg xmlns="http://www.w3.org/2000/svg" version="1.1" xmlns:xlink="http://www.w3.org/1999/xlink" width="512" height="512" x="0" y="0" viewBox="0 0 128 128" style="enable-background:new 0 0 512 512" xml:space="preserve" class=""><g><linearGradient id="a"><stop offset=".04" stop-color="#fb9e4b"></stop><stop offset=".809" stop-color="#f37e3e"></stop></linearGradient><linearGradient xlink:href="#a" id="d" x1="64" x2="64" y1="-7.667" y2="-40" gradientUnits="userSpaceOnUse"></linearGradient><linearGradient id="b"><stop offset="0" stop-color="#f1a800"></stop><stop offset=".997" stop-color="#ffb054"></stop></linearGradient><linearGradient xlink:href="#b" id="e" x1="54.833" x2="57.166" y1="-27.55" y2="-4.217" gradientUnits="userSpaceOnUse"></linearGradient><linearGradient id="c"><stop offset="0" stop-color="#e3ddcb"></stop><stop offset=".667" stop-color="#f5ebde"></stop></linearGradient><linearGradient xlink:href="#c" id="f" x1="34" x2="34" y1="67.167" y2="36.832" gradientUnits="userSpaceOnUse"></linearGradient><linearGradient xlink:href="#c" id="g" x1="64" x2="64" y1="67.167" y2="36.832" gradientUnits="userSpaceOnUse"></linearGradient><linearGradient xlink:href="#c" id="h" x1="94" x2="94" y1="67.167" y2="36.832" gradientUnits="userSpaceOnUse"></linearGradient><linearGradient xlink:href="#c" id="i" x1="19" x2="19" y1="121.625" y2="106" gradientUnits="userSpaceOnUse"></linearGradient><linearGradient xlink:href="#c" id="j" x1="49" x2="49" y1="121.625" y2="106" gradientUnits="userSpaceOnUse"></linearGradient><linearGradient xlink:href="#c" id="k" x1="79" x2="79" y1="121.625" y2="106" gradientUnits="userSpaceOnUse"></linearGradient><linearGradient xlink:href="#c" id="l" x1="109" x2="109" y1="121.625" y2="106" gradientUnits="userSpaceOnUse"></linearGradient><linearGradient xlink:href="#a" id="m" x1="63.387" x2="63.72" y1="53.905" y2="77.071" gradientUnits="userSpaceOnUse"></linearGradient><linearGradient xlink:href="#b" id="n" x1="52.712" x2="55.095" y1="-29.828" y2="-5.998" gradientUnits="userSpaceOnUse"></linearGradient><linearGradient xlink:href="#a" id="o" x1="19" x2="19" y1="-7.667" y2="-40" gradientUnits="userSpaceOnUse"></linearGradient><linearGradient xlink:href="#a" id="p" x1="49" x2="49" y1="-7.667" y2="-40" gradientUnits="userSpaceOnUse"></linearGradient><linearGradient xlink:href="#a" id="q" x1="79" x2="79" y1="-7.667" y2="-40" gradientUnits="userSpaceOnUse"></linearGradient><linearGradient xlink:href="#a" id="r" x1="109" x2="109" y1="-7.667" y2="-40" gradientUnits="userSpaceOnUse"></linearGradient><linearGradient xlink:href="#b" id="s" x1="60.888" x2="62.888" y1="60.015" y2="35.848" gradientUnits="userSpaceOnUse"></linearGradient><path fill="url(#a)" d="M126 84H2V43c0-10.493 8.507-19 19-19h86c10.493 0 19 8.507 19 19z" opacity="1" data-original="url(#a)" class=""></path><path fill="url(#b)" d="M120 84H8V45c0-8.284 6.716-15 15-15h82c8.284 0 15 6.716 15 15z" opacity="1" data-original="url(#b)"></path><path fill="url(#c)" d="M47 66c0 11.046-6.299 16-13 16s-13-4.954-13-16 6.299-21 13-21 13 9.954 13 21z" opacity="1" data-original="url(#c)"></path><path fill="url(#c)" d="M77 67c0 11.046-6.299 16-13 16s-13-4.954-13-16 6.299-21 13-21 13 9.954 13 21z" opacity="1" data-original="url(#c)"></path><path fill="url(#c)" d="M107 66c0 11.046-6.299 16-13 16s-13-4.954-13-16 6.299-21 13-21 13 9.954 13 21z" opacity="1" data-original="url(#c)"></path><path fill="url(#c)" d="M32 80c0 11.046-6.299 16-13 16S6 91.046 6 80s6.299-21 13-21 13 9.954 13 21z" opacity="1" data-original="url(#c)"></path><path fill="url(#c)" d="M62 81c0 11.046-6.299 16-13 16s-13-4.954-13-16 6.299-21 13-21 13 9.954 13 21z" opacity="1" data-original="url(#c)"></path><path fill="url(#c)" d="M92 80c0 11.046-6.299 16-13 16s-13-4.954-13-16 6.299-21 13-21 13 9.954 13 21z" opacity="1" data-original="url(#c)"></path><path fill="url(#c)" d="M122 81c0 11.046-6.299 16-13 16s-13-4.954-13-16 6.299-21 13-21 13 9.954 13 21z" opacity="1" data-original="url(#c)"></path><path fill="url(#a)" d="M13 87h102v19H13z" opacity="1" data-original="url(#a)" class=""></path><path fill="url(#b)" d="M124 87H4a2 2 0 0 1-2-2v-4h124v4a2 2 0 0 1-2 2z" opacity="1" data-original="url(#b)"></path><path fill="url(#a)" d="m4 87 4 20c.364 1.409 1.65 1.974 3 2 .329 1.129.659 2 2 2h12c1.341 0 1.671-.871 2-2 1.35-.026 2.636-.591 3-2l4-20z" opacity="1" data-original="url(#a)" class=""></path><path fill="url(#a)" d="m34 87 4 20c.364 1.409 1.65 1.974 3 2 .329 1.129.659 2 2 2h12c1.341 0 1.671-.871 2-2 1.35-.026 2.636-.591 3-2l4-20z" opacity="1" data-original="url(#a)" class=""></path><path fill="url(#a)" d="m64 87 4 20c.364 1.409 1.65 1.974 3 2 .329 1.129.659 2 2 2h12c1.341 0 1.671-.871 2-2 1.35-.026 2.636-.591 3-2l4-20z" opacity="1" data-original="url(#a)" class=""></path><path fill="url(#a)" d="m94 87 4 20c.364 1.409 1.65 1.974 3 2 .329 1.129.659 2 2 2h12c1.341 0 1.671-.871 2-2 1.35-.026 2.636-.591 3-2l4-20z" opacity="1" data-original="url(#a)" class=""></path><path fill="url(#b)" d="M33 17h62a4 4 0 0 1 4 4v3H29v-3a4 4 0 0 1 4-4z" opacity="1" data-original="url(#b)"></path><path fill="#3a322b" d="M106.993 23.011h-7v-2c0-2.757-2.243-5-5-5h-62c-2.757 0-5 2.243-5 5v2h-7c-11.028 0-20 8.972-20 20v42c0 1.358.913 2.495 2.153 2.863l3.879 19.387c.381 1.474 1.561 2.445 3.217 2.69.348.96 1.011 2.06 2.751 2.06h12c1.742 0 2.404-1.1 2.751-2.061 1.658-.245 2.839-1.223 3.229-2.743l.039-.196h5.962l.05.25c.381 1.474 1.561 2.445 3.217 2.69.348.96 1.011 2.06 2.751 2.06h12c1.742 0 2.404-1.1 2.751-2.061 1.658-.245 2.839-1.223 3.229-2.743l.039-.196h5.962l.05.25c.381 1.474 1.561 2.445 3.217 2.69.348.96 1.011 2.06 2.751 2.06h12c1.742 0 2.404-1.1 2.751-2.061 1.658-.245 2.839-1.223 3.229-2.743l.039-.196h5.962l.05.25c.381 1.474 1.561 2.445 3.217 2.69.348.96 1.011 2.06 2.751 2.06h12c1.742 0 2.404-1.1 2.751-2.061 1.658-.245 2.839-1.223 3.229-2.743l3.867-19.333a2.994 2.994 0 0 0 2.153-2.863v-42c.003-11.028-8.969-20-19.997-20zm-77-2c0-1.654 1.346-3 3-3h62c1.654 0 3 1.346 3 3v2h-68zm-9 4h86c9.925 0 18 8.075 18 18v37h-2.018a30.213 30.213 0 0 0-1.982-9.807V45.011c0-8.822-7.178-16-16-16h-82c-8.822 0-16 7.178-16 16v24.193a30.26 30.26 0 0 0-2 10.807h-2v-37c0-9.926 8.075-18 18-18zm72 55c0-9.422-4.469-18.152-10.108-21.015 1.896-7.453 6.578-12.985 11.108-12.985 4.803 0 9.579 5.919 11.321 13.883-5.537 2.652-9.997 10.965-10.303 20.117zm-60 0c0-9.422-4.469-18.152-10.108-21.015 1.896-7.453 6.578-12.985 11.108-12.985 4.803 0 9.579 5.919 11.321 13.883-5.537 2.652-9.997 10.965-10.303 20.117zm-26 0c0-10.28 5.832-20 12-20s12 9.72 12 20zm112-13.903c-2.606-4.294-6.214-7.097-10-7.097-.6 0-1.194.077-1.782.212-1.995-8.742-7.547-15.212-13.218-15.212-5.462 0-10.806 5.939-12.987 14.263a7.99 7.99 0 0 0-2.013-.263c-.766 0-1.524.121-2.269.339-2.341-7.903-7.471-13.339-12.731-13.339-5.462 0-10.806 5.939-12.987 14.263a7.99 7.99 0 0 0-2.013-.263c-.6 0-1.194.077-1.782.212-1.995-8.742-7.547-15.212-13.218-15.212-5.462 0-10.806 5.939-12.987 14.263a7.99 7.99 0 0 0-2.013-.263c-3.786 0-7.394 2.803-10 7.097V45.011c0-7.72 6.28-14 14-14h82c7.72 0 14 6.28 14 14zm-70-5.097c5.968 0 11.62 9.098 11.981 19H37.012c.361-9.902 6.014-19 11.981-19zm13.982 19c-.302-9.034-4.652-17.254-10.09-20.015 1.896-7.453 6.578-12.985 11.108-12.985 4.346 0 8.834 5.05 10.872 12.109-5.527 2.984-9.872 11.601-9.872 20.891zm4.018 0c0-10.28 5.832-20 12-20s12 9.72 12 20zm42-19c5.968 0 11.62 9.098 11.981 19H97.012c.361-9.902 6.014-19 11.981-19zm-82.019 47a1 1 0 0 0-.94.721c-.357 1.225-.522 1.279-1.04 1.279h-12c-.517 0-.682-.055-1.04-1.28a1.001 1.001 0 0 0-.94-.72c-.648-.013-1.777-.191-2.039-1.196L5.213 88.011h27.561l-3.749 18.75c-.273 1.058-1.402 1.237-2.051 1.25zm4.439-3 2.581-12.903 2.582 12.903zm25.561 3a1 1 0 0 0-.94.721c-.357 1.225-.522 1.279-1.04 1.279h-12c-.517 0-.682-.055-1.04-1.28a1.001 1.001 0 0 0-.94-.72c-.648-.013-1.777-.191-2.039-1.196l-3.761-18.804h27.561l-3.749 18.75c-.274 1.058-1.403 1.237-2.052 1.25zm4.439-3 2.581-12.903 2.582 12.903zm25.561 3a1 1 0 0 0-.94.721c-.357 1.225-.522 1.279-1.04 1.279h-12c-.517 0-.682-.055-1.04-1.28a1.001 1.001 0 0 0-.94-.72c-.648-.013-1.777-.191-2.039-1.196l-3.761-18.804h27.561l-3.749 18.75c-.274 1.058-1.403 1.237-2.052 1.25zm4.439-3 2.581-12.903 2.582 12.903zm27.611 1.75c-.272 1.059-1.401 1.237-2.051 1.25a1 1 0 0 0-.94.721c-.357 1.225-.522 1.279-1.04 1.279h-12c-.517 0-.682-.055-1.04-1.28a1.001 1.001 0 0 0-.94-.72c-.648-.013-1.777-.191-2.039-1.196l-3.761-18.804h27.561zm5.969-21.75a1 1 0 0 1-1 1h-120a1 1 0 0 1-1-1v-3h122z" opacity="1" data-original="#3a322b" class=""></path></g></svg>