<svg xmlns="http://www.w3.org/2000/svg" version="1.1" xmlns:xlink="http://www.w3.org/1999/xlink" width="512" height="512" x="0" y="0" viewBox="0 0 64 64" style="enable-background:new 0 0 512 512" xml:space="preserve" class=""><g><path fill="#f0d0b4" d="m31 22 5 3c-6.56.01-12.05.14-13 3-1.26 3.79 6 4 5 5-.7.7-4.36 2.33-6.48 4.66L15 33l2-2-2-1 5-6-4-3 9-8 1 4 2.94.42L33 18z" opacity="1" data-original="#f0d0b4" class=""></path><path fill="#ecc19c" d="m25 13-9 8 4 3-5 6 2 1-2 2 6.52 4.66c-.9.99-1.52 2.11-1.52 3.34 0 .78.09 1.43.25 1.98C10.11 42.68 2 36.08 2 28c0-8.28 8.51-15 19-15zM58.34 5.66c5.82 5.82 4.56 16.5-2.81 23.87C55.01 30.05 54 31 54 31l-.02.24C51.52 31 49.16 30.32 48 28c-1.26-2.53-4-3-11-3h-1l-5-3 2-4-4.06-.58L29 17c1.04-3.02 2.91-5.98 5.47-8.53C41.84 1.1 52.52-.16 58.34 5.66z" opacity="1" data-original="#ecc19c" class=""></path><path fill="#e6e9ed" d="M20.25 42.98c-.16-.55-.25-1.2-.25-1.98 0-1.23.62-2.35 1.52-3.34C23.64 35.33 27.3 33.7 28 33c1-1-6.26-1.21-5-5 .95-2.86 6.44-2.99 13-3h1c7 0 9.74.47 11 3 1.16 2.32 3.52 3 5.98 3.24 3.89.39 8.02-.3 8.02 2.76 0 2-4 4-4 6s4 6 4 9 0 8-13 8c-3.78 0-4 5-13 5.03-7.55.02-14-1.09-14-5.03 0-4 6-5 4-8-1.98-2.98-4.89-3.07-5.75-6.02z" opacity="1" data-original="#e6e9ed" class=""></path><path fill="#fcd770" d="M41 33.15c5.52 0 10 3.1 10 6.93C51 43.9 46.52 47 41 47s-10-3.1-10-6.92c0-3.83 4.48-6.93 10-6.93z" opacity="1" data-original="#fcd770" class=""></path><path d="M9.293 35.707c1.069 1.069 3.149 2.485 5.387 3.24l.64-1.895c-1.921-.648-3.738-1.885-4.613-2.76zM5 28c0 1.646.379 3.157 1.128 4.49l1.744-.98C7.293 30.48 7 29.3 7 28zM57.938 20.345l-1.877-.689c-.576 1.566-1.156 2.73-1.882 3.773l1.642 1.143c.816-1.174 1.489-2.516 2.117-4.227zM59 16c0-3.428-.688-5.784-2.231-7.64l-1.538 1.28C56.471 11.131 57 13.033 57 16zM41 32.154c-6.065 0-11 3.554-11 7.923S34.935 48 41 48s11-3.554 11-7.923-4.935-7.923-11-7.923zM41 46c-4.962 0-9-2.657-9-5.923s4.038-5.923 9-5.923 9 2.657 9 5.923S45.962 46 41 46z" fill="#000000" opacity="1" data-original="#000000" class=""></path><path d="m34 40 1.997.037C36.108 39.546 37.825 38 41 38v-2c-3.942 0-7 2.15-7 4z" fill="#000000" opacity="1" data-original="#000000" class=""></path><path d="M59 40c0-.586.947-1.532 1.707-2.293C61.834 36.58 63 35.414 63 34c0-3.36-3.431-3.493-6.457-3.609l-.437-.017.135-.133c3.722-3.722 6.079-8.378 6.635-13.109.567-4.82-.792-9.146-3.827-12.181-6.198-6.198-17.542-4.938-25.29 2.81-2.519 2.519-4.43 5.467-5.563 8.544l-1.389-.198L25.781 12H21C9.972 12 1 19.178 1 28c0 8.431 8.199 15.343 18.55 15.941.649 1.49 1.782 2.303 2.901 3.083.947.661 1.926 1.344 2.717 2.53.485.729.309 1.075-1.256 2.479C22.614 53.196 21 54.644 21 57c0 1.16.431 2.178 1.281 3.025 2.028 2.021 6.437 3.004 13.475 3.004h.248c5.813-.019 8.273-2.055 10.069-3.541C47.155 58.592 47.87 58 49 58c14 0 14-5.854 14-9 0-1.937-1.303-4.037-2.452-5.891C59.822 41.939 59 40.614 59 40zM35.173 9.174c6.968-6.967 17.045-8.227 22.462-2.81 2.593 2.593 3.749 6.333 3.254 10.532-.504 4.288-2.658 8.524-6.063 11.93a77.378 77.378 0 0 1-1.403 1.344c-1.962-.268-3.67-.9-4.529-2.617C47.365 24.494 44.135 24 37 24h-.722l-3.969-2.381 2.207-4.413-4.29-.613c1.049-2.662 2.743-5.214 4.947-7.419zm-3.688 9.62-1.793 3.587 2.758 1.655c-5.424.127-9.426.733-10.398 3.648-1.113 3.339 2.481 4.644 4.231 5.271l-.357.213c-1.321.787-3.092 1.845-4.514 3.183l-4.869-3.479 2.146-2.146-2.111-1.056 4.865-5.838-3.863-2.897 6.851-6.09.763 3.05zM3 28c0-7.72 8.075-14 18-14h1.37l-7.949 7.065 4.137 3.103-5.135 6.162 1.889.944-1.854 1.854 6.622 4.73C19.422 38.797 19 39.844 19 41c0 .331.03.622.058.915C10.043 41.159 3 35.209 3 28zm46 28c-1.851 0-2.994.946-4.203 1.947-1.736 1.437-3.703 3.065-8.8 3.082h-.237c-7.957 0-10.956-1.312-12.067-2.421C23.22 58.138 23 57.626 23 57c0-1.463 1.091-2.441 2.247-3.478 1.313-1.177 3.111-2.788 1.585-5.077-1.001-1.501-2.189-2.33-3.237-3.061C22.032 44.295 21 43.575 21 41c0-2.571 3.87-4.876 5.948-6.113.862-.514 1.432-.853 1.759-1.18.32-.32.451-.739.359-1.15-.177-.791-.979-1.079-2.089-1.478-2.67-.958-3.407-1.63-3.029-2.763C24.721 26 30.963 26 37 26c6.973 0 9.145.526 10.105 2.447 1.826 3.651 6.003 3.812 9.36 3.941C59.923 32.522 61 32.762 61 34c0 .586-.947 1.532-1.707 2.293C58.166 37.42 57 38.586 57 40c0 1.184.856 2.564 1.848 4.164C59.857 45.79 61 47.634 61 49c0 2.787 0 7-12 7z" fill="#000000" opacity="1" data-original="#000000" class=""></path></g></svg>