<svg xmlns="http://www.w3.org/2000/svg" version="1.1" xmlns:xlink="http://www.w3.org/1999/xlink" width="512" height="512" x="0" y="0" viewBox="0 0 512 512" style="enable-background:new 0 0 512 512" xml:space="preserve" class=""><g><path d="m509.196 375.828-161.032-126.8c-4.818-3.787-11.892-.346-11.892 5.775v84.317H152.991c-44.2 0-89.516-12.257-122.984-41.322-5.242-4.553-13.323.085-12.037 6.908 2.275 12.083 6.91 30.283 16.08 48.353 23.527 46.374 63.546 69.887 118.941 69.887h181.86v80.497a7.344 7.344 0 0 0 4.061 6.571 7.341 7.341 0 0 0 7.693-.693L509.06 387.479a7.348 7.348 0 0 0 .136-11.651z" style="" fill="#1bbc86" data-original="#1bbc86"></path><path d="m509.196 375.828-20.999-16.534c-153.009 114.755-142.495 107.664-146 107.664-4.031 0-7.346-3.267-7.346-7.348v43.832a7.344 7.344 0 0 0 4.061 6.571 7.341 7.341 0 0 0 7.693-.693L509.06 387.477a7.347 7.347 0 0 0 .136-11.649z" style="" fill="#149362" data-original="#149362"></path><path d="M494.027 207.304c-13.471-71.591-58.442-118.239-135.021-118.239H177.145V8.567c0-6.048-6.924-9.503-11.754-5.878L2.936 124.53c-3.853 2.89-3.93 8.665-.137 11.65 173.463 136.586 161.933 128.373 165.58 128.373 4.024 0 7.346-3.262 7.346-7.348v-84.317h183.281c44.303 0 89.599 12.317 122.984 41.321 5.255 4.561 13.325-.094 12.037-6.905z" style="" fill="#e22437" data-original="#e22437"></path><path d="M168.379 223.886c-3.639 0 7.076 7.577-146.637-113.458L2.936 124.53c-3.853 2.89-3.93 8.665-.137 11.65l161.033 126.8c4.803 3.779 11.891.357 11.891-5.775v-40.668c.001 4.084-3.318 7.349-7.344 7.349zM494.027 207.304c-1.591-8.449-4.342-19.889-8.981-32.18-4.9-1.21-41.828-42.902-126.041-42.902H220.683c-1.895.428-4.74.665-8.74.665-26.701 0-34.342 14.675-36.218 26.249v13.754h183.281c44.303 0 89.599 12.317 122.984 41.321 5.255 4.559 13.325-.096 12.037-6.907z" style="" fill="#c61a33" data-original="#c61a33"></path><path d="M294.862 379.114h-141.87c-61.406 0-103.074-29.145-124.59-82.355-5.458-2.66-11.544 2.047-10.432 7.947 13.482 71.602 58.442 118.239 135.021 118.239h181.86v-10.42c-1.336-12.963-8.444-33.411-39.989-33.411z" style="" fill="#149362" data-original="#149362"></path></g></svg>