<svg xmlns="http://www.w3.org/2000/svg" version="1.1" xmlns:xlink="http://www.w3.org/1999/xlink" width="512" height="512" x="0" y="0" viewBox="0 0 32 32" style="enable-background:new 0 0 512 512" xml:space="preserve" class=""><g><path fill="#ff8a80" d="m29.914 27.086-3.5-3.5c-.756-.756-2.072-.756-2.828 0-.378.378-.586.88-.586 1.414s.208 1.036.586 1.414l3.5 3.5c.378.378.88.586 1.414.586s1.036-.208 1.414-.586.586-.88.586-1.414-.208-1.036-.586-1.414z" opacity="1" data-original="#ff8a80" class=""></path><path fill="#e67c73" d="M30.414 28.414c-.378.378-.88.586-1.414.586s-1.036-.208-1.414-.586l-4-4a1.959 1.959 0 0 1-.309-.414A1.99 1.99 0 0 0 23 25c0 .534.208 1.036.586 1.414l3.5 3.5c.378.378.88.586 1.414.586s1.036-.208 1.414-.586.586-.88.586-1.414c0-.058-.012-.113-.017-.17-.024.027-.043.058-.069.084z" opacity="1" data-original="#e67c73"></path><path fill="#ff8a80" d="M16.192 21.59a.5.5 0 0 1-.48-.639c.532-1.85.953-3.831 1.25-5.887a3.512 3.512 0 0 0-2.967-3.975c-1.907-.275-3.686 1.049-3.961 2.943-.339 2.346-.855 4.546-1.536 6.54a.5.5 0 1 1-.947-.323c.66-1.935 1.162-4.074 1.493-6.359.354-2.438 2.632-4.138 5.092-3.79a4.513 4.513 0 0 1 3.815 5.107 45.31 45.31 0 0 1-1.279 6.021.5.5 0 0 1-.48.362z" opacity="1" data-original="#ff8a80" class=""></path><path fill="#ff8a80" d="M18.53 20.59a.499.499 0 0 1-.486-.62c.366-1.479.668-3.034.897-4.622a5.516 5.516 0 0 0-4.667-6.239c-2.996-.431-5.787 1.651-6.221 4.638-.29 2.005-.715 3.896-1.264 5.62a.5.5 0 0 1-.953-.303c.533-1.671.946-3.508 1.228-5.459.512-3.533 3.814-5.988 7.352-5.485 3.552.512 6.025 3.819 5.514 7.372a48.35 48.35 0 0 1-.917 4.719.497.497 0 0 1-.483.379z" opacity="1" data-original="#ff8a80" class=""></path><path fill="#ff8a80" d="M11.716 22.505a.5.5 0 0 1-.472-.665c.786-2.239 1.377-4.708 1.757-7.337a.495.495 0 0 1 .566-.423.5.5 0 0 1 .423.566c-.389 2.693-.996 5.225-1.803 7.525a.499.499 0 0 1-.471.334z" opacity="1" data-original="#ff8a80" class=""></path><path fill="#ff8a80" d="M9.821 21.871a.501.501 0 0 1-.472-.666c.748-2.125 1.31-4.477 1.673-6.988a2.511 2.511 0 0 1 2.831-2.117 2.502 2.502 0 0 1 2.118 2.831c-.035.242-.071.482-.11.72a.501.501 0 0 1-.988-.16c.038-.231.073-.465.107-.702.057-.397-.043-.792-.283-1.113s-.59-.529-.986-.586a1.487 1.487 0 0 0-1.7 1.27c-.372 2.575-.95 4.99-1.719 7.177a.5.5 0 0 1-.471.334zM13.963 22.062a.5.5 0 0 1-.476-.651 39.55 39.55 0 0 0 1.037-3.997.5.5 0 1 1 .979.201 40.417 40.417 0 0 1-1.063 4.098.501.501 0 0 1-.477.349z" opacity="1" data-original="#ff8a80" class=""></path><path fill="#ff8a80" d="M21.122 18.01a.5.5 0 0 1-.493-.589 52.81 52.81 0 0 0 .29-1.791c.589-4.097-2.265-7.911-6.364-8.503-4.089-.577-7.898 2.265-8.489 6.333a35.794 35.794 0 0 1-.577 3.071.506.506 0 0 1-.601.373.5.5 0 0 1-.373-.601c.223-.947.411-1.951.561-2.985.669-4.612 4.989-7.83 9.619-7.18 4.646.67 7.88 4.993 7.212 9.636-.09.621-.188 1.229-.295 1.824a.498.498 0 0 1-.49.412zM20.549 7.978a.502.502 0 0 1-.354-.146 9.428 9.428 0 0 0-3.188-2.102.5.5 0 0 1 .37-.928c1.324.528 2.51 1.31 3.525 2.324a.5.5 0 0 1-.353.852z" opacity="1" data-original="#ff8a80" class=""></path><path fill="#ff8a80" d="M3.593 13.604a.5.5 0 0 1-.495-.571c.027-.187.059-.372.096-.555C4.285 7.03 9.461 3.374 14.975 4.159a.501.501 0 0 1-.14.99c-4.987-.706-9.673 2.598-10.661 7.523-.033.166-.062.333-.087.503a.5.5 0 0 1-.494.429z" opacity="1" data-original="#ff8a80" class=""></path><path fill="#ffafa9" d="m28.254 26.547-2.5-2.5a.5.5 0 0 0-.707.707l2.5 2.5a.504.504 0 0 0 .708 0 .501.501 0 0 0-.001-.707z" opacity="1" data-original="#ffafa9"></path><path fill="#455a64" d="M23.614 24.086a.502.502 0 0 1-.354-.146l-2.4-2.4a.5.5 0 0 1 .707-.707l2.4 2.4a.5.5 0 0 1-.353.853z" opacity="1" data-original="#455a64"></path><path fill="#455a64" d="M28.5 31c-.667 0-1.295-.26-1.768-.732l-3.5-3.5c-.472-.473-.732-1.101-.732-1.768s.26-1.295.732-1.768c.906-.907 2.629-.907 3.535 0l3.5 3.5c.473.473.733 1.101.733 1.768s-.26 1.295-.732 1.768S29.167 31 28.5 31zM25 23.519c-.407 0-.793.153-1.061.42-.283.284-.439.661-.439 1.061s.156.777.439 1.061l3.5 3.5c.567.566 1.554.566 2.121 0 .284-.284.44-.661.44-1.061s-.156-.777-.439-1.061l-3.5-3.5a1.505 1.505 0 0 0-1.061-.42zM12.988 27.505c-2.797 0-5.558-.81-7.944-2.379a.502.502 0 0 1-.143-.693.502.502 0 0 1 .693-.143 13.47 13.47 0 0 0 11.238 1.658.5.5 0 1 1 .283.959 14.56 14.56 0 0 1-4.127.598zM26.404 17.554a.5.5 0 0 1-.479-.644 13.49 13.49 0 0 0-1.522-11.143.5.5 0 1 1 .844-.536 14.49 14.49 0 0 1 1.636 11.968.5.5 0 0 1-.479.355z" opacity="1" data-original="#455a64"></path><path fill="#455a64" d="M13 25C6.383 25 1 19.617 1 13S6.383 1 13 1s12 5.383 12 12-5.383 12-12 12zm0-23C6.935 2 2 6.935 2 13s4.935 11 11 11 11-4.935 11-11S19.065 2 13 2zM3.5 24a.47.47 0 0 1-.35-.15c-.1-.09-.15-.22-.15-.35s.05-.26.15-.35a.501.501 0 0 1 .85.35c0 .13-.05.26-.15.35a.47.47 0 0 1-.35.15zM23.5 4a.5.5 0 0 1-.35-.14.508.508 0 0 1-.01-.71c.19-.19.53-.19.71 0 .1.09.15.22.15.35s-.05.26-.15.36a.5.5 0 0 1-.35.14z" opacity="1" data-original="#455a64"></path></g></svg>