<svg xmlns="http://www.w3.org/2000/svg" version="1.1" xmlns:xlink="http://www.w3.org/1999/xlink" width="512" height="512" x="0" y="0" viewBox="0 0 64 64" style="enable-background:new 0 0 512 512" xml:space="preserve" class=""><g><circle cx="17" cy="9.5" r="5.5" fill="#65d2e6" opacity="1" data-original="#65d2e6" class=""></circle><path fill="#65d2e6" d="M6 26v10a2 2 0 0 0 2 2h3v19a3 3 0 0 0 3 3h6a3 3 0 0 0 3-3V38h3a2 2 0 0 0 2-2V26a11 11 0 0 0-11-11A11 11 0 0 0 6 26z" opacity="1" data-original="#65d2e6" class=""></path><g fill="#26bed3"><path d="M25 38V26a1 1 0 0 0-2 0v12zM11 38V26a1 1 0 0 0-2 0v12zM18 60V42a1 1 0 0 0-2 0v18z" fill="#26bed3" opacity="1" data-original="#26bed3" class=""></path></g><path fill="#f0788c" d="M44.798 15a11.836 11.836 0 0 0-11.712 10.126l-1.525 10.44A3 3 0 0 0 34.53 39H55a3 3 0 0 0 2.971-3.415L56.52 25.199A11.836 11.836 0 0 0 44.798 15z" opacity="1" data-original="#f0788c" class=""></path><circle cx="44.765" cy="9.5" r="5.5" fill="#f0788c" opacity="1" data-original="#f0788c" class=""></circle><path fill="#f0788c" d="m38.185 25-2.92 20h19l-2.794-20" opacity="1" data-original="#f0788c" class=""></path><path fill="#e56581" d="M47.894 60h-6.258a2 2 0 0 1-1.996-1.867L38.765 45h12l-.876 13.133A2 2 0 0 1 47.894 60z" opacity="1" data-original="#e56581" class=""></path><path fill="#dd5075" d="M43.765 60V49a1 1 0 0 1 2 0v11z" opacity="1" data-original="#dd5075"></path><path fill="#e56581" d="M53.461 24.862a1 1 0 1 0-1.98.276L53.417 39h2.02zM37.33 24.01a1.004 1.004 0 0 0-1.134.845L34.13 39h2.022l2.023-13.855a1 1 0 0 0-.845-1.135z" opacity="1" data-original="#e56581" class=""></path></g></svg>