<svg xmlns="http://www.w3.org/2000/svg" version="1.1" xmlns:xlink="http://www.w3.org/1999/xlink" width="512" height="512" x="0" y="0" viewBox="0 0 48 48" style="enable-background:new 0 0 512 512" xml:space="preserve" class=""><g><linearGradient id="a" x1="24" x2="24" y1="-.064" y2="47.362" gradientUnits="userSpaceOnUse"><stop offset="0" stop-color="#a6df62"></stop><stop offset="1" stop-color="#56ab2f"></stop></linearGradient><linearGradient xlink:href="#a" id="b" x1="25.293" x2="25.293" y1="-.064" y2="47.362"></linearGradient><path fill="url(#a)" d="M24 2a22 22 0 1 0 22 22A22.025 22.025 0 0 0 24 2zm0 40a18 18 0 1 1 18-18 18.021 18.021 0 0 1-18 18z" opacity="1" data-original="url(#a)" class=""></path><path fill="url(#b)" d="m21.414 12.586-2.828 2.828L27.172 24l-8.586 8.586 2.828 2.828 10-10a2 2 0 0 0 0-2.828z" opacity="1" data-original="url(#b)"></path></g></svg>
