<svg xmlns="http://www.w3.org/2000/svg" version="1.1" xmlns:xlink="http://www.w3.org/1999/xlink" width="512" height="512" x="0" y="0" viewBox="0 0 512 512" style="enable-background:new 0 0 512 512" xml:space="preserve" class=""><g><path fill="#f9cf58" d="m49.567 471.788 36.778 9 36.777-9v-18.036l-36.777-9-36.778 9z" opacity="1" data-original="#f9cf58"></path><path fill="#ffac3e" d="m162.67 471.788 36.778 9 36.778-9v-18.036l-36.778-9-36.778 9z" opacity="1" data-original="#ffac3e"></path><path fill="#82d361" d="m275.774 471.788 36.778 9 36.778-9v-18.036l-36.778-9-36.778 9z" opacity="1" data-original="#82d361"></path><path fill="#6cc4ff" d="m388.877 471.788 36.778 9 36.778-9v-18.036l-36.778-9-36.778 9z" opacity="1" data-original="#6cc4ff"></path><path fill="#ffe27a" d="M123.122 453.752H49.567v-72.767c0-5.534 4.486-10.02 10.02-10.02h53.517c5.534 0 10.02 4.486 10.02 10.02v72.767z" opacity="1" data-original="#ffe27a"></path><path fill="#ffba57" d="M236.226 453.752H162.67V326.297c0-5.534 4.486-10.02 10.02-10.02h53.516c5.534 0 10.02 4.486 10.02 10.02z" opacity="1" data-original="#ffba57"></path><path fill="#98db7c" d="M349.33 453.752h-73.556V271.608c0-5.534 4.486-10.02 10.02-10.02h53.517c5.534 0 10.02 4.486 10.02 10.02v182.144z" opacity="1" data-original="#98db7c" class=""></path><path fill="#8bcaff" d="M462.433 453.752h-73.556V216.919c0-5.534 4.486-10.02 10.02-10.02h53.517c5.534 0 10.02 4.486 10.02 10.02v236.833z" opacity="1" data-original="#8bcaff" class=""></path><path fill="#ff4755" d="m421.956 117.62-8.827-87.925a5.01 5.01 0 0 0-6.247-4.348l-85.577 22.288c-4.142 1.079-5.111 6.518-1.597 8.961l22.355 15.543S284.73 183.948 77.58 247.876v5.588c56.837.311 205.414-15.944 298.599-141.163l15.567-5.618 22.365 15.55c3.512 2.442 8.272-.357 7.845-4.613z" opacity="1" data-original="#ff4755" class=""></path><path fill="#fc2b3a" d="M382.772 100.345c-2.23-1.575-5.297-1.065-6.926 1.125C282.661 226.689 163.112 242.458 80.97 248.164a10.089 10.089 0 0 1-3.327-.307l-.073.023c-10.595 3.342-7.627 19.087 3.456 18.316 83.006-5.775 220.024-35.418 310.719-159.512z" opacity="1" data-original="#fc2b3a"></path><path fill="#407093" d="M504.485 486.817H7.515a7.516 7.516 0 0 1 0-15.03h496.971a7.516 7.516 0 0 1-.001 15.03z" opacity="1" data-original="#407093"></path></g></svg>