<svg xmlns="http://www.w3.org/2000/svg" version="1.1" xmlns:xlink="http://www.w3.org/1999/xlink" width="512" height="512" x="0" y="0" viewBox="0 0 512.936 512.936" style="enable-background:new 0 0 512 512" xml:space="preserve" class=""><g><path d="M420.599 474.535c-6.4 0-12.8 0-19.2-1.067-20.267-2.133-48-13.867-68.267-41.6-14.933-20.267-28.8-54.4-17.067-107.733 5.333-21.333 18.133-45.867 32-71.467 29.867-55.467 65.067-118.4 29.867-176-11.733-20.267-27.733-30.933-46.933-35.2-48-8.533-103.467 32-103.467 33.067l-6.4-8.533c-2.133 2.133-4.267 3.2-4.267 4.267l-14.933-18.133c42.667-37.333 145.067-88.533 214.4-13.867 64 69.333 69.333 180.267 69.333 185.6 1.067 36.267 3.2 67.2 5.333 94.933 5.333 71.467 7.467 115.2-16 138.667-12.799 11.733-29.866 17.066-54.399 17.066zm-65.067-448c16 7.467 29.867 20.267 41.6 38.4 41.6 68.267 2.133 140.8-28.8 199.467-12.8 24.533-25.6 46.933-29.867 65.067-7.467 35.2-3.2 66.133 12.8 88.533 16 21.333 37.333 30.933 51.2 32 27.733 2.133 45.867 0 55.467-9.6 17.067-16 13.867-57.6 9.6-120.533-2.133-27.733-4.267-59.733-5.333-96 0-1.067-5.333-107.733-62.933-170.667-13.867-13.867-28.801-22.4-43.734-26.667z" style="" fill="#f3705a" data-original="#f3705a" class=""></path><path d="M125.132 188.669c-8.533 0-12.8-16-12.8-30.933s4.267-30.933 12.8-30.933c2.133 0 4.267 2.133 4.267 4.267s-2.133 3.2-3.2 4.267c-1.067 1.067-5.333 8.533-5.333 23.467s4.267 22.4 5.333 23.467c2.133 0 3.2 2.133 3.2 4.267 0-.003-2.134 2.131-4.267 2.131z" style="" fill="#415a6b" data-original="#415a6b"></path><path d="M131.532 101.202s21.333-18.133 35.2-17.067c13.867 2.133 20.267 28.8 20.267 28.8s-7.467 26.667-19.2 25.6-40.534-29.866-36.267-37.333z" style="" fill="#f3705a" data-original="#f3705a" class=""></path><path d="M166.732 138.535c-22.4-10.667 19.2-25.6 19.2-25.6 0 1.067-6.4 26.667-19.2 25.6z" style="" fill="#f05540" data-original="#f05540"></path><path d="M117.665 142.802c-10.667-12.8-8.533-34.133 5.333-51.2 2.133-3.2 5.333-4.267 9.6-4.267s7.467 1.067 9.6 4.267l29.867 35.2c2.133 3.2 3.2 6.4 3.2 10.667-1.067 3.2-3.2 6.4-6.4 8.533-19.2 10.667-40.533 9.6-51.2-3.2zm18.134-45.867c-1.067-1.067-2.133-1.067-3.2-1.067-1.067 0-2.133 0-3.2 1.067-11.733 13.867-13.867 30.933-5.333 40.533s25.6 9.6 40.533 1.067c1.067-1.067 2.133-2.133 2.133-3.2 0-1.067 0-2.133-1.067-3.2l-29.866-35.2z" style="" fill="#ced6e0" data-original="#ced6e0"></path><path d="m168.865 121.469-25.6-29.867c-3.2 2.133-5.333 3.2-7.467 5.333l25.6 29.867c2.134-1.067 4.267-3.2 7.467-5.333z" style="" fill="#e8eae9" data-original="#e8eae9" class=""></path><path d="M180.456 43.132h37.334v67.201h-37.334z" style="" transform="rotate(-130.617 199.122 76.731)" fill="#ced6e0" data-original="#ced6e0"></path><path d="M165.665 137.469c-12.8-4.267-37.333-28.8-34.133-36.267 0 0 2.133-2.133 5.333-4.267 2.133-1.067 4.267-3.2 7.467-5.333 7.467-4.267 16-8.533 22.4-7.467 13.867 2.133 20.267 28.8 20.267 28.8s-10.667 3.2-18.133 8.533c-2.133 2.133-5.333 3.2-6.4 5.333-3.201 4.268-2.134 7.468 3.199 10.668z" style="" fill="#f3705a" data-original="#f3705a" class=""></path><path d="M165.665 219.602H84.599v-38.4a19.12 19.12 0 0 1 19.2-19.2h43.733a19.12 19.12 0 0 1 19.2 19.2v38.4h-1.067zm-58.666-25.6h35.2c4.267 0 7.467-3.2 7.467-7.467 0-4.267-3.2-7.467-7.467-7.467h-35.2c-4.267 0-7.467 3.2-7.467 7.467 0 3.2 3.2 7.467 7.467 7.467z" style="" fill="#55c0eb" data-original="#55c0eb" class=""></path><path d="M231.799 231.336v262.4a19.12 19.12 0 0 1-19.2 19.2H37.665a19.12 19.12 0 0 1-19.2-19.2v-262.4a19.12 19.12 0 0 1 19.2-19.2h174.933a19.12 19.12 0 0 1 19.201 19.2z" style="" fill="#55c0eb" data-original="#55c0eb" class=""></path><path d="M197.665 295.336v133.333h14.934v64H37.665v-64h14.934V295.336H37.665v-65.067h174.934v65.067z" style="" fill="#e8eae9" data-original="#e8eae9" class=""></path><path d="M125.132 188.669c-2.133 0-4.267-2.133-4.267-4.267 0-2.133 2.133-3.2 3.2-4.267 1.067-1.067 5.333-8.533 5.333-23.467 0-14.933-4.267-22.4-5.333-23.467-2.133 0-3.2-2.133-3.2-4.267s2.133-4.267 4.267-4.267c8.533 0 12.8 16 12.8 30.933 0 17.069-4.267 33.069-12.8 33.069zm0-7.467zm0-45.867z" style="" fill="#415a6b" data-original="#415a6b"></path><path d="M79.265 272.935h91.733v101.333H79.265zM66.465 410.535h116.267v18.133H66.465zM66.465 454.269h116.267v18.133H66.465z" style="" fill="#adb3ba" data-original="#adb3ba" class=""></path></g></svg>