<svg xmlns="http://www.w3.org/2000/svg" version="1.1" xmlns:xlink="http://www.w3.org/1999/xlink" width="512" height="512" x="0" y="0" viewBox="0 0 512 512" style="enable-background:new 0 0 512 512" xml:space="preserve" class=""><g><path fill="#60b7ff" d="M263.536 139.136a7.69 7.69 0 0 1-4.897-1.754 7.726 7.726 0 0 1-1.071-10.874l26.641-32.461c2.706-3.299 7.575-3.778 10.874-1.071s3.778 7.575 1.071 10.874l-26.641 32.461a7.707 7.707 0 0 1-5.977 2.825z" opacity="1" data-original="#60b7ff" class=""></path><ellipse cx="38.057" cy="69.538" fill="#e5caf3" rx="38.057" ry="38.049" opacity="1" data-original="#e5caf3"></ellipse><path fill="#60b7ff" d="M118.592 148.974a7.698 7.698 0 0 1-5.135-1.956L61.34 100.619a7.726 7.726 0 0 1 10.275-11.541l52.117 46.399a7.726 7.726 0 0 1-5.14 13.497z" opacity="1" data-original="#60b7ff" class=""></path><path fill="#d9b1ee" d="M76.11 69.537c0 21.016-17.039 38.055-38.055 38.055-4.533 0-8.87-.793-12.898-2.246 14.659-5.285 25.147-19.326 25.147-35.809S39.817 39.023 25.157 33.738a37.937 37.937 0 0 1 12.898-2.246c21.016.001 38.055 17.029 38.055 38.045z" opacity="1" data-original="#d9b1ee"></path><path fill="#7a6d79" d="M323.67 371.674a7.701 7.701 0 0 1-5.463-2.263l-37.038-37.03a7.726 7.726 0 1 1 10.926-10.928l37.038 37.03a7.726 7.726 0 0 1-5.463 13.191z" opacity="1" data-original="#7a6d79"></path><ellipse cx="197.978" cy="238.282" fill="#6c7fd8" rx="125.376" ry="125.35" opacity="1" data-original="#6c7fd8" class=""></ellipse><path fill="#4f66d0" d="M286.632 149.647c-29.759-29.753-70.756-41.419-109.33-35.005 24.892 4.139 48.775 15.805 67.979 35.005 48.962 48.952 48.962 128.319 0 177.271-19.203 19.199-43.087 30.865-67.979 35.005 38.574 6.414 79.571-5.252 109.33-35.005 48.963-48.952 48.963-128.319 0-177.271z" opacity="1" data-original="#4f66d0" class=""></path><path fill="#d8ecfe" d="M288.028 238.281c0 40.331-28.34 71.422-28.34 71.422-37.056 32.039-93.304 30.504-128.474-4.667-36.819-36.808-36.819-96.703 0-133.511a91.477 91.477 0 0 1 4.873-4.533l12.716 1.978-.065-11.25c26.651-16.287 59.678-18.152 87.792-5.594l1.611 8.432 12.091-.881a91.726 91.726 0 0 1 9.457 7.18c-.001.001 28.339 29.671 28.339 71.424z" opacity="1" data-original="#d8ecfe" class=""></path><path fill="#c4e2ff" d="M264.745 171.529c-1.637-1.637-3.335-3.174-5.059-4.666 29.753 42.811 29.754 100.027 0 142.838 1.724-1.491 3.422-3.029 5.059-4.665 36.816-36.808 36.816-96.699 0-133.507z" opacity="1" data-original="#c4e2ff"></path><path fill="#918291" d="m443.984 460.579-23.667 23.662c-5.33 5.328-13.969 5.328-19.299 0l-89.18-89.161c-5.331-5.33-5.331-13.973 0-19.303l23.667-23.662c5.33-5.328 13.969-5.328 19.299 0l89.18 89.161c5.331 5.33 5.331 13.973 0 19.303z" opacity="1" data-original="#918291"></path><path fill="#7a6d79" d="m443.984 441.276-89.18-89.161c-5.33-5.328-13.969-5.328-19.299 0l-5.808 5.807 83.371 83.354c5.331 5.33 5.331 13.973 0 19.303l-17.859 17.855 5.808 5.807c5.33 5.328 13.969 5.328 19.299 0l23.667-23.662c5.332-5.33 5.332-13.973.001-19.303z" opacity="1" data-original="#7a6d79"></path><ellipse cx="314.324" cy="69.538" fill="#80d261" rx="38.057" ry="38.049" opacity="1" data-original="#80d261"></ellipse><ellipse cx="473.943" cy="211.645" fill="#ffd15b" rx="38.057" ry="38.049" opacity="1" data-original="#ffd15b"></ellipse><path fill="#60b7ff" d="M453.25 159.721a7.726 7.726 0 1 0-15.452 0v9.398l-89.92-80.046a7.726 7.726 0 0 0-10.274 11.542l87.621 77.999h-6.32a7.726 7.726 0 1 0 0 15.452h26.62c3.649.084 8.023-3.433 7.726-7.726v-26.619z" opacity="1" data-original="#60b7ff" class=""></path><path fill="#68ca44" d="M352.384 69.537c0 21.016-17.039 38.055-38.055 38.055a37.97 37.97 0 0 1-12.908-2.246c14.659-5.285 25.147-19.326 25.147-35.809s-10.487-30.514-25.147-35.799a37.994 37.994 0 0 1 12.908-2.246c21.016.001 38.055 17.029 38.055 38.045z" opacity="1" data-original="#68ca44"></path><path fill="#ffc344" d="M512 211.64c0 21.016-17.039 38.055-38.055 38.055a37.97 37.97 0 0 1-12.908-2.246c14.659-5.285 25.147-19.326 25.147-35.809 0-16.473-10.487-30.514-25.147-35.799a37.994 37.994 0 0 1 12.908-2.246c21.016.001 38.055 17.04 38.055 38.045z" opacity="1" data-original="#ffc344"></path><path fill="#60b7ff" d="M175.028 191.48a7.719 7.719 0 0 1-5.769 2.586 7.72 7.72 0 0 1-5.141-1.957l-27.156-24.178a6.213 6.213 0 0 1-.876-.938 92.729 92.729 0 0 1 12.651-9.272l25.662 22.849a7.725 7.725 0 0 1 .629 10.91zM250.231 159.678a6.832 6.832 0 0 1-.608.865l-21.83 26.599a7.752 7.752 0 0 1-5.975 2.823 7.74 7.74 0 0 1-4.904-1.751c-3.297-2.709-3.781-7.582-1.071-10.879l20.686-25.209a91.379 91.379 0 0 1 13.702 7.552z" opacity="1" data-original="#60b7ff" class=""></path><path fill="#26a6fe" d="M463.365 46.007a7.726 7.726 0 0 1-7.726-7.726v-6.792a7.726 7.726 0 1 1 15.452 0v6.792a7.725 7.725 0 0 1-7.726 7.726zM463.365 90.39a7.726 7.726 0 0 1-7.726-7.726v-6.792a7.726 7.726 0 1 1 15.452 0v6.792a7.725 7.725 0 0 1-7.726 7.726z" opacity="1" data-original="#26a6fe"></path><path fill="#60b7ff" d="M488.953 64.803h-6.792a7.726 7.726 0 1 1 0-15.452h6.792a7.726 7.726 0 1 1 0 15.452zM444.57 64.803h-6.792a7.726 7.726 0 1 1 0-15.452h6.792a7.726 7.726 0 1 1 0 15.452z" opacity="1" data-original="#60b7ff" class=""></path><path fill="#cb97e7" d="M220.447 211.645c0 33.321-35.674 35.805-35.674 35.805-14.186-5.53-25.154-19.665-25.154-35.805 0-16.439 10.551-30.485 25.154-35.803 0-.001 35.674 2.12 35.674 35.803z" opacity="1" data-original="#cb97e7"></path><path fill="#bd80e1" d="M235.736 211.64c0 21.016-17.039 38.055-38.065 38.055-4.533 0-8.87-.793-12.898-2.246 14.66-5.285 25.147-19.326 25.147-35.809 0-16.473-10.487-30.514-25.147-35.799a37.937 37.937 0 0 1 12.898-2.246c21.026.001 38.065 17.04 38.065 38.045z" opacity="1" data-original="#bd80e1"></path></g></svg>