<svg xmlns="http://www.w3.org/2000/svg" version="1.1" xmlns:xlink="http://www.w3.org/1999/xlink" width="512" height="512" x="0" y="0" viewBox="0 0 512 512" style="enable-background:new 0 0 512 512" xml:space="preserve" class=""><g><path fill="#eaf6ff" d="M292.923 426.481c0-46.604 37.915-84.519 84.519-84.519 15.223 0 29.505 4.066 41.855 11.138V5.151A5.15 5.15 0 0 0 414.146 0H54.191a5.15 5.15 0 0 0-5.151 5.151v490.377a5.15 5.15 0 0 0 5.151 5.151h282.814c-26.243-14.36-44.082-42.233-44.082-74.198z" opacity="1" data-original="#eaf6ff" class=""></path><path fill="#d8ecfe" d="M95.443 495.528V5.151A5.15 5.15 0 0 1 100.594 0H54.191a5.15 5.15 0 0 0-5.151 5.151v490.377a5.15 5.15 0 0 0 5.151 5.151h46.403a5.15 5.15 0 0 1-5.151-5.151z" opacity="1" data-original="#d8ecfe"></path><path fill="#4fc123" d="M222.312 454.69H83.983a3.143 3.143 0 0 1-3.143-3.143v-23.564a3.143 3.143 0 0 1 3.143-3.143h138.329a3.143 3.143 0 0 1 3.143 3.143v23.564a3.143 3.143 0 0 1-3.143 3.143z" opacity="1" data-original="#4fc123" class=""></path><path fill="#47a920" d="M115.606 451.547v-23.564a3.142 3.142 0 0 1 3.143-3.142H83.983a3.142 3.142 0 0 0-3.142 3.142v23.564a3.142 3.142 0 0 0 3.142 3.142h34.766a3.141 3.141 0 0 1-3.143-3.142z" opacity="1" data-original="#47a920"></path><path fill="#ffffff" d="M88.341 179.294h291.655v124.108H88.341z" opacity="1" data-original="#ffffff"></path><path fill="#f3f0f3" d="M88.341 179.294h26.41v124.109h-26.41z" opacity="1" data-original="#f3f0f3"></path><path fill="#8ac9fe" d="M276.572 179.294h103.424v124.108H276.572z" opacity="1" data-original="#8ac9fe" class=""></path><path fill="#0593fc" d="M384.354 83.536H231.382a3.143 3.143 0 0 1-3.143-3.143v-23.72a3.143 3.143 0 0 1 3.143-3.143h152.972a3.143 3.143 0 0 1 3.143 3.143v23.72a3.144 3.144 0 0 1-3.143 3.143z" opacity="1" data-original="#0593fc"></path><path fill="#0182fc" d="M262.891 80.393v-23.72a3.143 3.143 0 0 1 3.142-3.143h-34.652a3.142 3.142 0 0 0-3.142 3.143v23.72a3.143 3.143 0 0 0 3.142 3.143h34.652a3.143 3.143 0 0 1-3.142-3.143z" opacity="1" data-original="#0182fc"></path><path fill="#60b7ff" d="M348.116 347.216a7.478 7.478 0 0 0-5.334-2.231H183.509c-4.143 0-7.5 3.358-7.5 7.5s3.357 7.5 7.5 7.5h141.857c6.824-5.356 14.477-9.698 22.75-12.769zM306.805 380.149H183.509c-4.143 0-7.5 3.358-7.5 7.5s3.357 7.5 7.5 7.5h115.46a84.452 84.452 0 0 1 7.836-15zM155.566 359.985H88.341c-4.143 0-7.5-3.358-7.5-7.5s3.357-7.5 7.5-7.5h67.226a7.5 7.5 0 1 1-.001 15zM155.566 395.149H88.341c-4.143 0-7.5-3.358-7.5-7.5s3.357-7.5 7.5-7.5h67.226a7.5 7.5 0 1 1-.001 15z" opacity="1" data-original="#60b7ff"></path><circle cx="377.441" cy="426.481" r="85.519" fill="#fedf30" opacity="1" data-original="#fedf30" class=""></circle><circle cx="377.442" cy="426.481" r="56.7" fill="#4fc123" opacity="1" data-original="#4fc123" class=""></circle><path fill="#47a920" d="M358.938 426.481c0-24.565 15.707-45.524 37.602-53.382a56.424 56.424 0 0 0-19.098-3.318c-31.265 0-56.7 25.436-56.7 56.7 0 31.265 25.436 56.701 56.7 56.701a56.448 56.448 0 0 0 19.098-3.318c-21.896-7.858-37.602-28.817-37.602-53.383z" opacity="1" data-original="#47a920"></path><path fill="#ffffff" d="M373.558 451.879a7.503 7.503 0 0 1-5.304-2.197l-23.747-23.748a7.5 7.5 0 0 1 0-10.606 7.5 7.5 0 0 1 10.607 0l18.443 18.444 26.211-26.211a7.5 7.5 0 0 1 10.607 10.606l-31.515 31.515a7.495 7.495 0 0 1-5.302 2.197z" opacity="1" data-original="#ffffff"></path><path fill="#47a920" d="M133.876 83.813h-29.528c-4.69 0-8.506-3.816-8.507-8.505v-.488c0-4.691 3.816-8.507 8.507-8.507h35.502c4.143 0 7.5-3.358 7.5-7.5s-3.357-7.5-7.5-7.5h-13.252v-4.699c0-4.142-3.357-7.5-7.5-7.5s-7.5 3.358-7.5 7.5v4.699h-7.25c-12.962 0-23.507 10.545-23.507 23.507v.489c.001 12.96 10.547 23.504 23.507 23.504h29.528c4.675 0 8.478 3.803 8.478 8.478s-3.803 8.478-8.478 8.478H98.072c-4.143 0-7.5 3.358-7.5 7.5s3.357 7.5 7.5 7.5h13.525v4.698c0 4.142 3.357 7.5 7.5 7.5s7.5-3.358 7.5-7.5v-4.698h7.278c12.945 0 23.478-10.532 23.478-23.478s-10.532-23.478-23.477-23.478z" opacity="1" data-original="#47a920"></path><path fill="#8ac9fe" d="M379.996 119.228h-74.465c-4.143 0-7.5-3.358-7.5-7.5s3.357-7.5 7.5-7.5h74.465c4.143 0 7.5 3.358 7.5 7.5s-3.357 7.5-7.5 7.5z" opacity="1" data-original="#8ac9fe" class=""></path><path fill="#b3dafe" d="M379.996 171.794H88.341a7.5 7.5 0 0 0-7.5 7.5v124.108a7.5 7.5 0 0 0 7.5 7.5h291.655a7.5 7.5 0 0 0 7.5-7.5V179.294a7.5 7.5 0 0 0-7.5-7.5zm-284.155 56.37h27.404v26.369H95.841zm173.231 26.369H138.245v-26.369h130.827zm15 0v-26.369h88.424v26.369zm88.424 15v26.37h-88.424v-26.37zm-103.424-56.369H138.245v-26.37h130.827zm-130.827 56.369h130.827v26.37H138.245zm234.251-56.369h-88.424v-26.37h88.424zm-249.251-26.37v26.37H95.841v-26.37zm-27.404 82.739h27.404v26.37H95.841z" opacity="1" data-original="#b3dafe" class=""></path></g></svg>