<svg xmlns="http://www.w3.org/2000/svg" version="1.1" xmlns:xlink="http://www.w3.org/1999/xlink" width="512" height="512" x="0" y="0" viewBox="0 0 58 58" style="enable-background:new 0 0 512 512" xml:space="preserve" class=""><g><g fill="none" fill-rule="nonzero"><path fill="#ecf0f1" d="M16 17h42v38a3 3 0 0 1-3 3H3a3 3 0 0 1-3-3V17z" opacity="1" data-original="#ecf0f1"></path><path fill="#3b97d3" d="M16 19h42V3a3 3 0 0 0-3-3H3a3 3 0 0 0-3 3v16z" opacity="1" data-original="#3b97d3" class=""></path><g fill="#fff"><path d="M9 7a1 1 0 1 0 0-2H5a1 1 0 1 0 0 2h1v6H5a1 1 0 0 0 0 2h4a1 1 0 0 0 0-2H8V7zM52 11a1 1 0 0 0 0-2h-3V7h3a1 1 0 0 0 0-2h-4a1 1 0 0 0-1 1v8a1 1 0 0 0 1 1h4a1 1 0 0 0 0-2h-3v-2zM37 7a1 1 0 0 0 0-2h-4a1 1 0 0 0 0 2h1v6h-1a1 1 0 0 0 0 2h4a1 1 0 0 0 0-2h-1V7zM16 5a1 1 0 0 0-1 1v3.764l-2.1-4.211A1 1 0 0 0 11 6v8a1 1 0 0 0 2 0v-3.764l2.105 4.211A1 1 0 0 0 17 14V6a1 1 0 0 0-1-1zM23.243 5.03a1 1 0 0 0-1.213.727L21 9.877l-1.03-4.12a1 1 0 0 0-1.94.486l2 8a1 1 0 0 0 1.94 0l2-8a1 1 0 0 0-.727-1.213zM28 5a3 3 0 0 0-3 3v4a3 3 0 0 0 6 0V8a3 3 0 0 0-3-3zm1 7a1 1 0 0 1-2 0V8a1 1 0 0 1 2 0zM42 7c.552 0 1 .448 1 1a1 1 0 0 0 2 0 3 3 0 0 0-6 0v4a3 3 0 0 0 6 0 1 1 0 0 0-2 0 1 1 0 0 1-2 0V8a1 1 0 0 1 1-1z" fill="#ffffff" opacity="1" data-original="#ffffff"></path></g><path fill="#2980ba" d="M19 25H6a1 1 0 0 1 0-2h13a1 1 0 0 1 0 2zM19 29H6a1 1 0 0 1 0-2h13a1 1 0 0 1 0 2z" opacity="1" data-original="#2980ba"></path><path fill="#bdc3c7" d="M52 32H6a2 2 0 0 0-2 2v18a2 2 0 0 0 2 2h46a2 2 0 0 0 2-2V34a2 2 0 0 0-2-2zm0 6h-8v-4h8zm-10-4v4H6v-4zM6 40h36v12H6zm38 12V40h8v12z" opacity="1" data-original="#bdc3c7"></path><path fill="#4fba6f" d="M18 42.081v-3.954c1.15.283 2 1.022 2 1.873a1 1 0 0 0 2 0c0-1.932-1.721-3.547-4-3.919V36a1 1 0 0 0-2 0v.081c-2.279.372-4 1.987-4 3.919s1.721 3.547 4 3.919v3.954c-1.15-.283-2-1.022-2-1.873a1 1 0 0 0-2 0c0 1.932 1.721 3.547 4 3.919V50a1 1 0 0 0 2 0v-.081c2.279-.372 4-1.987 4-3.919s-1.721-3.547-4-3.919zM14 40c0-.851.85-1.59 2-1.873v3.746c-1.15-.283-2-1.022-2-1.873zm4 7.873v-3.746c1.15.283 2 1.022 2 1.873s-.85 1.59-2 1.873z" opacity="1" data-original="#4fba6f"></path></g></g></svg>