<svg xmlns="http://www.w3.org/2000/svg" version="1.1" xmlns:xlink="http://www.w3.org/1999/xlink" width="512" height="512" x="0" y="0" viewBox="0 0 32 32" style="enable-background:new 0 0 512 512" xml:space="preserve" class=""><g><path d="M23 30c2.757 0 5-2.243 5-5V7c0-2.757-2.243-5-5-5H9C6.243 2 4 4.243 4 7v18c0 2.757 2.243 5 5 5zM6 7c0-1.654 1.346-3 3-3h14c1.654 0 3 1.346 3 3v18c0 1.654-1.346 3-3 3H9c-1.654 0-3-1.346-3-3z" fill="#000000" opacity="1" data-original="#000000"></path><path d="M14 17h8a1 1 0 1 0 0-2h-8a1 1 0 1 0 0 2zM14 12h8a1 1 0 1 0 0-2h-8a1 1 0 1 0 0 2zM14 22h8a1 1 0 1 0 0-2h-8a1 1 0 1 0 0 2zM10.02 12a1 1 0 1 0 0-2h-.01c-.552 0-.995.448-.995 1s.453 1 1.005 1zM10.02 17a1 1 0 1 0 0-2h-.01c-.552 0-.995.448-.995 1s.453 1 1.005 1zM10.02 22a1 1 0 1 0 0-2h-.01c-.552 0-.995.448-.995 1s.453 1 1.005 1z" fill="#000000" opacity="1" data-original="#000000"></path></g></svg>