<svg xmlns="http://www.w3.org/2000/svg" version="1.1" xmlns:xlink="http://www.w3.org/1999/xlink" width="512" height="512" x="0" y="0" viewBox="0 0 508.096 508.096" style="enable-background:new 0 0 512 512" xml:space="preserve" class=""><g><path d="M111.368 142.656V286.64h285.328V142.656C396.696 64 332.696 0 254.024 0S111.368 64 111.368 142.656zm24 0c0-65.536 53.12-118.672 118.656-118.672S372.68 77.12 372.68 142.656V262.64H135.368V142.656z" style="" fill="#f3f3f3" data-original="#f3f3f3"></path><path d="M135.368 142.656V262.64h237.328V142.656c0-65.536-53.12-118.672-118.656-118.672S135.368 77.12 135.368 142.656zm24 0C159.368 90.464 201.832 48 254.04 48s94.672 42.464 94.672 94.656v95.984H159.368v-95.984z" style="" fill="#e5e5e5" data-original="#e5e5e5"></path><path d="M94.808 508.096h318.48c17.664 0 32-14.32 32-32v-231.28c0-17.664-14.336-32-32-32H94.808c-17.68 0-32 14.336-32 32v231.28c0 17.68 14.32 32 32 32z" style="" fill="#ffcc5b" data-original="#ffcc5b" class=""></path><path d="M309.752 380.928h12.112c10.272 0 18.592-8.368 18.528-18.64v-1.552c.064-10.816-8.736-19.664-19.536-19.664h-15.664c-11.968 0-22.704-8.96-23.328-20.912-.672-12.752 9.472-23.296 22.08-23.296h56.512c10.688 0 18.656-8.976 18.528-19.664v-.544c.128-10.688-7.84-19.648-18.528-19.648h-18.272c-11.968 0-22.704-8.96-23.328-20.912-.672-12.752 9.472-23.296 22.08-23.296h72.352c17.664 0 32 14.32 32 32v231.28c0 17.68-14.336 32-32 32h-93.712c-12.208 0-22.112-9.904-22.112-22.112s9.904-22.112 22.112-22.112h29.568c10.224 0 18.544-8.368 18.496-18.592v-.24c0-.448.016-.896.048-1.344.608-10.08-7.392-18.576-17.488-18.576H311c-11.968 0-22.704-8.96-23.328-20.912-.656-12.72 9.488-23.264 22.08-23.264z" style="" fill="#fdbc4b" data-original="#fdbc4b" class=""></path><path d="M205.96 333.2c0-26.56 21.536-48.08 48.08-48.08 26.56 0 48.08 21.536 48.08 48.08 0 17.728-9.712 33.056-24 41.392l6.592 61.2h-61.36l6.592-61.2c-14.288-8.336-23.984-23.648-23.984-41.392z" style="" fill="#464646" data-original="#464646" class=""></path><path d="M111.368 331.6c8.832 0 16 7.152 16 16v92.064c0 8.848-7.168 16-16 16s-16-7.152-16-16V347.6c0-8.832 7.168-16 16-16zM111.368 265.248c8.832 0 16 7.152 16 16v18.736c0 8.848-7.168 16-16 16s-16-7.152-16-16v-18.736c0-8.848 7.168-16 16-16z" style="" fill="#ffd769" data-original="#ffd769"></path></g></svg>