<svg xmlns="http://www.w3.org/2000/svg" version="1.1" xmlns:xlink="http://www.w3.org/1999/xlink" width="512" height="512" x="0" y="0" viewBox="0 0 60 60" style="enable-background:new 0 0 512 512" xml:space="preserve" class=""><g><path fill="#b9bfcc" d="M21 20h-2a1 1 0 0 1 0-2h2a1 1 0 0 1 0 2z" opacity="1" data-original="#b9bfcc"></path><path fill="#8991a0" d="M14 47a1 1 0 0 1-.788-1.614l7-9a1 1 0 1 1 1.578 1.228l-7 9A1 1 0 0 1 14 47z" opacity="1" data-original="#8991a0"></path><path fill="#d69247" d="m3.43 35.66 4.6-.65a1.01 1.01 0 0 1 1.13.86l.8 5.8L4 43z" opacity="1" data-original="#d69247" class=""></path><path fill="#ccd0da" d="M58 26v10l-15 2 1-21h5z" opacity="1" data-original="#ccd0da" class=""></path><path fill="#d69247" d="M21 37V16a2 2 0 0 1 2-2h19a2 2 0 0 1 2 2v21z" opacity="1" data-original="#d69247" class=""></path><path fill="#b9bfcc" d="M55 41h3a1 1 0 0 0 1-1v-3a1 1 0 0 0-1-1H21a1 1 0 0 0-1 1v3a1 1 0 0 0 1 1z" opacity="1" data-original="#b9bfcc"></path><circle cx="29" cy="41" r="5" fill="#454a54" opacity="1" data-original="#454a54" class=""></circle><circle cx="50" cy="41" r="5" fill="#454a54" opacity="1" data-original="#454a54" class=""></circle><path fill="#2783ec" d="M58 22v4h-7a2.006 2.006 0 0 1-2-2v-7h4a5.087 5.087 0 0 1 2.76.82 5.329 5.329 0 0 1 1.42 1.42A5.087 5.087 0 0 1 58 22z" opacity="1" data-original="#2783ec" class=""></path><circle cx="4.5" cy="43.5" r="2.5" fill="#454a54" opacity="1" data-original="#454a54" class=""></circle><g fill="#c17f3e"><path d="M38 32H26a1 1 0 0 1 0-2h12a1 1 0 0 1 0 2zM38 28H26a1 1 0 0 1 0-2h12a1 1 0 0 1 0 2zM38 24H26a1 1 0 0 1 0-2h12a1 1 0 0 1 0 2zM38 20H26a1 1 0 0 1 0-2h12a1 1 0 0 1 0 2z" fill="#c17f3e" opacity="1" data-original="#c17f3e" class=""></path></g><path fill="#8991a0" d="M53 31h-2a1 1 0 0 1 0-2h2a1 1 0 0 1 0 2z" opacity="1" data-original="#8991a0"></path><path fill="#439af6" d="m57.18 19.24-3.47 3.47a1.014 1.014 0 0 1-1.42 0 1.008 1.008 0 0 1 0-1.42l3.47-3.47a5.329 5.329 0 0 1 1.42 1.42z" opacity="1" data-original="#439af6"></path><path fill="#2f333a" d="M59 47H1a1 1 0 0 1 0-2h58a1 1 0 0 1 0 2z" opacity="1" data-original="#2f333a"></path><path fill="#d92936" d="M12.23 42.19 7 43.43a2.532 2.532 0 0 0-.88-1.84l5.65-1.34a1 1 0 1 1 .46 1.94zM4.07 30.84l.77 10.18c-.11-.01-.22-.02-.34-.02a2.468 2.468 0 0 0-1.63.61L2.07 31H1a1 1 0 0 1 0-2h1.07a1.983 1.983 0 0 1 2 1.84z" opacity="1" data-original="#d92936"></path></g></svg>