<svg xmlns="http://www.w3.org/2000/svg" version="1.1" xmlns:xlink="http://www.w3.org/1999/xlink" width="512" height="512" x="0" y="0" viewBox="0 0 468.293 468.293" style="enable-background:new 0 0 512 512" xml:space="preserve" class=""><g><path d="M113.129 184.779 0 153.768v229.119l113.129-174.444zM113.129 10.709l-87.43 21.677C11.506 35.906 0 50.265 0 64.458v41.456l113.129 31.011V10.709zM442.594 8.632 296.907 41.487v222.16l22.055 6.54L468.293 43.27V28.536c0-14.193-11.506-23.105-25.699-19.904zM468.293 314.471V83.849L341.306 276.814zM296.907 352.08v108.232l145.687-32.855c14.193-3.201 25.699-17.302 25.699-31.495v-33.637l-149.042-44.198-22.344 33.953zM0 423.466v8.418c0 14.193 11.506 22.846 25.699 19.327l87.43-21.677V249.023L0 423.466z" style="" fill="#44c4a1" data-original="#44c4a1" class=""></path><path d="M113.129 136.925 0 105.914v47.854l113.129 31.011zM113.129 208.443 0 382.887v40.579l113.129-174.443zM296.907 263.647V352.08l22.344-33.954 149.042 44.199v-47.854l-126.987-37.657L468.293 83.849V43.27L318.962 270.187z" style="" fill="#f6c358" data-original="#f6c358" class=""></path><path d="M113.129 184.779v23.664l13.03-14.741zM151.091 162.921l112.85-127.672-150.812-24.54v126.216zM173.434 178.222l123.473 84.55V40.612l-1.607-.261zM213.269 445.828l83.638 13.609V351.205zM296.907 310.626 148.503 209.003l-35.374 40.02v180.511l68.783 11.192z" style="" fill="#3ea69b" data-original="#3ea69b" class=""></path><path d="m295.3 40.351-31.359-5.102-112.85 127.672-37.962-25.996v47.854l13.03 8.923-13.03 14.741v40.58l35.374-40.02 148.404 101.623v-47.854l-123.473-84.55zM213.269 445.828l83.638-94.623v-40.579l-114.995 130.1z" style="" fill="#f6c358" data-original="#f6c358" class=""></path><path d="M105.466 72.149c0 20.379-36.9 82.045-36.9 82.045 1.411 0-36.9-61.665-36.9-82.045s16.521-36.9 36.9-36.9 36.9 16.52 36.9 36.9z" style="" fill="#ce412d" data-original="#ce412d"></path><circle cx="68.564" cy="72.18" r="21.317" style="" fill="#ffffff" data-original="#ffffff"></circle><path d="M378.206 307.087c0 20.379-36.9 82.044-36.9 82.044 1.411 0-36.9-61.665-36.9-82.044s16.521-36.9 36.9-36.9c20.38 0 36.9 16.521 36.9 36.9z" style="" fill="#ce412d" data-original="#ce412d"></path><circle cx="341.292" cy="307.088" r="21.317" style="" fill="#ffffff" data-original="#ffffff"></circle></g></svg>