<svg xmlns="http://www.w3.org/2000/svg" version="1.1" xmlns:xlink="http://www.w3.org/1999/xlink" width="512" height="512" x="0" y="0" viewBox="0 0 256 256" style="enable-background:new 0 0 512 512" xml:space="preserve" class=""><g><path fill="#ffcf4a" d="M125.017 19.853h6.6v35.771h-6.6z" opacity="1" data-original="#ffcf4a"></path><path fill="#7eadc2" d="M235.819 236.678H20.814v-61.18l107.256-33.712 107.749 33.712z" opacity="1" data-original="#7eadc2"></path><path fill="#ffaa00" d="M176.362 88.225c-.01-.138-.017-.275-.032-.414-1.378-12.873-12.115-20.79-23.44-26.186-7.846-3.737-18.025-12.017-23.44-23.003v-.008H127.184v.008c-5.416 10.986-15.595 19.266-23.44 23.003-11.325 5.396-22.06 13.312-23.441 26.186-.006.059-.008.117-.014.175q-.078.819-.076 1.626c-.004.335 0 .672.019 1.01a16.025 16.025 0 0 0 1.333 5.522 23.428 23.428 0 0 0 7.634 9.486 28.818 28.818 0 0 0 4.97 3.008q.531.252 1.073.487c16.964 7.37 48.986 7.457 66.151 0q.54-.235 1.07-.487a28.822 28.822 0 0 0 4.97-3.008 23.429 23.429 0 0 0 7.635-9.486 16.028 16.028 0 0 0 1.333-5.523c.018-.338.024-.674.019-1.009.001-.459-.021-.922-.059-1.387z" opacity="1" data-original="#ffaa00" class=""></path><path fill="#7eadc2" d="M95.131 110.858h66.372v126.066H95.131z" opacity="1" data-original="#7eadc2"></path><path fill="#4472b0" d="M148 236.924h-39.367v-68.867l12.706-20.208a8.449 8.449 0 0 1 14.6.144L148 168.057z" opacity="1" data-original="#4472b0"></path><path fill="#ffcf4a" d="M182.043 100.426h6.6v17.389h-6.6z" opacity="1" data-original="#ffcf4a"></path><path fill="#ffaa00" d="M185.342 112.95h.002a14.796 14.796 0 0 1 14.796 14.796v8.412h-29.594v-8.412a14.796 14.796 0 0 1 14.796-14.796z" opacity="1" data-original="#ffaa00" class=""></path><path fill="#4472b0" d="M170.546 130.914h29.595v23.989h-29.595z" opacity="1" data-original="#4472b0"></path><path fill="#4472b0" d="M161.556 151.545h47.575v85.133h-47.575z" opacity="1" data-original="#4472b0"></path><g fill="#c1c8d1"><path d="M196.786 236.678H173.9V220.28l7.386-12.4a4.912 4.912 0 0 1 8.488.084l7.011 12.316zM196.786 195.747H173.9V179.35l7.386-12.4a4.912 4.912 0 0 1 8.488.084l7.011 12.317zM185.343 137.855a4.41 4.41 0 0 1 4.41 4.41v8.914h-8.82v-8.914a4.41 4.41 0 0 1 4.41-4.41z" fill="#c1c8d1" opacity="1" data-original="#c1c8d1"></path></g><path fill="#ffcf4a" d="M67.99 100.426h6.6v17.389h-6.6z" opacity="1" data-original="#ffcf4a"></path><path fill="#ffaa00" d="M71.289 112.95h.003a14.796 14.796 0 0 1 14.796 14.796v8.412H56.493v-8.412a14.796 14.796 0 0 1 14.796-14.796z" opacity="1" data-original="#ffaa00" class=""></path><path fill="#4472b0" d="M56.493 130.914h29.595v23.989H56.493z" opacity="1" data-original="#4472b0"></path><path fill="#4472b0" d="M47.503 151.545h47.575v85.133H47.503z" opacity="1" data-original="#4472b0"></path><path fill="#c1c8d1" d="M82.733 236.678H59.847V220.28l7.387-12.4a4.912 4.912 0 0 1 8.488.084l7.011 12.316zM82.733 195.747H59.847V179.35l7.387-12.4a4.912 4.912 0 0 1 8.488.084l7.011 12.317zM71.29 137.855a4.41 4.41 0 0 1 4.41 4.41v8.914h-8.82v-8.914a4.41 4.41 0 0 1 4.41-4.41z" opacity="1" data-original="#c1c8d1"></path></g></svg>