<svg xmlns="http://www.w3.org/2000/svg" version="1.1" xmlns:xlink="http://www.w3.org/1999/xlink" width="512" height="512" x="0" y="0" viewBox="0 0 340 340" style="enable-background:new 0 0 512 512" xml:space="preserve" class=""><g><path fill="#ffbe71" d="M127.712 325.026h82.654a14.617 14.617 0 0 0 14.618-14.617v-17.841c-3.551-27.246-3.3-51.353 0-80.085v-16.032l-90.442-14.29-21.448 80.779v47.469a14.618 14.618 0 0 0 14.618 14.617zM291.324 102.789l3.729-14.461a2.064 2.064 0 0 1 4.006.033l3.464 14.418a19.922 19.922 0 0 0 13.251 14.305l7.392 2.386a2.064 2.064 0 0 1-.046 3.943l-7.02 2.087a19.921 19.921 0 0 0-13.733 14.6l-3.207 13.835a2.064 2.064 0 0 1-4.025-.013l-3.047-13.531a19.92 19.92 0 0 0-13.617-14.676l-7.733-2.362a2.064 2.064 0 0 1-.085-3.921l8.009-2.827a19.921 19.921 0 0 0 12.662-13.816z" opacity="1" data-original="#ffbe71"></path><path fill="#ffffff" d="M224.984 212.483h-73.349A11.52 11.52 0 0 0 140.115 224v57.046a11.52 11.52 0 0 0 11.52 11.519h73.349z" opacity="1" data-original="#ffffff"></path><path fill="#f74f73" d="M206.441 243.311h-13.739v-13.738h-18.43v13.738h-13.738v18.43h13.738v13.738h18.43v-13.738h13.739z" opacity="1" data-original="#f74f73"></path><path fill="#bddeff" d="M288.034 292.568h25.243a16.229 16.229 0 0 1 16.229 16.232 16.229 16.229 0 0 1-16.229 16.229h-25.243c-2.39-11.838-2.961-22.9 0-32.461z" opacity="1" data-original="#bddeff"></path><path fill="#7aaeed" d="M262.79 292.568h25.243v32.458H262.79a16.229 16.229 0 0 1-16.228-16.226 16.229 16.229 0 0 1 16.228-16.232z" opacity="1" data-original="#7aaeed" class=""></path><path fill="#bddeff" d="M302.727 254.3a30.5 30.5 0 0 1-36.663-5.565l-7.654-13.915A30.5 30.5 0 0 1 310 206.443l7.654 13.916a30.5 30.5 0 0 1-14.927 33.941z" opacity="1" data-original="#bddeff"></path><path fill="#7aaeed" d="M258.416 234.822a30.527 30.527 0 0 0 7.653 13.912l51.582-28.374A30.527 30.527 0 0 0 310 206.448z" opacity="1" data-original="#7aaeed" class=""></path><circle cx="296.208" cy="59.173" r="3.766" fill="#ffbe71" opacity="1" data-original="#ffbe71"></circle><path fill="#ef8e4d" d="M113.094 170.833h111.89v25.618h-111.89z" opacity="1" data-original="#ef8e4d"></path><path fill="#ffbe71" d="M143.841 185.631h91.4v-19.705a11.391 11.391 0 0 0-11.39-11.39h-67.644c-6.154 10.616-10.839 21.05-12.366 31.095z" opacity="1" data-original="#ffbe71"></path><path fill="#ef8e4d" d="M114.228 154.536a11.39 11.39 0 0 0-11.389 11.39v19.705h41l12.366-31.095z" opacity="1" data-original="#ef8e4d"></path><path fill="#ef8e4d" d="M149.726 170.833h-36.632v92.107z" opacity="1" data-original="#ef8e4d"></path><path fill="#ffbe71" d="m37.086 30.44 3.729-14.461a2.065 2.065 0 0 1 4.007.033l3.464 14.418a19.919 19.919 0 0 0 13.25 14.3l7.392 2.386a2.065 2.065 0 0 1-.046 3.944l-7.016 2.084a19.923 19.923 0 0 0-13.733 14.6L44.925 81.58a2.064 2.064 0 0 1-4.024-.012l-3.047-13.531A19.925 19.925 0 0 0 24.237 53.36L16.5 51a2.064 2.064 0 0 1-.084-3.921l8.009-2.827A19.921 19.921 0 0 0 37.086 30.44z" opacity="1" data-original="#ffbe71"></path><path fill="#7aaeed" d="m129.15 77.127 14.064 5.58a4.002 4.002 0 0 1 2.244 5.196L140.75 99.77l-21.506-8.533 4.709-11.866a4.002 4.002 0 0 1 5.197-2.244z" opacity="1" data-original="#7aaeed" class=""></path><path fill="#ffffff" d="m118.89 88.412 24.048 9.542a6.845 6.845 0 0 1 3.838 8.886l-8.05 20.287-36.772-14.59 8.048-20.284a6.845 6.845 0 0 1 8.888-3.84z" opacity="1" data-original="#ffffff"></path><path fill="#497fce" d="m117.206 87.744 27.415 10.878a5.034 5.034 0 0 1 2.822 6.535l-8.717 21.97-36.772-14.59 8.716-21.967a5.034 5.034 0 0 1 6.536-2.826z" opacity="1" data-original="#497fce" class=""></path><path fill="#bddeff" d="m94.3 266.907-55.95-22.2 52.52-132.371a7.837 7.837 0 0 1 10.175-4.395l41.381 16.417a7.838 7.838 0 0 1 4.4 10.175l-6.253 15.762a8.266 8.266 0 0 0-2.558 6.447l-5.319 13.407a11.66 11.66 0 0 0-2.558 6.448L124.814 190a9.982 9.982 0 0 0-2.558 6.447l-5.319 13.407a12.3 12.3 0 0 0-2.557 6.447l-5.32 13.408a14.872 14.872 0 0 0-2.557 6.447z" opacity="1" data-original="#bddeff"></path><path fill="#497fce" d="m55.284 256.93 18.354 7.281-13.781 34.732-18.354-7.282z" opacity="1" data-original="#497fce" class=""></path><g fill="#7aaeed"><path d="m24.536 282.91 53.661 21.292a7.37 7.37 0 0 1 4.132 9.568l-4.532 11.424-67.362-26.727 4.533-11.424a7.37 7.37 0 0 1 9.568-4.132z" fill="#7aaeed" opacity="1" data-original="#7aaeed" class=""></path><rect width="76.001" height="19.65" x="27.491" y="248.094" rx="5.406" transform="rotate(21.64 65.456 257.752)" fill="#7aaeed" opacity="1" data-original="#7aaeed" class=""></rect><path d="M129.069 145.733a3.468 3.468 0 1 0-2.558 6.447l11.5 4.562 2.558-6.447zM121.192 165.587a3.468 3.468 0 0 0-2.557 6.448l11.5 4.562 2.558-6.448zM105.665 182.407a3.468 3.468 0 0 0-2.557 6.447l19.148 7.6 2.558-6.454zM105.439 205.3a3.468 3.468 0 1 0-2.558 6.447l11.5 4.562 2.557-6.447zM97.562 225.151A3.468 3.468 0 1 0 95 231.6l11.5 4.562 2.557-6.447z" fill="#7aaeed" opacity="1" data-original="#7aaeed" class=""></path></g><path fill="#3c3c4f" d="M113.091 274.31a3.468 3.468 0 0 0-3.468 3.468V310.4a18.106 18.106 0 0 0 18.085 18.086h82.655a18.106 18.106 0 0 0 18.085-18.086V189.087h6.788a3.468 3.468 0 0 0 3.468-3.468v-19.705a14.874 14.874 0 0 0-14.857-14.857h-68.981a3.468 3.468 0 0 0 0 6.936h68.981a7.93 7.93 0 0 1 7.921 7.921v16.237h-88.68a3.468 3.468 0 0 0 0 6.936h78.424v18.926h-69.881A15 15 0 0 0 136.643 223v58.036a15.006 15.006 0 0 0 14.988 14.988h69.881V310.4a11.162 11.162 0 0 1-11.149 11.15h-82.655a11.162 11.162 0 0 1-11.149-11.15v-32.622a3.468 3.468 0 0 0-3.468-3.468zm30.488 6.727V223a8.062 8.062 0 0 1 8.052-8.052h69.881v74.14h-69.881a8.062 8.062 0 0 1-8.052-8.051zM9.22 301.527l67.33 26.711a3.462 3.462 0 0 0 4.5-1.945l4.53-11.418a10.848 10.848 0 0 0-6.076-14.066l-14.421-5.721 7.9-19.907 17.9 7.1a8.873 8.873 0 0 0 11.522-4.977l3.259-8.214a8.886 8.886 0 0 0-4.095-11.112L150.04 135.8a11.314 11.314 0 0 0-5.448-14.27l6.024-15.183a8.483 8.483 0 0 0-4.5-10.913l2.512-6.334a7.468 7.468 0 0 0-4.188-9.7l-3.8-1.509 24.449-61.629a3.468 3.468 0 1 0-6.447-2.557l-24.45 61.628-3.8-1.51a7.475 7.475 0 0 0-9.7 4.189l-2.513 6.334a8.483 8.483 0 0 0-10.758 4.861l-6.023 15.18a11.3 11.3 0 0 0-13.75 6.657L39.171 233.225a8.87 8.87 0 0 0-10.6 5.283l-3.259 8.214a8.887 8.887 0 0 0 4.977 11.522l17.9 7.1-7.9 19.906-14.422-5.721a10.849 10.849 0 0 0-14.066 6.075l-4.53 11.418a3.469 3.469 0 0 0 1.945 4.5zM127.826 80.273l14.057 5.576a.533.533 0 0 1 .3.692l-2.507 6.322-15.048-5.97 2.508-6.321a.532.532 0 0 1 .69-.299zm-13.964 11.493a1.565 1.565 0 0 1 2.03-.876l27.4 10.87a1.564 1.564 0 0 1 .876 2.03l-6.005 15.136-30.306-12.026zM94.09 113.6a4.368 4.368 0 0 1 5.673-2.45l41.38 16.417a4.369 4.369 0 0 1 2.45 5.673L95.142 255.37l-49.5-19.639zM31.76 249.279l3.259-8.214a2.655 2.655 0 0 1 2.517-1.086l60.593 24.038a1.94 1.94 0 0 1 1.087 2.517l-3.259 8.215a1.938 1.938 0 0 1-2.516 1.087L32.847 251.8a1.941 1.941 0 0 1-1.087-2.521zM54.637 267.9l11.9 4.72-7.9 19.907-11.9-4.72zm-36.385 20.264a3.9 3.9 0 0 1 5.061-2.186l53.636 21.279a3.9 3.9 0 0 1 2.186 5.061l-3.251 8.194L15 296.359zM313.273 289.089h-50.486a19.7 19.7 0 1 0 0 39.394h50.486a19.7 19.7 0 0 0 0-39.394zm-63.248 19.7a12.776 12.776 0 0 1 12.762-12.761h21.775v25.522h-21.775a12.776 12.776 0 0 1-12.762-12.764zm63.248 12.761H291.5v-25.525h21.775a12.761 12.761 0 0 1 0 25.522zM317.78 211.215a34 34 0 0 0-5.225-7.115c-.021-.023-.035-.05-.056-.072a33.965 33.965 0 0 0-57.462 31.608c.01.041.028.076.039.116a33.887 33.887 0 0 0 8.425 15.3c.022.024.037.052.059.076a33.965 33.965 0 0 0 57.462-31.609c-.008-.03-.023-.057-.031-.087a34.051 34.051 0 0 0-3.211-8.217zm-42.772-7.309A27.071 27.071 0 0 1 304 205.778l-42.927 23.613a27.073 27.073 0 0 1 13.935-25.485zm34.213 6.913a26.982 26.982 0 0 1 4.31 7.835l-46.693 25.685a27.045 27.045 0 0 1-4.31-7.835zm-8.17 40.433a27.069 27.069 0 0 1-28.987-1.871l42.927-23.613a27.069 27.069 0 0 1-13.94 25.484z" opacity="1" data-original="#3c3c4f" class=""></path></g></svg>