<svg xmlns="http://www.w3.org/2000/svg" version="1.1" xmlns:xlink="http://www.w3.org/1999/xlink" width="512" height="512" x="0" y="0" viewBox="0 0 512 512" style="enable-background:new 0 0 512 512" xml:space="preserve" class=""><g><path fill="#60b7ff" d="m512 139.447-256 26.205L0 139.447V99.902c0-11.495 9.318-20.813 20.813-20.813h470.374c11.495 0 20.813 9.318 20.813 20.813z" opacity="1" data-original="#60b7ff" class=""></path><path fill="#26a6fe" d="M491.187 79.089h-31.22c11.495 0 20.813 9.318 20.813 20.813v53.924L512 139.447V99.902c0-11.494-9.318-20.813-20.813-20.813z" opacity="1" data-original="#26a6fe"></path><path fill="#eaf6ff" d="M491.187 432.911H20.813C9.318 432.911 0 423.592 0 412.098v-272.65h512v272.65c0 11.494-9.318 20.813-20.813 20.813z" opacity="1" data-original="#eaf6ff" class=""></path><path fill="#d8ecfe" d="M480.78 139.447v272.65c0 11.495-9.318 20.813-20.813 20.813h31.22c11.495 0 20.813-9.318 20.813-20.813v-272.65z" opacity="1" data-original="#d8ecfe"></path><path fill="#60b7ff" d="M190.224 198.764v-16.65a8.325 8.325 0 0 1 8.325-8.325h273.906a8.325 8.325 0 0 1 8.325 8.325v16.65a8.325 8.325 0 0 1-8.325 8.325H198.549a8.325 8.325 0 0 1-8.325-8.325z" opacity="1" data-original="#60b7ff" class=""></path><path fill="#26a6fe" d="M472.455 173.789h-31.22a8.325 8.325 0 0 1 8.325 8.325v16.65a8.325 8.325 0 0 1-8.325 8.325h31.22a8.325 8.325 0 0 0 8.325-8.325v-16.65a8.325 8.325 0 0 0-8.325-8.325z" opacity="1" data-original="#26a6fe"></path><path fill="#fd8087" d="M31.669 320.421h123.979c.29-.957.449-1.971.449-3.023V184.195c0-5.747-4.659-10.406-10.406-10.406H41.626c-5.747 0-10.407 4.659-10.407 10.406v133.203c0 1.052.16 2.066.45 3.023z" opacity="1" data-original="#fd8087" class=""></path><circle cx="93.659" cy="235.187" r="30.179" fill="#fed2a4" opacity="1" data-original="#fed2a4" class=""></circle><path fill="#ffe177" d="M155.648 320.421c-3.655-31.002-30.006-55.055-61.99-55.055s-58.335 24.054-61.99 55.055c1.295 4.272 5.262 7.384 9.957 7.384H145.69c4.697 0 8.663-3.111 9.958-7.384z" opacity="1" data-original="#ffe177" class=""></path><path fill="#ffd15b" d="M155.648 320.421c-3.655-31.002-30.006-55.055-61.99-55.055-5.381 0-10.597.696-15.579 1.976 26.914 6.942 46.798 31.38 46.798 60.463h20.813c4.697 0 8.663-3.111 9.958-7.384z" opacity="1" data-original="#ffd15b"></path><path fill="#b3dafe" d="M231.024 245.809h-33.301a7.5 7.5 0 0 1 0-15h33.301a7.5 7.5 0 0 1 0 15zM295.545 279.11h-33.301a7.5 7.5 0 0 1 0-15h33.301a7.5 7.5 0 0 1 0 15zM295.545 345.711h-33.301a7.5 7.5 0 0 1 0-15h33.301a7.5 7.5 0 0 1 0 15zM360.065 279.11h-33.301a7.5 7.5 0 0 1 0-15h33.301a7.5 7.5 0 0 1 0 15zM428.748 245.809H262.244a7.5 7.5 0 0 1 0-15h166.504a7.5 7.5 0 0 1 0 15zM231.024 312.411h-33.301a7.5 7.5 0 0 1 0-15h33.301a7.5 7.5 0 0 1 0 15zM428.748 312.411H262.244a7.5 7.5 0 0 1 0-15h166.504a7.5 7.5 0 0 1 0 15z" opacity="1" data-original="#b3dafe"></path><path fill="#7a6d79" d="M473.28 409.191a7.5 7.5 0 0 1-7.5-7.5V368.39a7.5 7.5 0 0 1 15 0v33.301a7.5 7.5 0 0 1-7.5 7.5zM442.061 398.785a7.5 7.5 0 0 1-7.5-7.5V368.39a7.5 7.5 0 0 1 15 0v22.895a7.5 7.5 0 0 1-7.5 7.5zM410.842 409.191a7.5 7.5 0 0 1-7.5-7.5V368.39a7.5 7.5 0 0 1 15 0v33.301a7.5 7.5 0 0 1-7.5 7.5zM379.622 398.785a7.5 7.5 0 0 1-7.5-7.5V368.39a7.5 7.5 0 0 1 15 0v22.895a7.5 7.5 0 0 1-7.5 7.5zM348.403 398.785a7.5 7.5 0 0 1-7.5-7.5V368.39a7.5 7.5 0 0 1 15 0v22.895a7.5 7.5 0 0 1-7.5 7.5zM317.183 409.191a7.5 7.5 0 0 1-7.5-7.5V368.39a7.5 7.5 0 0 1 15 0v33.301a7.5 7.5 0 0 1-7.5 7.5z" opacity="1" data-original="#7a6d79"></path></g></svg>