<?xml version="1.0" encoding="iso-8859-1"?>
<!-- Uploaded to: SVG Repo, www.svgrepo.com, Generator: SVG Repo Mixer Tools -->
<svg version="1.1" id="Layer_1" xmlns="http://www.w3.org/2000/svg" xmlns:xlink="http://www.w3.org/1999/xlink" 
	 viewBox="0 0 512.01 512.01" xml:space="preserve">
<polygon style="fill:#E9E9E9;" points="314.435,66.351 387.208,66.351 387.208,356.591 124.801,356.591 124.801,66.351 
	197.574,66.351 "/>
<rect x="256.005" y="66.349" style="fill:#D4D4D4;" width="131.206" height="290.237"/>
<rect x="239.309" style="fill:#D1393C;" width="33.387" height="46.265"/>
<rect x="256.005" style="fill:#BC2029;" width="16.693" height="46.265"/>
<rect x="138.332" y="370.566" transform="matrix(-0.9706 -0.2407 0.2407 -0.9706 199.5115 904.9774)" style="fill:#D1393C;" width="33.387" height="139.476"/>
<rect x="287.246" y="423.594" transform="matrix(-0.2407 -0.9706 0.9706 -0.2407 15.5679 892.7517)" style="fill:#BC2029;" width="139.476" height="33.386"/>
<rect x="239.309" y="372.614" style="fill:#D1393C;" width="33.387" height="121.444"/>
<rect x="256.005" y="372.614" style="fill:#BC2029;" width="16.693" height="121.444"/>
<rect x="104.197" y="328.76" style="fill:#E68D2C;" width="303.616" height="55.663"/>
<rect x="256.005" y="328.76" style="fill:#E06B34;" width="151.808" height="55.663"/>
<rect x="197.57" y="34.454" style="fill:#E68D2C;" width="116.858" height="63.8"/>
<rect x="256.005" y="34.454" style="fill:#E06B34;" width="58.435" height="63.8"/>
</svg>