<svg xmlns="http://www.w3.org/2000/svg" version="1.1" xmlns:xlink="http://www.w3.org/1999/xlink" width="512" height="512" x="0" y="0" viewBox="0 0 512 512" style="enable-background:new 0 0 512 512" xml:space="preserve" class=""><g><path fill="#f6a96c" d="M470.381 279.775H440.39v59.284a4.328 4.328 0 0 1-4.324 4.323h-53.024c-6.238 23.685-27.835 41.205-53.452 41.205-4.703 0-9.269-.594-13.631-1.705v41.01h159.573V284.926a5.151 5.151 0 0 0-5.151-5.151z" opacity="1" data-original="#f6a96c"></path><path fill="#ea9b58" d="M329.59 384.588c-4.703 0-9.269-.594-13.631-1.705v41.01h36.468V379.63a54.939 54.939 0 0 1-22.837 4.958z" opacity="1" data-original="#ea9b58"></path><path fill="#f6a96c" d="M89.661 175.255H218.79v105.52H89.661z" opacity="1" data-original="#f6a96c"></path><path fill="#ea9b58" d="M89.661 175.255H123v105.52H89.661z" opacity="1" data-original="#ea9b58"></path><path fill="#fe646f" d="M183.692 215.681h-38.715a3.091 3.091 0 0 1-3.091-3.091v-37.335h44.896v37.335a3.09 3.09 0 0 1-3.09 3.091z" opacity="1" data-original="#fe646f"></path><path fill="#fd4755" d="M158.104 212.59v-37.335h-16.218v37.335a3.091 3.091 0 0 0 3.091 3.091h16.218a3.09 3.09 0 0 1-3.091-3.091z" opacity="1" data-original="#fd4755"></path><path fill="#ffbd86" d="M276.138 343.383h-53.024a4.328 4.328 0 0 1-4.324-4.323v-59.284H89.661v144.117h226.298v-41.01c-19.398-4.939-34.728-20.164-39.821-39.5z" opacity="1" data-original="#ffbd86"></path><path fill="#f6a96c" d="M89.661 279.775H123v144.117H89.661z" opacity="1" data-original="#f6a96c"></path><path fill="#eaf6ff" d="M434.72 92.101H287.003c-6.584 32.403-35.032 56.942-69.213 57.527V339.06a5.324 5.324 0 0 0 5.324 5.324h53.308a55.11 55.11 0 0 1-2.105-15.067c0-30.477 24.795-55.271 55.272-55.271s55.271 24.795 55.271 55.271c0 5.223-.744 10.273-2.105 15.067h53.309a5.324 5.324 0 0 0 5.324-5.324V93.101z" opacity="1" data-original="#eaf6ff"></path><path fill="#fe646f" d="M218.791 279.775h-43.555v43.961a3.091 3.091 0 0 0 3.091 3.091h40.464z" opacity="1" data-original="#fe646f"></path><path fill="#fd4755" d="M192 323.736v-43.961h-16.764v43.961a3.091 3.091 0 0 0 3.091 3.091h16.764a3.091 3.091 0 0 1-3.091-3.091z" opacity="1" data-original="#fd4755"></path><path fill="#fac600" d="M506.85 422.892H89.661v44.647l1 5.827h33.534c2.529-12.473 13.577-21.891 26.785-21.891s24.256 9.418 26.785 21.891h209.272c2.529-12.473 13.577-21.891 26.785-21.891s24.256 9.418 26.785 21.891h66.243a5.15 5.15 0 0 0 5.15-5.15v-40.173a5.15 5.15 0 0 0-5.15-5.151z" opacity="1" data-original="#fac600" class=""></path><g fill="#e8b800"><path d="M135.254 456.473H128a5 5 0 0 1-5-5v-28.581H89.661v44.647l1 5.827h33.534c1.409-6.947 5.464-12.94 11.059-16.893zM166.707 456.473c5.595 3.952 9.65 9.946 11.058 16.892h209.272c1.408-6.947 5.463-12.94 11.058-16.892zM429.549 456.473c5.595 3.952 9.65 9.946 11.058 16.892h66.243a5.15 5.15 0 0 0 5.15-5.15v-11.742z" fill="#e8b800" opacity="1" data-original="#e8b800"></path></g><circle cx="150.981" cy="478.804" r="28.33" fill="#7a6d79" opacity="1" data-original="#7a6d79"></circle><path fill="#685e68" d="M148 478.804c0-11.089 6.374-20.683 15.655-25.335a28.205 28.205 0 0 0-12.675-2.995c-15.646 0-28.33 12.684-28.33 28.33s12.684 28.33 28.33 28.33c4.558 0 8.86-1.083 12.675-2.995-9.281-4.652-15.655-14.246-15.655-25.335z" opacity="1" data-original="#685e68" class=""></path><circle cx="413.822" cy="478.804" r="28.33" fill="#7a6d79" opacity="1" data-original="#7a6d79"></circle><path fill="#685e68" d="M410.842 478.804c0-11.089 6.374-20.683 15.655-25.335a28.205 28.205 0 0 0-12.675-2.995c-15.646 0-28.33 12.684-28.33 28.33s12.684 28.33 28.33 28.33c4.558 0 8.86-1.083 12.675-2.995-9.281-4.652-15.655-14.246-15.655-25.335z" opacity="1" data-original="#685e68" class=""></path><path fill="#b5adb6" d="M0 79.348v22.72a5.15 5.15 0 0 0 5.15 5.15h55.132v355.846c0 5.69 4.612 10.302 10.302 10.302h20.077V94.799c0-11.377-9.223-20.601-20.601-20.601H5.15A5.15 5.15 0 0 0 0 79.348z" opacity="1" data-original="#b5adb6" class=""></path><path fill="#d8ecfe" d="M251.879 339.06V140.341a71.405 71.405 0 0 1-34.089 9.287V339.06a5.324 5.324 0 0 0 5.324 5.324h34.089a5.325 5.325 0 0 1-5.324-5.324z" opacity="1" data-original="#d8ecfe"></path><path fill="#0593fc" d="M436.066 50.51H283.063a71.484 71.484 0 0 1 5.38 27.252c0 5.264-.585 10.392-1.664 15.338H441.39V55.834a5.324 5.324 0 0 0-5.324-5.324z" opacity="1" data-original="#0593fc"></path><circle cx="329.59" cy="329.316" r="56.272" fill="#4fc123" opacity="1" data-original="#4fc123"></circle><path fill="#47a920" d="M308.285 329.316c0-24.972 16.273-46.133 38.788-53.488a56.207 56.207 0 0 0-17.483-2.784c-31.078 0-56.272 25.194-56.272 56.272s25.194 56.272 56.272 56.272c6.106 0 11.978-.985 17.483-2.784-22.515-7.355-38.788-28.515-38.788-53.488z" opacity="1" data-original="#47a920"></path><path fill="#ffffff" d="M326.016 352.729a7.477 7.477 0 0 1-5.303-2.196l-21.858-21.858a7.5 7.5 0 0 1 10.606-10.607l16.555 16.556 23.705-23.705a7.501 7.501 0 0 1 10.606 10.607l-29.008 29.008a7.486 7.486 0 0 1-5.303 2.195z" opacity="1" data-original="#ffffff"></path><g fill="#b3dafe"><path d="M391.064 143.19h7.454c4.142 0 7.5-3.357 7.5-7.5s-3.358-7.5-7.5-7.5h-7.454c-4.142 0-7.5 3.357-7.5 7.5s3.358 7.5 7.5 7.5zM339.956 128.19H267.73a72.41 72.41 0 0 1-13.737 10.921 7.494 7.494 0 0 0 6.669 4.079h79.293c4.142 0 7.5-3.357 7.5-7.5s-3.357-7.5-7.499-7.5zM398.518 162.263H260.663c-4.142 0-7.5 3.357-7.5 7.5s3.358 7.5 7.5 7.5h137.855c4.142 0 7.5-3.357 7.5-7.5s-3.358-7.5-7.5-7.5zM398.518 196.335h-78.792c-4.142 0-7.5 3.357-7.5 7.5s3.358 7.5 7.5 7.5h78.792c4.142 0 7.5-3.357 7.5-7.5s-3.358-7.5-7.5-7.5zM260.663 211.335h35.639c4.142 0 7.5-3.357 7.5-7.5s-3.358-7.5-7.5-7.5h-35.639c-4.142 0-7.5 3.357-7.5 7.5s3.358 7.5 7.5 7.5zM398.518 230.407H260.663c-4.142 0-7.5 3.357-7.5 7.5s3.358 7.5 7.5 7.5h137.855c4.142 0 7.5-3.357 7.5-7.5s-3.358-7.5-7.5-7.5z" fill="#b3dafe" opacity="1" data-original="#b3dafe"></path></g><circle cx="216.546" cy="77.762" r="72.897" fill="#fedf30" opacity="1" data-original="#fedf30"></circle><path fill="#fed402" d="M178.199 77.762c0-34.306 23.704-63.06 55.622-70.819a73.02 73.02 0 0 0-17.275-2.077c-40.26 0-72.896 32.637-72.896 72.897s32.637 72.897 72.896 72.897c5.954 0 11.735-.731 17.275-2.077-31.918-7.761-55.622-36.515-55.622-70.821z" opacity="1" data-original="#fed402"></path><path fill="#d7aa02" d="M229.885 70.508h-26.652a6.954 6.954 0 0 1-6.947-6.946v-.439c0-1.856.723-3.602 2.035-4.914s3.057-2.035 4.913-2.035h32.043c4.142 0 7.5-3.357 7.5-7.5s-3.358-7.5-7.5-7.5h-11.23v-3.51c0-4.143-3.358-7.5-7.5-7.5s-7.5 3.357-7.5 7.5v3.51h-5.813a21.802 21.802 0 0 0-15.52 6.429 21.805 21.805 0 0 0-6.428 15.521v.439c0 12.102 9.846 21.946 21.947 21.946h26.652c3.817 0 6.922 3.105 6.922 6.922s-3.105 6.922-6.922 6.922h-32.316c-4.142 0-7.5 3.357-7.5 7.5s3.358 7.5 7.5 7.5h11.477v3.51c0 4.143 3.358 7.5 7.5 7.5s7.5-3.357 7.5-7.5v-3.51h5.839c12.088 0 21.922-9.834 21.922-21.922s-9.834-21.923-21.922-21.923z" opacity="1" data-original="#d7aa02"></path></g></svg>