<svg xmlns="http://www.w3.org/2000/svg" version="1.1" xmlns:xlink="http://www.w3.org/1999/xlink" width="512" height="512" x="0" y="0" viewBox="0 0 512 512" style="enable-background:new 0 0 512 512" xml:space="preserve" class=""><g><path fill="#ffe177" d="M196.058 49.046 6.087 332.82c-15.862 23.694 1.12 55.499 29.634 55.499h379.942c28.513 0 45.495-31.805 29.634-55.499L255.325 49.046c-14.123-21.097-45.143-21.097-59.267 0z" opacity="1" data-original="#ffe177" class=""></path><path fill="#ffd15b" d="M357.476 201.636c-71.593 14.388-125.685 77.753-125.685 153.519 0 11.377 1.231 22.47 3.546 33.163h180.326c28.513 0 45.495-31.805 29.634-55.499z" opacity="1" data-original="#ffd15b"></path><path fill="#fe76a8" d="M225.691 265.767c-9.104 0-16.483-7.38-16.483-16.483V106.326c0-9.103 7.379-16.483 16.483-16.483s16.483 7.38 16.483 16.483v142.957c0 9.104-7.379 16.484-16.483 16.484z" opacity="1" data-original="#fe76a8" class=""></path><circle cx="225.692" cy="315.215" r="16.483" fill="#fe76a8" opacity="1" data-original="#fe76a8" class=""></circle><circle cx="388.378" cy="355.155" r="123.622" fill="#6cf5c2" opacity="1" data-original="#6cf5c2"></circle><path fill="#00f2a6" d="M448.22 246.966c9.829 17.732 15.432 38.131 15.432 59.841 0 68.274-55.347 123.622-123.622 123.622-21.71 0-42.109-5.603-59.841-15.432 21.081 38.032 61.625 63.78 108.189 63.78C456.652 478.777 512 423.43 512 355.155c0-46.564-25.749-87.108-63.78-108.189z" opacity="1" data-original="#00f2a6"></path><circle cx="388.378" cy="355.155" r="90.656" fill="#f2fbff" opacity="1" data-original="#f2fbff"></circle><path fill="#dff6fd" d="M463.617 304.635c.012.724.035 1.445.035 2.172 0 68.274-55.347 123.622-123.622 123.622-.727 0-1.448-.022-2.172-.035a90.136 90.136 0 0 0 50.52 15.417c49.988 0 90.656-40.668 90.656-90.656a90.136 90.136 0 0 0-15.417-50.52z" opacity="1" data-original="#dff6fd"></path><path fill="#528fd8" d="M425.465 362.655h-37.087a7.5 7.5 0 0 1-7.5-7.5v-57.69c0-4.142 3.357-7.5 7.5-7.5s7.5 3.358 7.5 7.5v50.19h29.587a7.5 7.5 0 0 1 0 15z" opacity="1" data-original="#528fd8"></path></g></svg>