<svg xmlns="http://www.w3.org/2000/svg" version="1.1" xmlns:xlink="http://www.w3.org/1999/xlink" width="512" height="512" x="0" y="0" viewBox="0 0 128 128" style="enable-background:new 0 0 512 512" xml:space="preserve" class=""><g><path d="M64 0C39.74 0 20 20 20 44.67a46.67 46.67 0 0 0 7.16 24.39l35.13 58A2 2 0 0 0 64 128a2 2 0 0 0 1.71-1l34-56.3c5.37-9 8.32-18.24 8.32-26.06C108 20 88.26 0 64 0Zm32.24 68.68L64 122.13C35.1 74.45 31.15 67.93 30.57 67A42.73 42.73 0 0 1 24 44.67C24 22.25 41.94 4 64 4s40 18.25 40 40.67c0 7.11-2.76 15.64-7.76 24.01Z" fill="#000000" opacity="1" data-original="#000000"></path><path d="M64 12a31 31 0 1 0 6.72 61.27 2 2 0 1 0-.86-3.91A27 27 0 1 1 91 43a26.78 26.78 0 0 1-8.18 19.35 2 2 0 1 0 2.79 2.87A31 31 0 0 0 64 12Z" fill="#000000" opacity="1" data-original="#000000"></path><circle cx="78" cy="69" r="2" fill="#000000" opacity="1" data-original="#000000"></circle><path d="M75.58 25a7.47 7.47 0 0 0-7.42 7.5 7.61 7.61 0 0 0 0 .79 6.33 6.33 0 0 0-.89-.12h-.46a3.94 3.94 0 0 0-.83.09l-7 1.51a6 6 0 0 0-4.71 4.61 4.89 4.89 0 0 0-1.53.51 4 4 0 0 0-.75.52l-6.24 5.45a6 6 0 0 0-2.53 3.35 6.08 6.08 0 0 0 .6 4.73 5.84 5.84 0 0 0 5.11 3 6.55 6.55 0 0 0 3-.78 4 4 0 0 0 1-.75l.8 1.15c.55.84 3.15 4.43 7.55 4.43a9.07 9.07 0 0 0 6-2.43 7.12 7.12 0 0 0 1.27-1.37l6.7-9.55a8 8 0 0 0 .92-1.64 9.07 9.07 0 0 0 .22-6 7.5 7.5 0 0 0-.81-15Zm-3.16 19.63a4.08 4.08 0 0 1-.4.74l-6.72 9.58a3.71 3.71 0 0 1-.58.6A5.16 5.16 0 0 1 61.35 57c-2.6 0-4.22-2.65-4.22-2.65l-3.67-5.29-3.32 3.56a2.61 2.61 0 0 1-1.2.33 1.84 1.84 0 0 1-1.63-1 2 2 0 0 1 .82-2.87l6.5-5.68a.88.88 0 0 1 1.16.31l2.93 3.22a.55.55 0 0 0 .47.31.6.6 0 0 0 .47-.27l3.27-4.7-2.33.5a2.33 2.33 0 0 1-.49.05 2 2 0 0 1-2-1.66 2.15 2.15 0 0 1 1.69-2.5l7-1.51h.2a3.13 3.13 0 0 1 1.37.38l2.23 1.34a4.44 4.44 0 0 1 1.82 5.76ZM75.58 36A3.5 3.5 0 1 1 79 32.5a3.46 3.46 0 0 1-3.42 3.5Z" fill="#000000" opacity="1" data-original="#000000"></path></g></svg>