<svg xmlns="http://www.w3.org/2000/svg" version="1.1" xmlns:xlink="http://www.w3.org/1999/xlink" width="512" height="512" x="0" y="0" viewBox="0 0 512.711 512.711" style="enable-background:new 0 0 512 512" xml:space="preserve" class=""><g><path fill="#fdb4ba" d="M360.434 44.018 207.944 217.12 44.018 360.434c-17.176-17.176-17.176-45.024 0-62.2L298.234 44.018c17.176-17.176 45.024-17.176 62.2 0zM468.692 152.277l-181.623 161.01-134.792 155.405c17.176 17.176 45.024 17.176 62.2 0l254.216-254.216c17.175-17.175 17.175-45.023-.001-62.199z" opacity="1" data-original="#fdb4ba" class=""></path><path fill="#fe646f" d="M504.503 116.466 116.466 504.503c-10.943 10.943-28.685 10.943-39.629 0l-68.63-68.63c-10.943-10.943-10.943-28.685 0-39.629L396.245 8.207c10.943-10.943 28.685-10.943 39.629 0l68.63 68.63c10.942 10.943 10.942 28.686-.001 39.629z" opacity="1" data-original="#fe646f" class=""></path><path fill="#fd4755" d="m391.909 12.543-1.705 1.705 35.621 35.621c25.837 25.837 25.837 67.727 0 93.564L70.796 498.462l1.705 1.705c13.338 13.338 34.963 13.338 48.3 0l379.366-379.366c13.338-13.338 13.338-34.963 0-48.3l-59.958-59.958c-13.338-13.338-34.962-13.338-48.3 0z" opacity="1" data-original="#fd4755"></path><g fill="#f3f0f3"><path d="M180.168 293.981a7.73 7.73 0 1 0-10.93 10.931l30.819 30.818c.884.884 1.265 2.129.919 3.227-.714 2.265-3.231 2.959-5.748 3.047-3.37.118-6.131 2.699-6.313 6.067l-.026.476c-.2 3.709 2.712 6.902 6.427 6.922 8.002.042 17.449-2.277 20.523-12.261 1.99-6.464.001-13.556-4.851-18.409zM172.145 367.843l-10.633 10.634-8.173-8.173 9.447-9.446a7.73 7.73 0 1 0-10.93-10.931l-9.447 9.447-8.174-8.173 10.634-10.633a7.73 7.73 0 0 0-10.93-10.932l-16.1 16.099a7.73 7.73 0 0 0 0 10.932l19.099 19.099.005.005a.012.012 0 0 1 .005.005l19.099 19.1c1.51 1.509 3.488 2.264 5.466 2.264s3.956-.755 5.466-2.264l16.099-16.099a7.73 7.73 0 0 0 0-10.931 7.728 7.728 0 0 0-10.933-.003zM248.967 291.021l-10.633 10.634-8.174-8.173 9.447-9.447a7.73 7.73 0 1 0-10.93-10.931l-9.447 9.447-8.174-8.173 10.634-10.634a7.73 7.73 0 0 0-10.932-10.931l-16.099 16.099a7.73 7.73 0 0 0 0 10.932l38.209 38.209a7.73 7.73 0 0 0 10.932 0l16.099-16.1a7.73 7.73 0 0 0-.001-10.931 7.727 7.727 0 0 0-10.931-.001zM378.938 161.049l-10.633 10.634-8.172-8.172 9.447-9.447a7.73 7.73 0 0 0-.001-10.931 7.73 7.73 0 0 0-10.931 0l-9.446 9.447-8.173-8.173 10.634-10.634a7.73 7.73 0 0 0-10.932-10.931l-16.099 16.099a7.73 7.73 0 0 0 0 10.931l38.208 38.208c1.51 1.509 3.488 2.264 5.466 2.264s3.956-.755 5.466-2.264l16.099-16.099a7.73 7.73 0 0 0-10.933-10.932zM420.632 92.08h-.001c-14.459-14.46-32.444-15.906-44.751-3.599l-10.599 10.598a7.73 7.73 0 0 0 .033 10.964l.006.007 36.773 36.773c.343.343.712.641 1.098.906a7.722 7.722 0 0 0 5.053 1.891h.029a7.733 7.733 0 0 0 5.458-2.285c.319-.322 7.85-7.913 10.823-10.99 11.483-11.894 9.833-30.51-3.922-44.265zm-7.199 33.523a838.672 838.672 0 0 1-5.238 5.343 7212.315 7212.315 0 0 1-13.287-13.226c-2.538-2.538-8.666-8.646-13.22-13.186l5.123-5.123c8.949-8.95 19.783.492 22.889 3.599 6.47 6.471 10.133 15.966 3.733 22.593zM300.879 231.128a7.73 7.73 0 0 0-7.021 8.379c.06.693.072 1.383.033 2.053-.199 3.444-1.715 6.604-4.502 9.392-7.617 7.617-20.012 7.618-27.629 0-3.691-3.69-5.723-8.596-5.723-13.815s2.032-10.124 5.723-13.815a19.414 19.414 0 0 1 10.075-5.363 7.73 7.73 0 0 0 6.12-9.058 7.726 7.726 0 0 0-9.057-6.12 34.818 34.818 0 0 0-18.069 9.61c-6.61 6.609-10.251 15.398-10.251 24.746 0 9.347 3.64 18.136 10.251 24.746 6.822 6.822 15.783 10.233 24.745 10.233s17.924-3.411 24.747-10.233c5.471-5.471 8.584-12.189 9.004-19.427a29.686 29.686 0 0 0-.067-4.307 7.734 7.734 0 0 0-8.379-7.021zM308.183 176.899l5.225-5.225a7.73 7.73 0 0 0-10.932-10.931l-21.296 21.295a7.73 7.73 0 0 0 10.932 10.931l5.138-5.138 33.095 33.094c1.51 1.509 3.488 2.264 5.466 2.264s3.956-.755 5.466-2.264a7.73 7.73 0 0 0 0-10.931zM138.165 405.884l-19.575-1.248a22.955 22.955 0 0 0 2.213-9.106c.189-6.087-2.014-11.747-6.203-15.936h-.001c-8.54-8.54-22.69-8.284-31.54.567l-10.248 10.248-.001.001-.012.011a7.73 7.73 0 0 0 0 10.931l38.56 38.56c1.51 1.509 3.488 2.264 5.466 2.264s3.956-.755 5.466-2.264a7.73 7.73 0 0 0 0-10.931l-9.205-9.205 24.094 1.536a7.73 7.73 0 0 0 8.205-7.222 7.725 7.725 0 0 0-7.219-8.206zM93.99 391.092c2.777-2.777 7.208-3.036 9.679-.567 1.538 1.538 1.714 3.494 1.682 4.523-.059 1.906-.88 3.785-2.25 5.156a1539.115 1539.115 0 0 0-4.724 4.755 1556.178 1556.178 0 0 1-4.586-4.555c-.923-.923-2.732-2.724-4.564-4.547z" fill="#f3f0f3" opacity="1" data-original="#f3f0f3" class=""></path></g></g></svg>
