<svg xmlns="http://www.w3.org/2000/svg" version="1.1" xmlns:xlink="http://www.w3.org/1999/xlink" width="512" height="512" x="0" y="0" viewBox="0 0 512 512" style="enable-background:new 0 0 512 512" xml:space="preserve" class=""><g><path fill="#ff4949" d="M456.828 0H338.355c-26.007 0-60.789 14.406-79.175 32.797L16.11 275.863C5.718 286.25 0 300.102 0 314.871c0 14.77 5.723 28.621 16.11 39.008L158.116 495.89C168.504 506.277 182.36 512 197.125 512c14.77 0 28.621-5.723 39.012-16.11l243.066-243.07C497.593 234.434 512 199.652 512 173.645V55.165C511.996 24.745 487.246 0 456.828 0zm-28.754 106c-2.789 2.8-6.66 4.398-10.61 4.398a15.07 15.07 0 0 1-10.6-4.398 15.054 15.054 0 0 1-4.4-10.602c0-3.953 1.602-7.82 4.4-10.609 2.78-2.789 6.652-4.39 10.6-4.39 3.95 0 7.821 1.601 10.61 4.39 2.79 2.79 4.39 6.66 4.39 10.61 0 3.949-1.6 7.812-4.39 10.601zm0 0" opacity="1" data-original="#ff4949" class=""></path><path fill="#ff2323" d="M428.074 84.79c2.79 2.788 4.39 6.66 4.39 10.608 0 3.95-1.6 7.813-4.39 10.602-2.789 2.8-6.66 4.398-10.61 4.398a15.07 15.07 0 0 1-10.6-4.398L87.553 425.324l70.563 70.567c10.387 10.386 24.242 16.105 39.008 16.109 14.77 0 28.621-5.723 39.012-16.113L479.203 252.82C497.593 234.43 512 199.652 512 173.645V55.165c-.004-14.99-6.023-28.595-15.758-38.548zm0 0" opacity="1" data-original="#ff2323" class=""></path><g fill="#fef4f5"><path d="M139.309 331.492c-5.454-5.449-4.09-13.402 4.086-21.586 9.546-9.543 16.476-7.84 20-11.36 4.09-4.089.68-11.136-1.934-13.745-7.5-7.5-23.973 5.793-30.676 12.496-13.066 13.066-21.812 33.402-4.887 50.332 26.926 26.926 58.172-14.77 75.215 2.273 6.817 6.817 3.977 15.79-2.843 22.61-11.586 11.586-23.403 5.906-28.063 10.562-3.52 3.524-1.703 11.25 1.477 14.434 6.59 6.59 25.453 2.726 40.336-12.16 15.68-15.676 18.632-35.45 2.386-51.696-29.426-29.425-61.011 11.934-75.097-2.16zM298.137 282.645l-93.395-49.536c-4.43-2.386-10.222.227-14.539 4.547-4.203 4.2-6.82 9.996-4.433 14.43l49.535 93.39c.34.567.683 1.133.91 1.364 3.637 3.633 11.476.793 15.45-3.184 2.5-2.496 3.64-5.226 2.05-7.953l-10.797-19.426 26.02-26.02 19.425 10.798c2.73 1.586 5.453.453 7.953-2.047 3.977-3.977 6.704-11.934 3.18-15.453-.336-.34-.793-.57-1.36-.91zm-63.739 18.976-24.996-44.77 44.766 25zM343.008 226.41l-27.723 27.723-65.555-65.559c-3.183-3.18-8.292-.793-11.93 2.84-3.75 3.75-6.023 8.75-2.843 11.934l73.852 73.851c3.066 3.067 7.84 1.477 11.136-1.82l36.016-36.016c2.953-2.953 1.133-7.726-2.047-10.906-3.293-3.297-7.95-5.004-10.906-2.047zM413.676 168.926c-3.524-3.524-8.297-4.887-11.25-1.934l-32.153 32.153-22.836-22.836 17.27-17.27c3.18-3.18 1.59-7.726-1.023-10.34-3.067-3.066-7.614-4.199-10.567-1.246l-17.27 17.266-22.722-22.723 32.152-32.148c2.953-2.957 1.59-7.727-1.93-11.25-3.07-3.067-7.84-4.887-11.023-1.707L291.88 137.34c-3.297 3.293-4.887 8.066-1.817 11.133l73.735 73.734c3.07 3.07 7.84 1.48 11.137-1.816l40.445-40.446c3.18-3.18 1.363-7.953-1.703-11.02zm0 0" fill="#fef4f5" opacity="1" data-original="#fef4f5"></path></g><path fill="#d5eded" d="M201.113 349.902c6.817 6.817 3.977 15.79-2.84 22.61-11.59 11.586-23.406 5.906-28.062 10.562-3.524 3.524-1.703 11.25 1.476 14.434 6.59 6.59 25.45 2.726 40.333-12.16 15.68-15.676 18.632-35.45 2.386-51.696-8.09-8.09-16.344-10.82-24.351-10.836l-32.817 32.82c17.149-4.19 33.266-16.343 43.875-5.734zM254.164 281.852l-19.766 19.77-8.293-14.856-14.335 14.336 23.535 44.375c.34.566.683 1.132.91 1.363 3.637 3.633 11.476.793 15.45-3.184 2.5-2.496 3.64-5.226 2.05-7.953l-10.797-19.43 26.02-26.015 19.425 10.793c2.73 1.59 5.453.457 7.953-2.047 3.977-3.977 6.704-11.93 3.18-15.45-.34-.34-.793-.57-1.36-.91l-44.374-23.539-14.45 14.45zM308.813 277.195c3.066 3.07 7.84 1.48 11.132-1.816l36.016-36.02c2.953-2.949 1.137-7.722-2.043-10.902-3.297-3.297-7.953-5.004-10.91-2.047l-27.723 27.723-28.273-28.274-14.77 14.77zM402.426 166.992l-32.153 32.153-22.836-22.836 17.27-17.27c3.082-3.086 1.68-7.445-.793-10.09l-36.687 36.688 36.57 36.57c3.066 3.07 7.84 1.48 11.137-1.816l40.441-40.446c3.184-3.18 1.363-7.953-1.7-11.02-3.523-3.523-8.296-4.886-11.25-1.933zm0 0" opacity="1" data-original="#d5eded"></path></g></svg>