<svg xmlns="http://www.w3.org/2000/svg" version="1.1" xmlns:xlink="http://www.w3.org/1999/xlink" width="512" height="512" x="0" y="0" viewBox="0 0 512.001 512.001" style="enable-background:new 0 0 512 512" xml:space="preserve" class=""><g><path d="M199.975 324.173V448l93.393-92.256z" style="" fill="#ec5a32" data-original="#ec5a32"></path><path d="m10.001 259.788 235.08 79.672 256.92 87.073V10z" style="" fill="#fea02c" data-original="#fea02c" class=""></path><path d="m199.975 324.173 45.106 15.287 256.92 87.073V10z" style="" fill="#ffc66c" data-original="#ffc66c" class=""></path><path d="M507.232 1.478a10.001 10.001 0 0 0-9.758-.395l-492 249.788a10.002 10.002 0 0 0 1.317 18.388l183.217 62.094c-.014.215-.033.428-.033.647v116a10 10 0 0 0 17.028 7.114l88.941-87.858 202.847 68.748A9.997 9.997 0 0 0 512 426.533V10a9.994 9.994 0 0 0-4.768-8.522zM467.109 38.93 194.945 311.909 35.72 257.945 467.109 38.93zM209.975 424.066v-85.945l64.779 21.954-64.779 63.991zm248.026-23.004V294.987c0-5.522-4.477-10-10-10s-10 4.478-10 10v99.296l-221.947-75.221L492.001 42.29v370.296l-34-11.524z" fill="#000000" opacity="1" data-original="#000000" class=""></path><path d="M448.001 246c-2.63 0-5.21 1.069-7.07 2.93a10.076 10.076 0 0 0-2.93 7.07c0 2.63 1.07 5.21 2.93 7.069 1.86 1.86 4.44 2.931 7.07 2.931s5.21-1.07 7.07-2.931a10.072 10.072 0 0 0 2.93-7.069c0-2.63-1.07-5.21-2.93-7.07s-4.44-2.93-7.07-2.93zM125.263 372.596l-74.167 74.167c-3.905 3.905-3.905 10.237 0 14.143 1.953 1.952 4.512 2.929 7.071 2.929s5.119-.977 7.071-2.929l74.167-74.167c3.905-3.905 3.905-10.237 0-14.143-3.905-3.904-10.237-3.904-14.142 0zM33.501 468.5c-2.63 0-5.21 1.069-7.07 2.93-1.86 1.86-2.93 4.44-2.93 7.07s1.07 5.21 2.93 7.069a10.077 10.077 0 0 0 7.07 2.931c2.63 0 5.21-1.07 7.07-2.931 1.86-1.859 2.93-4.439 2.93-7.069s-1.07-5.21-2.93-7.07-4.44-2.93-7.07-2.93zM331.425 422.435l-72.494 72.494c-3.905 3.905-3.906 10.237 0 14.143a9.972 9.972 0 0 0 7.071 2.929 9.97 9.97 0 0 0 7.071-2.929l72.495-72.494c3.905-3.905 3.905-10.237 0-14.143-3.907-3.904-10.238-3.905-14.143 0z" fill="#000000" opacity="1" data-original="#000000" class=""></path></g></svg>