<svg xmlns="http://www.w3.org/2000/svg" version="1.1" xmlns:xlink="http://www.w3.org/1999/xlink" width="512" height="512" x="0" y="0" viewBox="0 0 512 512" style="enable-background:new 0 0 512 512" xml:space="preserve" class=""><g><path fill="#ffd500" d="M384.26 235.672a7.704 7.704 0 0 1-5.705-2.514L264.72 108.613a7.726 7.726 0 1 1 11.406-10.424l113.835 124.545a7.726 7.726 0 0 1-5.701 12.938zM123.285 240.547a7.726 7.726 0 0 1-5.701-12.938l118.29-129.42a7.726 7.726 0 1 1 11.406 10.424l-118.29 129.42a7.704 7.704 0 0 1-5.705 2.514z" opacity="1" data-original="#ffd500"></path><path fill="#dbedff" d="M269.004 71.246h-8.111l-8.499 13.744v19.573l5.924 9.787 10.686 1.936c7.772-4.497 13.004-12.895 13.004-22.52 0-9.626-5.232-18.023-13.004-22.52z" opacity="1" data-original="#dbedff" class=""></path><path fill="#b5dcff" d="M256 93.766c0-9.625 5.233-18.023 13.004-22.52A25.87 25.87 0 0 0 256 67.758c-14.364 0-26.008 11.644-26.008 26.008s11.644 26.008 26.008 26.008a25.88 25.88 0 0 0 13.004-3.488C261.233 111.788 256 103.39 256 93.766z" opacity="1" data-original="#b5dcff"></path><path fill="#f27182" d="M481.973 221.158H73.931l-14.18 7.027-8.241 12.362v178.994l13.907 22.149 7.618 2.553h408.938c16.583 0 30.027-13.443 30.027-30.027V251.184c0-16.583-13.443-30.026-30.027-30.026z" opacity="1" data-original="#f27182" class=""></path><path fill="#ed5469" d="M55.367 414.216V251.184c0-16.583 13.444-30.027 30.027-30.027H30.027C13.444 221.158 0 234.601 0 251.184v163.032c0 16.583 13.444 30.027 30.027 30.027h55.367c-16.584 0-30.027-13.443-30.027-30.027z" opacity="1" data-original="#ed5469"></path><g fill="#dbedff"><path d="M475.88 354.588h-15.451v-14.162h14.163a7.726 7.726 0 1 0 0-15.452h-14.163V310.81h15.451a7.726 7.726 0 1 0 0-15.452h-23.177a7.726 7.726 0 0 0-7.726 7.726v59.23a7.725 7.725 0 0 0 7.726 7.726h23.177a7.726 7.726 0 1 0 0-15.452zM180.502 295.358c-20.59 0-37.341 16.751-37.341 37.342 0 20.59 16.751 37.341 37.341 37.341s37.341-16.751 37.341-37.341c0-20.591-16.751-37.342-37.341-37.342zm0 59.23c-12.069 0-21.889-9.819-21.889-21.888s9.819-21.889 21.889-21.889c12.069 0 21.889 9.82 21.889 21.889-.001 12.069-9.82 21.888-21.889 21.888zM128.504 295.358a7.726 7.726 0 0 0-7.726 7.726v21.889h-17.517v-21.889a7.726 7.726 0 1 0-15.452 0v59.23a7.726 7.726 0 1 0 15.452 0v-21.888h17.517v21.888a7.726 7.726 0 1 0 15.452 0v-59.23a7.726 7.726 0 0 0-7.726-7.726zM271.902 317.892c0-12.426-10.109-22.534-22.534-22.534h-17.661a7.726 7.726 0 0 0-7.726 7.726v59.23a7.726 7.726 0 1 0 15.452 0v-18.672l18.046 23.391a7.713 7.713 0 0 0 6.123 3.007 7.726 7.726 0 0 0 6.112-12.446l-13.961-18.096c9.325-2.76 16.149-11.399 16.149-21.606zm-22.533 7.081h-9.935V310.81h9.935c3.904 0 7.081 3.177 7.081 7.081s-3.177 7.082-7.081 7.082zM359.228 300.346a7.727 7.727 0 0 0-14.45 0l-22.448 59.23a7.727 7.727 0 0 0 14.45 5.477l3.662-9.662h23.122l3.662 9.662a7.721 7.721 0 0 0 9.963 4.487 7.728 7.728 0 0 0 4.486-9.964zm-12.93 39.592 5.705-15.052 5.704 15.052zM61.246 325.462c-10.759-2.834-14.273-7.016-14.273-8.138 0-2.564 3.228-6.141 8.485-6.141 5.797 0 10.657 4.747 10.819 4.908a7.725 7.725 0 0 0 10.886.166 7.726 7.726 0 0 0 .206-10.925c-.946-.983-9.602-9.603-21.911-9.603-13.2 0-23.938 9.687-23.938 21.594 0 10.35 9.399 18.763 25.788 23.081 7.797 2.054 7.797 4.783 7.797 7.423 0 1.777-1.885 6.386-10.495 6.386-5.573 0-9.095-2.512-11.069-4.62a7.728 7.728 0 0 0-11.279 10.564c3.326 3.551 10.652 9.509 22.348 9.509 16.854 0 25.948-11.251 25.948-21.839 0-11.463-6.497-18.987-19.312-22.365zM327.677 303.084a7.725 7.725 0 0 0-7.726-7.726h-37.488a7.726 7.726 0 1 0 0 15.452h11.018v51.504a7.726 7.726 0 1 0 15.452 0V310.81h11.018a7.725 7.725 0 0 0 7.726-7.726zM427.157 329.753h-10.306a7.726 7.726 0 1 0 0 15.452h2.579v.253c0 5.034-4.096 9.13-9.13 9.13-5.035 0-9.13-4.096-9.13-9.13V319.94c0-5.034 4.096-9.13 9.13-9.13 4.116 0 7.741 2.769 8.814 6.733a7.727 7.727 0 0 0 14.916-4.038c-2.893-10.685-12.651-18.148-23.73-18.148-13.555 0-24.583 11.027-24.583 24.582v25.518c0 13.554 11.028 24.582 24.583 24.582s24.582-11.028 24.582-24.582v-7.979a7.724 7.724 0 0 0-7.725-7.725z" fill="#dbedff" opacity="1" data-original="#dbedff" class=""></path></g></g></svg>