<svg xmlns="http://www.w3.org/2000/svg" version="1.1" xmlns:xlink="http://www.w3.org/1999/xlink" width="512" height="512" x="0" y="0" viewBox="0 0 64 64" style="enable-background:new 0 0 512 512" xml:space="preserve" class=""><g><path d="M11.975 5.986h2v2h-2z" fill="#000000" opacity="1" data-original="#000000" class=""></path><path d="m36.975.876-23 11.04v-1.93h-2v17h2.196l-3.515 5.623c-.294.472-1.068.472-1.363 0l-3.514-5.622h2.196v-21h-2v19H2.171l5 8H.975v30h60v-44h2v-5.629zm-28 34.109h2v2h-2zm8 26h-14v-12h4v4h6v-4h4zm-8-10v-2h2v2zm8-4h-14v-12h4v4h6v-4h4zm16 14h-14v-12h4v4h6v-4h4zm-8-10v-2h2v2zm14-13v23h-4v-14h-10v-10h4v4h6v-4h4zm-8 1v-2h2v2zm8-4h-14v-10h4v4h6v-4h4zm-8-7.999v-2h2v2zm24 33.999h-14v-10h4v4h6v-4h4zm-8-8v-2h2v2zm8-4h-14v-10h4v4h6v-4h4zm-8-8v-2h2v2zm8-4h-14v-10h4v4h6v-4h4zm-8-7.999v-2h2v2zm12 31.999h-2v-36h-16v-2h-18v24h-4v-14H12.78l5-8h-3.804v-6h45v42zm2-43.999h-47v-2.851l23-11.04 24 11.52z" fill="#000000" opacity="1" data-original="#000000" class=""></path></g></svg>