<svg xmlns="http://www.w3.org/2000/svg" version="1.1" xmlns:xlink="http://www.w3.org/1999/xlink" width="512" height="512" x="0" y="0" viewBox="0 0 48 48" style="enable-background:new 0 0 512 512" xml:space="preserve" class=""><g><linearGradient id="a" x1="24" x2="24" y1="41.994" y2="6.007" gradientUnits="userSpaceOnUse"><stop offset="0" stop-color="#0064e1"></stop><stop offset=".994" stop-color="#26b7ff"></stop></linearGradient><path fill="url(#a)" d="M41.92 29.06c-.15.52-.48.94-.95 1.21l-3.22 1.8v3.68c0 1.1-.9 2-2 2h-3.69l-1.79 3.22c-.27.47-.69.8-1.21.95-.51.14-1.05.08-1.52-.18L24 39.76l-3.54 1.98c-.31.17-.64.25-.98.25-.18 0-.36-.02-.54-.07-.52-.15-.94-.48-1.21-.95l-1.79-3.22h-3.69c-1.1 0-2-.9-2-2v-3.68l-3.22-1.8c-.47-.27-.8-.69-.95-1.21-.14-.51-.08-1.05.18-1.52L8.24 24l-1.98-3.54c-.54-.97-.19-2.19.77-2.73l3.22-1.8v-3.68c0-1.1.9-2 2-2h3.69l1.79-3.22c.27-.47.69-.8 1.21-.95.51-.14 1.05-.08 1.52.18L24 8.24l3.54-1.98c.47-.26 1.01-.32 1.52-.18.52.15.94.48 1.21.95l1.79 3.22h3.69c1.1 0 2 .9 2 2v3.68l3.22 1.8c.96.54 1.31 1.76.77 2.73L39.76 24l1.98 3.54c.26.47.32 1.01.18 1.52z" opacity="1" data-original="url(#a)" class=""></path><path fill="#ffffff" d="M22 30a.997.997 0 0 1-.707-.293l-5-5a1 1 0 1 1 1.414-1.414L22 27.586l9.293-9.293a1 1 0 1 1 1.414 1.414l-10 10A.997.997 0 0 1 22 30z" opacity="1" data-original="#ffffff"></path></g></svg>