<svg xmlns="http://www.w3.org/2000/svg" version="1.1" xmlns:xlink="http://www.w3.org/1999/xlink" width="512" height="512" x="0" y="0" viewBox="0 0 64 64" style="enable-background:new 0 0 512 512" xml:space="preserve" class=""><g><path fill="#25d366" stroke="#fff" stroke-miterlimit="10" stroke-width="5" d="m5 59 12-3.3c4.3 2.7 9.5 4.3 15 4.3 15.5 0 28-12.5 28-28S47.5 4 32 4 4 16.5 4 32c0 5.5 1.6 10.7 4.3 15z" opacity="1" data-original="#25d366" class=""></path><path fill="#ffffff" d="M45.9 39.6c-1.9 4-5.4 4.5-5.4 4.5-3 .6-6.8-.7-9.8-2.1-4.3-2-8-5.2-10.5-9.3-1.1-1.9-2.1-4.1-2.2-6.2 0 0-.4-3.5 3-6.3.3-.2.6-.3 1-.3h1.5c.6 0 1.2.4 1.4 1l2.3 5.6c.2.6.1 1.2-.3 1.7l-1.5 1.6c-.5.5-.5 1.2-.2 1.8.1.2.3.5.6.8 1.8 2.4 4.2 4.2 6.9 5.4.4.2.7.3 1 .4.7.2 1.3-.1 1.7-.6l1.2-1.8c.3-.5.9-.8 1.5-.7l6 .9c.6.1 1.1.6 1.3 1.2l.4 1.5c.2.2.2.6.1.9z" opacity="1" data-original="#ffffff"></path></g></svg>