<svg xmlns="http://www.w3.org/2000/svg" version="1.1" xmlns:xlink="http://www.w3.org/1999/xlink" width="512" height="512" x="0" y="0" viewBox="0 0 512 512" style="enable-background:new 0 0 512 512" xml:space="preserve" class=""><g><path fill="#cee0ea" d="M256.35 172.831c-4.265 0-7.723-5.004-7.723-11.178v-52.812c0-6.174 3.458-11.178 7.723-11.178 4.266 0 7.723 5.004 7.723 11.178v52.812c.001 6.174-3.457 11.178-7.723 11.178zM185.213 221.714a7.685 7.685 0 0 1-3.698-.948l-86.783-47.454a7.723 7.723 0 1 1 7.411-13.552l86.783 47.454a7.723 7.723 0 0 1-3.713 14.5zM104.911 348.822a7.724 7.724 0 0 1-3.713-14.501l73.85-40.382a7.724 7.724 0 1 1 7.411 13.552l-73.85 40.382a7.678 7.678 0 0 1-3.698.949zM256.35 419.628c-4.265 0-7.723-5.819-7.723-12.999v-61.415c0-7.18 3.458-12.999 7.723-12.999 4.266 0 7.723 5.819 7.723 12.999v61.415c.001 7.18-3.457 12.999-7.723 12.999zM409.767 349.903a7.685 7.685 0 0 1-3.698-.948l-77.806-42.545a7.723 7.723 0 0 1-3.071-10.482 7.722 7.722 0 0 1 10.482-3.07l77.806 42.545a7.723 7.723 0 0 1-3.713 14.5zM332.275 219.096a7.724 7.724 0 0 1-3.713-14.501l77.207-42.218a7.724 7.724 0 1 1 7.411 13.552l-77.207 42.218a7.667 7.667 0 0 1-3.698.949z" opacity="1" data-original="#cee0ea"></path><path fill="#7a6d79" d="M65.271 289.296c-14.792 0-26.827-12.035-26.827-26.827v-12.352c0-14.792 12.035-26.827 26.827-26.827 14.793 0 26.827 12.035 26.827 26.827v12.352c0 14.793-12.034 26.827-26.827 26.827zm0-50.559c-6.275 0-11.38 5.105-11.38 11.38v12.352c0 6.275 5.105 11.38 11.38 11.38s11.381-5.105 11.381-11.38v-12.352c-.001-6.275-5.106-11.38-11.381-11.38z" opacity="1" data-original="#7a6d79" class=""></path><path fill="#918291" d="M65.271 250.619a7.723 7.723 0 0 1-7.723-7.723V186.72a7.723 7.723 0 1 1 15.446 0v56.175a7.724 7.724 0 0 1-7.723 7.724zM65.271 331.516a7.723 7.723 0 0 1-7.723-7.723v-54.101a7.723 7.723 0 1 1 15.446 0v54.101a7.723 7.723 0 0 1-7.723 7.723z" opacity="1" data-original="#918291" class=""></path><path fill="#7a6d79" d="M447.429 289.296c-14.793 0-26.827-12.035-26.827-26.827v-12.352c0-14.792 12.035-26.827 26.827-26.827s26.827 12.035 26.827 26.827v12.352c0 14.793-12.035 26.827-26.827 26.827zm0-50.559c-6.275 0-11.381 5.105-11.381 11.38v12.352c0 6.275 5.105 11.38 11.381 11.38 6.275 0 11.38-5.105 11.38-11.38v-12.352c0-6.275-5.105-11.38-11.38-11.38z" opacity="1" data-original="#7a6d79" class=""></path><path fill="#918291" d="M447.429 250.619a7.722 7.722 0 0 1-7.723-7.723v-58.629a7.723 7.723 0 1 1 15.446 0v58.629a7.722 7.722 0 0 1-7.723 7.723zM447.429 332.217a7.722 7.722 0 0 1-7.723-7.723v-54.802a7.723 7.723 0 1 1 15.446 0v54.802a7.722 7.722 0 0 1-7.723 7.723z" opacity="1" data-original="#918291" class=""></path><path fill="#7a6d79" d="M171.644 430.367a26.664 26.664 0 0 1-13.367-3.588l-10.698-6.176c-6.206-3.583-10.645-9.369-12.5-16.29-1.854-6.922-.903-14.152 2.681-20.358 3.583-6.206 9.368-10.645 16.29-12.499 6.921-1.855 14.152-.903 20.357 2.68l10.697 6.176c12.811 7.397 17.215 23.836 9.819 36.647-4.963 8.596-14.001 13.408-23.279 13.408zm-10.633-44.383c-.989 0-1.984.13-2.964.392-2.937.787-5.39 2.67-6.91 5.303s-1.924 5.7-1.137 8.636a11.304 11.304 0 0 0 5.302 6.911L166 413.401c5.435 3.138 12.408 1.268 15.546-4.165 3.137-5.435 1.269-12.409-4.166-15.546l-10.697-6.176a11.308 11.308 0 0 0-5.672-1.53zm27.224 27.113h.01z" opacity="1" data-original="#7a6d79" class=""></path><path fill="#918291" d="M154.732 401.483a7.695 7.695 0 0 1-3.855-1.036l-51.414-29.684a7.723 7.723 0 1 1 7.723-13.377L158.6 387.07a7.723 7.723 0 0 1-3.868 14.413zM221.221 439.87a7.695 7.695 0 0 1-3.855-1.036l-43.283-24.99a7.723 7.723 0 0 1-2.827-10.55 7.722 7.722 0 0 1 10.55-2.827l43.283 24.99a7.723 7.723 0 0 1-3.868 14.413z" opacity="1" data-original="#918291" class=""></path><path fill="#7a6d79" d="M341.056 430.367c-9.279 0-18.315-4.811-23.279-13.407-7.396-12.811-2.991-29.251 9.819-36.647l10.698-6.176c6.207-3.582 13.438-4.534 20.357-2.68 6.922 1.854 12.707 6.293 16.29 12.499s4.535 13.436 2.681 20.358c-1.855 6.921-6.294 12.706-12.5 16.29l-10.697 6.176a26.686 26.686 0 0 1-13.369 3.587zm-9.902-21.131c3.138 5.433 10.11 7.302 15.546 4.165l10.697-6.176a11.3 11.3 0 0 0 5.302-6.911c.787-2.935.383-6.003-1.137-8.636s-3.974-4.515-6.91-5.303a11.306 11.306 0 0 0-8.636 1.137l-10.697 6.176c-5.433 3.139-7.302 10.113-4.165 15.548z" opacity="1" data-original="#7a6d79" class=""></path><path fill="#918291" d="M357.969 401.483a7.723 7.723 0 0 1-3.869-14.413l47.841-27.621a7.724 7.724 0 0 1 7.723 13.377l-47.841 27.621a7.688 7.688 0 0 1-3.854 1.036zM295.472 437.565a7.723 7.723 0 0 1-3.869-14.413l39.291-22.685a7.724 7.724 0 0 1 7.723 13.377l-39.292 22.685a7.682 7.682 0 0 1-3.853 1.036z" opacity="1" data-original="#918291" class=""></path><path fill="#7a6d79" d="M161.037 142.056c-2.331 0-4.676-.307-6.987-.926-6.922-1.854-12.707-6.293-16.29-12.499s-4.535-13.436-2.681-20.357c1.855-6.921 6.294-12.706 12.5-16.29l10.697-6.176c12.812-7.397 29.25-2.991 36.647 9.819 7.396 12.811 2.991 29.251-9.819 36.647l-10.698 6.176c-4.133 2.386-8.721 3.606-13.369 3.606zm10.633-44.393c-1.929 0-3.883.49-5.671 1.522l-10.697 6.176a11.3 11.3 0 0 0-5.302 6.911c-.787 2.936-.383 6.003 1.137 8.636s3.974 4.515 6.91 5.303c2.934.786 6.002.382 8.636-1.137l10.697-6.176c5.434-3.138 7.303-10.112 4.165-15.546-2.105-3.647-5.939-5.689-9.875-5.689z" opacity="1" data-original="#7a6d79" class=""></path><path fill="#918291" d="M97.045 159.865a7.723 7.723 0 0 1-3.869-14.413l57.701-33.313a7.723 7.723 0 1 1 7.723 13.377l-57.7 33.313a7.692 7.692 0 0 1-3.855 1.036zM177.951 113.155a7.723 7.723 0 0 1-3.869-14.413l48.589-28.053a7.724 7.724 0 0 1 7.723 13.377l-48.589 28.053a7.683 7.683 0 0 1-3.854 1.036z" opacity="1" data-original="#918291" class=""></path><path fill="#7a6d79" d="M351.664 142.056c-4.649 0-9.236-1.22-13.37-3.606l-10.697-6.176c-12.811-7.397-17.215-23.836-9.819-36.647 7.398-12.808 23.836-17.213 36.646-9.819l10.698 6.176c6.206 3.583 10.645 9.369 12.5 16.29 1.854 6.922.903 14.152-2.681 20.357-3.583 6.206-9.368 10.645-16.29 12.499a26.995 26.995 0 0 1-6.987.926zm-20.51-38.706c-3.137 5.435-1.269 12.409 4.166 15.546l10.697 6.176a11.298 11.298 0 0 0 8.636 1.137c2.937-.787 5.39-2.67 6.91-5.303s1.924-5.7 1.137-8.636a11.304 11.304 0 0 0-5.302-6.911L346.7 99.185c-5.434-3.138-12.408-1.267-15.546 4.165z" opacity="1" data-original="#7a6d79" class=""></path><path fill="#918291" d="M408.757 155.883a7.695 7.695 0 0 1-3.855-1.036L354.1 125.516a7.723 7.723 0 1 1 7.723-13.377l50.802 29.331a7.723 7.723 0 0 1-3.868 14.413zM334.749 113.155a7.695 7.695 0 0 1-3.855-1.036l-48.177-27.814a7.723 7.723 0 1 1 7.723-13.377l48.177 27.814a7.723 7.723 0 0 1-3.868 14.413z" opacity="1" data-original="#918291" class=""></path><path fill="#8ac9fe" d="m205.899 28.809 50.451 52.39 50.451-52.39L257.38.276a2.06 2.06 0 0 0-2.06 0z" opacity="1" data-original="#8ac9fe" class=""></path><path fill="#60b7ff" d="m256.35 117.001-49.421-28.533a2.06 2.06 0 0 1-1.03-1.784V28.809l50.451 29.128 16.279 23.262z" opacity="1" data-original="#60b7ff" class=""></path><path fill="#26a6fe" d="m256.35 117.001 49.421-28.533a2.06 2.06 0 0 0 1.03-1.784V28.809L256.35 57.937z" opacity="1" data-original="#26a6fe" class=""></path><path fill="#bbf49b" d="m168.306 203.769 88.044 91.428 88.044-91.428-86.247-49.795a3.594 3.594 0 0 0-3.594 0z" opacity="1" data-original="#bbf49b" class=""></path><path fill="#9be69d" d="m256.35 357.677-86.247-49.795a3.595 3.595 0 0 1-1.797-3.113v-101l88.044 50.832 28.41 40.596z" opacity="1" data-original="#9be69d" class=""></path><path fill="#6fd7a3" d="m256.35 357.677 86.247-49.795a3.595 3.595 0 0 0 1.797-3.113v-101l-88.044 50.832z" opacity="1" data-original="#6fd7a3" class=""></path><path fill="#bbf49b" d="m396.978 116.764 50.451 52.39 50.451-52.39-49.421-28.534a2.06 2.06 0 0 0-2.06 0z" opacity="1" data-original="#bbf49b" class=""></path><path fill="#9be69d" d="m447.429 204.956-49.421-28.533a2.06 2.06 0 0 1-1.03-1.784v-57.875l50.451 29.128 16.279 23.262z" opacity="1" data-original="#9be69d" class=""></path><path fill="#6fd7a3" d="m447.429 204.956 49.421-28.533a2.06 2.06 0 0 0 1.03-1.784v-57.875l-50.451 29.128z" opacity="1" data-original="#6fd7a3" class=""></path><path fill="#8ac9fe" d="m396.978 334.618 50.451 52.39 50.451-52.39-49.421-28.533a2.06 2.06 0 0 0-2.06 0z" opacity="1" data-original="#8ac9fe" class=""></path><path fill="#60b7ff" d="m447.429 422.81-49.421-28.533a2.06 2.06 0 0 1-1.03-1.784v-57.875l50.451 29.128 16.279 23.262z" opacity="1" data-original="#60b7ff" class=""></path><path fill="#26a6fe" d="m447.429 422.81 49.421-28.533a2.06 2.06 0 0 0 1.03-1.784v-57.875l-50.451 29.128z" opacity="1" data-original="#26a6fe" class=""></path><path fill="#bbf49b" d="m205.899 423.808 50.451 52.39 50.451-52.39-49.421-28.533a2.06 2.06 0 0 0-2.06 0z" opacity="1" data-original="#bbf49b" class=""></path><path fill="#9be69d" d="m256.35 512-49.421-28.533a2.06 2.06 0 0 1-1.03-1.784v-57.875l50.451 29.128 16.279 23.262z" opacity="1" data-original="#9be69d" class=""></path><path fill="#6fd7a3" d="m256.35 512 49.421-28.533a2.06 2.06 0 0 0 1.03-1.784v-57.875l-50.451 29.128z" opacity="1" data-original="#6fd7a3" class=""></path><path fill="#8ac9fe" d="m14.12 335.616 50.451 52.39 50.451-52.39-49.421-28.533a2.06 2.06 0 0 0-2.06 0z" opacity="1" data-original="#8ac9fe" class=""></path><path fill="#60b7ff" d="M64.571 423.808 15.15 395.275a2.06 2.06 0 0 1-1.03-1.784v-57.875l50.451 29.128 16.279 23.262z" opacity="1" data-original="#60b7ff" class=""></path><path fill="#26a6fe" d="m64.571 423.808 49.421-28.533a2.06 2.06 0 0 0 1.03-1.784v-57.875l-50.451 29.128z" opacity="1" data-original="#26a6fe" class=""></path><path fill="#bbf49b" d="m14.12 116.347 50.451 52.39 50.451-52.39-49.421-28.534a2.06 2.06 0 0 0-2.06 0z" opacity="1" data-original="#bbf49b" class=""></path><path fill="#9be69d" d="M64.571 204.539 15.15 176.005a2.06 2.06 0 0 1-1.03-1.784v-57.875l50.451 29.128 16.279 23.262z" opacity="1" data-original="#9be69d" class=""></path><path fill="#6fd7a3" d="m64.571 204.539 49.421-28.533a2.06 2.06 0 0 0 1.03-1.784v-57.875l-50.451 29.128z" opacity="1" data-original="#6fd7a3" class=""></path></g></svg>