<svg xmlns="http://www.w3.org/2000/svg" version="1.1" xmlns:xlink="http://www.w3.org/1999/xlink" width="512" height="512" x="0" y="0" viewBox="0 0 512 512" style="enable-background:new 0 0 512 512" xml:space="preserve" class=""><g><path fill="#3d4a75" d="M35.268 81.94H65.61v271.568H35.268zM354.568 81.94h30.342v271.568h-30.342z" opacity="1" data-original="#3d4a75" class=""></path><path fill="#3d4a75" fill-rule="evenodd" d="m35.391 81.891 174.698-70.9 174.699 70.9v17.221H35.391z" opacity="1" data-original="#3d4a75" class=""></path><path fill="#525d91" d="M30.315 81.891h359.55a5.727 5.727 0 0 1 5.724 5.724v58.781a5.727 5.727 0 0 1-5.725 5.725H30.315a5.727 5.727 0 0 1-5.725-5.725v-58.78a5.727 5.727 0 0 1 5.725-5.725z" opacity="1" data-original="#525d91"></path><path fill="#5d689e" fill-rule="evenodd" d="M389.865 81.891H38.218v52.821c0 3.149 2.577 5.726 5.724 5.726h351.647V87.617c0-3.149-2.577-5.725-5.724-5.725z" opacity="1" data-original="#5d689e"></path><path fill="#f3f3ff" d="M159.049 107.845H261.13v18.321H159.049z" opacity="1" data-original="#f3f3ff" class=""></path><path fill="#3d4a75" fill-rule="evenodd" d="M159.049 107.845h-5.42v23.741H261.13v-5.42H159.049z" opacity="1" data-original="#3d4a75" class=""></path><path fill="#e37500" fill-rule="evenodd" d="M319.041 292.84h88.575l-14.08-14.08c-1.933-1.934-4.288-2.908-7.021-2.908h-67.474z" opacity="1" data-original="#e37500"></path><path fill="#c45b00" d="M300.789 210.235h20.788v234.648h-20.788z" opacity="1" data-original="#c45b00" class=""></path><g fill-rule="evenodd"><path fill="#e37500" d="M321.577 465.018H77.312c-11.512 0-20.901-9.389-20.901-20.901v-35.374h265.166z" opacity="1" data-original="#e37500"></path><path fill="#f9ac00" d="M471.014 465.018H321.578V292.841h90.342c6.603 0 12.287 2.498 16.752 7.364l36.358 39.621c4.002 4.361 5.984 9.453 5.984 15.373v109.82z" opacity="1" data-original="#f9ac00"></path><path fill="#fdc72e" d="M455.999 465.018H321.577V292.841h75.328c6.603 0 12.287 2.498 16.752 7.364l36.358 39.621c4.002 4.361 5.984 9.453 5.984 15.372z" opacity="1" data-original="#fdc72e" class=""></path><path fill="#e9e9ff" d="M365.307 358.719v-48.142h72.884l26.839 29.247c4.002 4.361 5.984 9.453 5.984 15.373v3.522z" opacity="1" data-original="#e9e9ff" class=""></path><path fill="#f3f3ff" d="M365.306 358.719v-48.141h57.87l26.839 29.247c4.002 4.361 5.984 9.453 5.984 15.372v3.522z" opacity="1" data-original="#f3f3ff" class=""></path><path fill="#c45b00" d="M471.014 444.883H56.41v20.134h416.134c8.188 0 14.866-6.678 14.866-14.866v-27.107h-16.397v21.838z" opacity="1" data-original="#c45b00" class=""></path></g><path fill="#323e66" d="M56.41 428.086h21.408v16.797H56.41zM450.349 389.596h20.664v23.939h-20.664z" opacity="1" data-original="#323e66"></path><circle cx="390.533" cy="465.017" r="35.992" fill="#323e66" transform="rotate(-13.34 390.517 464.84)" opacity="1" data-original="#323e66"></circle><path fill="#fdc72e" fill-rule="evenodd" d="M390.534 482.703c9.741 0 17.685-7.945 17.685-17.685s-7.944-17.685-17.685-17.685-17.685 7.944-17.685 17.685 7.945 17.685 17.685 17.685z" opacity="1" data-original="#fdc72e" class=""></path><path fill="#323e66" fill-rule="evenodd" d="M133.868 501.009c19.824 0 35.992-16.168 35.992-35.992s-16.168-35.992-35.992-35.992-35.992 16.168-35.992 35.992 16.169 35.992 35.992 35.992z" opacity="1" data-original="#323e66"></path><path fill="#fdc72e" fill-rule="evenodd" d="M133.868 482.703c9.741 0 17.685-7.945 17.685-17.685s-7.944-17.685-17.685-17.685-17.685 7.944-17.685 17.685 7.945 17.685 17.685 17.685z" opacity="1" data-original="#fdc72e" class=""></path><path fill="#e6b17c" d="M159.912 338.304h70.439v70.439h-70.439z" opacity="1" data-original="#e6b17c"></path><path fill="#fdc72e" fill-rule="evenodd" d="M184.833 338.304h20.595v22.914l-10.297-5.168-10.298 5.168z" opacity="1" data-original="#fdc72e" class=""></path><path fill="#ba8047" d="M159.912 267.865h70.439v70.439h-70.439z" opacity="1" data-original="#ba8047" class=""></path><path fill="#2dd62d" fill-rule="evenodd" d="M184.833 267.865h20.595v22.914l-10.297-5.168-10.298 5.168z" opacity="1" data-original="#2dd62d"></path><path fill="#dea368" d="M230.35 338.304h70.439v70.439H230.35z" opacity="1" data-original="#dea368"></path><path fill="#fb545c" fill-rule="evenodd" d="M255.272 338.304h20.595v22.914l-10.297-5.168-10.298 5.168z" opacity="1" data-original="#fb545c"></path><path fill="#fdd7ad" d="M230.35 245.619h70.439v92.685H230.35z" opacity="1" data-original="#fdd7ad" class=""></path><path fill="#5caeff" fill-rule="evenodd" d="M255.272 245.619h20.595v22.914l-10.297-5.168-10.298 5.168z" opacity="1" data-original="#5caeff"></path><path fill="#fdd7ad" d="M89.473 338.304h70.439v70.439H89.473z" opacity="1" data-original="#fdd7ad" class=""></path><path fill="#5caeff" fill-rule="evenodd" d="M114.394 338.304h20.595v22.914l-10.297-5.168-10.298 5.168z" opacity="1" data-original="#5caeff"></path><path fill="#f2c496" d="M89.473 338.304h7.726v70.439h-7.726z" opacity="1" data-original="#f2c496" class=""></path><path fill="#dea368" d="M159.912 338.304h7.726v70.439h-7.726z" opacity="1" data-original="#dea368"></path><path fill="#d19458" d="M230.35 338.304h7.726v70.439h-7.726z" opacity="1" data-original="#d19458"></path><path fill="#f2c496" d="M230.35 245.619h7.726v92.685h-7.726z" opacity="1" data-original="#f2c496" class=""></path><path fill="#ab733a" d="M159.912 267.865h7.726v70.439h-7.726z" opacity="1" data-original="#ab733a"></path><path fill="#e37500" fill-rule="evenodd" d="M380.668 390.341a5 5 0 0 1 0 10h-19.856a5 5 0 0 1 0-10z" opacity="1" data-original="#e37500"></path></g></svg>